<svg version="1.1" viewBox="0.0 0.0 500.0 300.0" fill="none" stroke="none" stroke-linecap="square" stroke-miterlimit="10" xmlns:xlink="http://www.w3.org/1999/xlink" xmlns="http://www.w3.org/2000/svg"><clipPath id="g1157e05f032_0_0.0"><path d="m0 0l960.0 0l0 540.0l-960.0 0l0 -540.0z" clip-rule="nonzero"/></clipPath><g clip-path="url(#g1157e05f032_0_0.0)"><path fill="#000000" fill-opacity="0.0" d="m0 0l960.0 0l0 540.0l-960.0 0z" fill-rule="evenodd"/><path fill="#134f5c" d="m32.682415 100.64567l0 0c0 -38.355526 31.093296 -69.44882 69.44882 -69.44882l112.91338 0l0 0c18.418976 0 36.083557 7.31691 49.107727 20.341087c13.0242 13.024185 20.341095 30.688759 20.341095 49.107735l0 0l0 0c0 38.355522 -31.093292 69.448814 -69.44882 69.448814l-112.91338 0c-38.355522 0 -69.44882 -31.093292 -69.44882 -69.448814z" fill-rule="evenodd"/><path stroke="#ffffff" stroke-width="1.0" stroke-linejoin="round" stroke-linecap="butt" d="m32.682415 100.64567l0 0c0 -38.355526 31.093296 -69.44882 69.44882 -69.44882l112.91338 0l0 0c18.418976 0 36.083557 7.31691 49.107727 20.341087c13.0242 13.024185 20.341095 30.688759 20.341095 49.107735l0 0l0 0c0 38.355522 -31.093292 69.448814 -69.44882 69.448814l-112.91338 0c-38.355522 0 -69.44882 -31.093292 -69.44882 -69.448814z" fill-rule="evenodd"/><path fill="#d9d9d9" fill-opacity="0.3966" d="m173.91602 100.839905l0 0c0 -38.355526 31.093292 -69.44882 69.44881 -69.44882l109.133865 0l0 0c18.418976 0 36.083557 7.31691 49.107727 20.341087c13.02417 13.024185 20.341095 30.688759 20.341095 49.107735l0 0l0 0c0 38.355515 -31.093292 69.44882 -69.44882 69.44882l-109.133865 0c-38.355515 0 -69.44881 -31.093307 -69.44881 -69.44882z" fill-rule="evenodd"/><path stroke="#ffffff" stroke-width="1.0" stroke-linejoin="round" stroke-linecap="butt" d="m173.91602 100.839905l0 0c0 -38.355526 31.093292 -69.44882 69.44881 -69.44882l109.133865 0l0 0c18.418976 0 36.083557 7.31691 49.107727 20.341087c13.02417 13.024185 20.341095 30.688759 20.341095 49.107735l0 0l0 0c0 38.355515 -31.093292 69.44882 -69.44882 69.44882l-109.133865 0c-38.355515 0 -69.44881 -31.093307 -69.44881 -69.44882z" fill-rule="evenodd"/><path fill="#000000" fill-opacity="0.0" d="m56.56168 83.80315l124.66142 0l0 35.55906l-124.66142 0z" fill-rule="evenodd"/><path fill="#ffffff" d="m69.29605 105.8219q-0.703125 0 -1.390625 -0.296875q-0.671875 -0.296875 -1.1875 -0.859375q-0.515625 -0.578125 -0.75 -1.4375l1.078125 -0.4375q0.21875 0.828125 0.8125 1.390625q0.609375 0.5625 1.46875 0.5625q0.53125 0 0.96875 -0.1875q0.453125 -0.203125 0.71875 -0.578125q0.28125 -0.375 0.28125 -0.90625q0 -0.484375 -0.234375 -0.8125q-0.234375 -0.328125 -0.703125 -0.59375q-0.46875 -0.265625 -1.140625 -0.5l-0.609375 -0.21875q-0.390625 -0.140625 -0.796875 -0.34375q-0.40625 -0.21875 -0.75 -0.515625q-0.34375 -0.296875 -0.546875 -0.71875q-0.1875 -0.421875 -0.1875 -0.984375q0 -0.703125 0.359375 -1.265625q0.375 -0.578125 1.03125 -0.921875q0.65625 -0.34375 1.515625 -0.34375q0.890625 0 1.484375 0.328125q0.609375 0.3125 0.96875 0.765625q0.359375 0.453125 0.46875 0.8125l-1.046875 0.453125q-0.078125 -0.265625 -0.3125 -0.5625q-0.21875 -0.3125 -0.609375 -0.515625q-0.375 -0.203125 -0.953125 -0.203125q-0.453125 0 -0.859375 0.1875q-0.40625 0.1875 -0.65625 0.515625q-0.25 0.3125 -0.25 0.75q0 0.59375 0.46875 0.9375q0.484375 0.34375 1.296875 0.625l0.640625 0.21875q0.421875 0.140625 0.859375 0.359375q0.453125 0.21875 0.828125 0.546875q0.390625 0.328125 0.625 0.828125q0.25 0.484375 0.25 1.15625q0 0.734375 -0.296875 1.265625q-0.28125 0.515625 -0.75 0.859375q-0.453125 0.328125 -1.015625 0.484375q-0.546875 0.15625 -1.078125 0.15625zm6.270584 2.3125q-0.03125 0.09375 -0.09375 0.203125q-0.046875 0.125 -0.0625 0.140625l-1.171875 0q0.078125 -0.171875 0.171875 -0.375q0.09375 -0.203125 0.234375 -0.5q0.078125 -0.171875 0.140625 -0.328125q0.0625 -0.140625 0.140625 -0.328125q0.09375 -0.171875 0.21875 -0.4375l0.9375 -2.03125l0.25 -0.625l2.046875 -5.046875l1.234375 0l-3.515625 8.109375q-0.0625 0.125 -0.171875 0.375q-0.109375 0.265625 -0.21875 0.515625q-0.09375 0.25 -0.140625 0.328125zm0.25 -2.8125l-2.875 -6.515625l1.234375 0l2.125 5.046875l0.109375 0l-0.59375 1.46875zm4.783081 0.28125l0 -6.796875l1.078125 0l0 1.0l0.046875 0q0.1875 -0.328125 0.515625 -0.59375q0.328125 -0.28125 0.75 -0.453125q0.421875 -0.171875 0.859375 -0.171875q0.75 0 1.296875 0.375q0.546875 0.359375 0.796875 0.953125q0.34375 -0.578125 0.921875 -0.953125q0.59375 -0.375 1.40625 -0.375q1.21875 0 1.78125 0.734375q0.578125 0.734375 0.578125 1.921875l0 4.359375l-1.125 0l0 -4.1875q0 -0.984375 -0.40625 -1.390625q-0.390625 -0.40625 -1.125 -0.40625q-0.515625 0 -0.921875 0.296875q-0.40625 0.296875 -0.640625 0.796875q-0.234375 0.484375 -0.234375 1.046875l0 3.84375l-1.125 0l0 -4.171875q0 -0.984375 -0.40625 -1.390625q-0.40625 -0.421875 -1.125 -0.421875q-0.515625 0 -0.921875 0.3125q-0.40625 0.296875 -0.640625 0.796875q-0.234375 0.484375 -0.234375 1.0625l0 3.8125l-1.125 0zm15.115189 0.21875q-0.546875 0 -1.0 -0.1875q-0.453125 -0.171875 -0.796875 -0.4375q-0.34375 -0.28125 -0.53125 -0.59375l-0.046875 0l0 1.0l-1.078125 0l0 -9.546875l1.125 0l0 2.8125l-0.046875 0.953125l0.046875 0q0.1875 -0.328125 0.53125 -0.59375q0.34375 -0.28125 0.796875 -0.453125q0.453125 -0.1875 1.0 -0.1875q0.921875 0 1.65625 0.46875q0.734375 0.46875 1.15625 1.28125q0.4375 0.8125 0.4375 1.859375q0 1.0625 -0.4375 1.875q-0.421875 0.8125 -1.15625 1.28125q-0.734375 0.46875 -1.65625 0.46875zm-0.125 -1.03125q0.59375 0 1.09375 -0.3125q0.515625 -0.3125 0.828125 -0.890625q0.3125 -0.59375 0.3125 -1.390625q0 -0.796875 -0.3125 -1.375q-0.3125 -0.578125 -0.828125 -0.890625q-0.5 -0.3125 -1.09375 -0.3125q-0.59375 0 -1.109375 0.3125q-0.5 0.3125 -0.828125 0.890625q-0.3125 0.578125 -0.3125 1.375q0 0.8125 0.3125 1.390625q0.328125 0.578125 0.828125 0.890625q0.515625 0.3125 1.109375 0.3125zm7.8203735 1.03125q-1.015625 0 -1.8125 -0.484375q-0.78125 -0.484375 -1.234375 -1.296875q-0.4375 -0.828125 -0.4375 -1.84375q0 -1.0 0.4375 -1.8125q0.453125 -0.828125 1.234375 -1.3125q0.796875 -0.484375 1.8125 -0.484375q1.03125 0 1.8125 0.5q0.796875 0.484375 1.234375 1.3125q0.453125 0.8125 0.453125 1.796875q0 1.015625 -0.453125 1.84375q-0.4375 0.8125 -1.234375 1.296875q-0.78125 0.484375 -1.8125 0.484375zm0 -1.03125q0.609375 0 1.15625 -0.296875q0.546875 -0.3125 0.875 -0.890625q0.328125 -0.578125 0.328125 -1.40625q0 -0.8125 -0.328125 -1.390625q-0.328125 -0.578125 -0.875 -0.875q-0.546875 -0.3125 -1.15625 -0.3125q-0.609375 0 -1.15625 0.3125q-0.546875 0.296875 -0.890625 0.875q-0.328125 0.578125 -0.328125 1.390625q0 0.828125 0.328125 1.40625q0.34375 0.578125 0.890625 0.890625q0.546875 0.296875 1.15625 0.296875zm4.7518616 0.8125l0 -9.546875l1.125 0l0 9.546875l-1.125 0zm5.1205597 0.21875q-0.765625 0 -1.34375 -0.25q-0.578125 -0.25 -0.96875 -0.671875q-0.375 -0.421875 -0.5625 -0.90625l1.015625 -0.453125q0.265625 0.609375 0.765625 0.953125q0.515625 0.328125 1.171875 0.328125q0.625 0 1.046875 -0.25q0.421875 -0.265625 0.421875 -0.75q0 -0.3125 -0.1875 -0.515625q-0.171875 -0.203125 -0.5 -0.34375q-0.328125 -0.15625 -0.8125 -0.28125l-0.828125 -0.203125q-0.484375 -0.140625 -0.90625 -0.375q-0.421875 -0.25 -0.6875 -0.625q-0.25 -0.375 -0.25 -0.921875q0 -0.625 0.359375 -1.0625q0.359375 -0.4375 0.9375 -0.671875q0.59375 -0.234375 1.25 -0.234375q0.59375 0 1.109375 0.171875q0.515625 0.171875 0.890625 0.5q0.390625 0.3125 0.59375 0.796875l-0.984375 0.453125q-0.265625 -0.5 -0.6875 -0.703125q-0.421875 -0.203125 -0.9375 -0.203125q-0.5625 0 -0.984375 0.25q-0.40625 0.25 -0.40625 0.671875q0 0.421875 0.328125 0.640625q0.34375 0.21875 0.84375 0.34375l0.984375 0.25q1.0 0.265625 1.5 0.765625q0.515625 0.5 0.515625 1.21875q0 0.640625 -0.359375 1.109375q-0.359375 0.453125 -0.984375 0.71875q-0.609375 0.25 -1.34375 0.25z" fill-rule="nonzero"/><path fill="#000000" fill-opacity="0.0" d="m310.42258 87.461945l85.07086 0l0 35.55905l-85.07086 0z" fill-rule="evenodd"/><path fill="#000000" d="m324.90695 109.48069q-1.046875 0 -1.9375 -0.390625q-0.890625 -0.390625 -1.5625 -1.078125q-0.65625 -0.6875 -1.03125 -1.578125q-0.359375 -0.90625 -0.359375 -1.9375q0 -1.046875 0.359375 -1.9375q0.375 -0.90625 1.03125 -1.59375q0.671875 -0.6875 1.5625 -1.0625q0.890625 -0.390625 1.9375 -0.390625q1.0625 0 1.953125 0.390625q0.890625 0.375 1.546875 1.0625q0.671875 0.6875 1.03125 1.59375q0.359375 0.890625 0.359375 1.9375q0 1.03125 -0.359375 1.9375q-0.359375 0.890625 -1.03125 1.578125q-0.65625 0.6875 -1.546875 1.078125q-0.890625 0.390625 -1.953125 0.390625zm0 -1.078125q1.046875 0 1.890625 -0.5q0.84375 -0.5 1.34375 -1.375q0.515625 -0.890625 0.515625 -2.03125q0 -1.171875 -0.515625 -2.046875q-0.5 -0.875 -1.34375 -1.359375q-0.84375 -0.5 -1.890625 -0.5q-1.015625 0 -1.875 0.5q-0.84375 0.484375 -1.359375 1.359375q-0.5 0.875 -0.5 2.046875q0 1.140625 0.5 2.03125q0.515625 0.875 1.359375 1.375q0.859375 0.5 1.875 0.5zm9.79483 1.078125q-0.546875 0 -1.0 -0.1875q-0.453125 -0.171875 -0.796875 -0.4375q-0.34375 -0.28125 -0.53125 -0.59375l-0.046875 0l0 1.0l-1.078125 0l0 -9.546875l1.125 0l0 2.8125l-0.046875 0.953125l0.046875 0q0.1875 -0.328125 0.53125 -0.59375q0.34375 -0.28125 0.796875 -0.453125q0.453125 -0.1875 1.0 -0.1875q0.921875 0 1.65625 0.46875q0.734375 0.46875 1.15625 1.28125q0.4375 0.8125 0.4375 1.859375q0 1.0625 -0.4375 1.875q-0.421875 0.8125 -1.15625 1.28125q-0.734375 0.46875 -1.65625 0.46875zm-0.125 -1.03125q0.59375 0 1.09375 -0.3125q0.515625 -0.3125 0.828125 -0.890625q0.3125 -0.59375 0.3125 -1.390625q0 -0.796875 -0.3125 -1.375q-0.3125 -0.578125 -0.828125 -0.890625q-0.5 -0.3125 -1.09375 -0.3125q-0.59375 0 -1.109375 0.3125q-0.5 0.3125 -0.828125 0.890625q-0.3125 0.578125 -0.3125 1.375q0 0.8125 0.3125 1.390625q0.328125 0.578125 0.828125 0.890625q0.515625 0.3125 1.109375 0.3125zm3.9880676 3.828125q-0.1875 0 -0.328125 -0.03125q-0.15625 -0.03125 -0.28125 -0.0625l0 -1.078125q0.109375 0.046875 0.28125 0.09375q0.15625 0.046875 0.28125 0.046875q0.4375 0 0.609375 -0.265625q0.1875 -0.265625 0.1875 -0.765625l0 -7.75l1.125 0l0 7.75q0 0.71875 -0.234375 1.171875q-0.234375 0.453125 -0.65625 0.671875q-0.421875 0.21875 -0.984375 0.21875zm1.296875 -11.0625q-0.328125 0 -0.578125 -0.234375q-0.234375 -0.25 -0.234375 -0.578125q0 -0.34375 0.234375 -0.578125q0.25 -0.234375 0.578125 -0.234375q0.359375 0 0.578125 0.234375q0.234375 0.234375 0.234375 0.578125q0 0.328125 -0.234375 0.578125q-0.21875 0.234375 -0.578125 0.234375zm5.3048706 8.265625q-0.984375 0 -1.75 -0.46875q-0.765625 -0.46875 -1.203125 -1.28125q-0.421875 -0.8125 -0.421875 -1.859375q0 -0.96875 0.40625 -1.796875q0.40625 -0.828125 1.140625 -1.328125q0.734375 -0.5 1.734375 -0.5q1.015625 0 1.734375 0.453125q0.734375 0.4375 1.125 1.234375q0.40625 0.78125 0.40625 1.796875q0 0.09375 -0.015625 0.1875q0 0.09375 -0.015625 0.15625l-5.859375 0l0 -0.9375l4.6875 0q-0.015625 -0.265625 -0.140625 -0.59375q-0.109375 -0.328125 -0.359375 -0.609375q-0.234375 -0.296875 -0.625 -0.46875q-0.375 -0.1875 -0.9375 -0.1875q-0.65625 0 -1.15625 0.34375q-0.484375 0.34375 -0.75 0.9375q-0.25 0.578125 -0.25 1.3125q0 0.875 0.328125 1.453125q0.34375 0.5625 0.859375 0.84375q0.53125 0.28125 1.109375 0.28125q0.75 0 1.234375 -0.34375q0.484375 -0.359375 0.78125 -0.890625l0.953125 0.46875q-0.390625 0.78125 -1.140625 1.296875q-0.75 0.5 -1.875 0.5zm7.6328735 0q-1.0 0 -1.78125 -0.46875q-0.78125 -0.484375 -1.21875 -1.296875q-0.4375 -0.828125 -0.4375 -1.859375q0 -1.03125 0.4375 -1.84375q0.4375 -0.8125 1.21875 -1.28125q0.78125 -0.484375 1.78125 -0.484375q1.140625 0 1.875 0.53125q0.75 0.53125 1.046875 1.359375l-1.015625 0.421875q-0.25 -0.625 -0.75 -0.953125q-0.5 -0.328125 -1.21875 -0.328125q-0.59375 0 -1.109375 0.328125q-0.515625 0.3125 -0.84375 0.890625q-0.3125 0.578125 -0.3125 1.359375q0 0.78125 0.3125 1.375q0.328125 0.578125 0.84375 0.90625q0.515625 0.3125 1.109375 0.3125q0.71875 0 1.234375 -0.328125q0.53125 -0.34375 0.78125 -0.953125l1.015625 0.421875q-0.328125 0.796875 -1.078125 1.34375q-0.75 0.546875 -1.890625 0.546875zm3.6635742 -7.015625l3.984375 0l0 1.03125l-3.984375 0l0 -1.03125zm1.1875 5.015625l0 -6.9375l1.125 0l0 6.65625q0 0.53125 0.21875 0.828125q0.21875 0.28125 0.734375 0.28125q0.21875 0 0.40625 -0.0625q0.1875 -0.0625 0.34375 -0.15625l0 1.109375q-0.171875 0.078125 -0.390625 0.125q-0.203125 0.046875 -0.546875 0.046875q-0.859375 0 -1.375 -0.5q-0.515625 -0.5 -0.515625 -1.390625zm6.6543274 2.0q-0.765625 0 -1.34375 -0.25q-0.578125 -0.25 -0.96875 -0.671875q-0.375 -0.421875 -0.5625 -0.90625l1.015625 -0.453125q0.265625 0.609375 0.765625 0.953125q0.515625 0.328125 1.171875 0.328125q0.625 0 1.046875 -0.25q0.421875 -0.265625 0.421875 -0.75q0 -0.3125 -0.1875 -0.515625q-0.171875 -0.203125 -0.5 -0.34375q-0.328125 -0.15625 -0.8125 -0.28125l-0.828125 -0.203125q-0.484375 -0.140625 -0.90625 -0.375q-0.421875 -0.25 -0.6875 -0.625q-0.25 -0.375 -0.25 -0.921875q0 -0.625 0.359375 -1.0625q0.359375 -0.4375 0.9375 -0.671875q0.59375 -0.234375 1.25 -0.234375q0.59375 0 1.109375 0.171875q0.515625 0.171875 0.890625 0.5q0.390625 0.3125 0.59375 0.796875l-0.984375 0.453125q-0.265625 -0.5 -0.6875 -0.703125q-0.421875 -0.203125 -0.9375 -0.203125q-0.5625 0 -0.984375 0.25q-0.40625 0.25 -0.40625 0.671875q0 0.421875 0.328125 0.640625q0.34375 0.21875 0.84375 0.34375l0.984375 0.25q1.0 0.265625 1.5 0.765625q0.515625 0.5 0.515625 1.21875q0 0.640625 -0.359375 1.109375q-0.359375 0.453125 -0.984375 0.71875q-0.609375 0.25 -1.34375 0.25z" fill-rule="nonzero"/><g filter="url(#shadowFilter-g1157e05f032_0_0.1)"><use xlink:href="#g1157e05f032_0_0.1" transform=""/></g><defs><filter id="shadowFilter-g1157e05f032_0_0.1" filterUnits="userSpaceOnUse"><feGaussianBlur in="SourceAlpha" stdDeviation="18.0" result="blur"/><feComponentTransfer in="blur" color-interpolation-filters="sRGB"><feFuncR type="linear" slope="0" intercept="1.0"/><feFuncG type="linear" slope="0" intercept="1.0"/><feFuncB type="linear" slope="0" intercept="1.0"/><feFuncA type="linear" slope="0.5" intercept="0"/></feComponentTransfer></filter></defs><g id="g1157e05f032_0_0.1"><path fill="#11d8ba" d="m150.30971 101.58268l0 0c0 -38.355526 31.093292 -69.44882 69.44882 -69.44882l8.031494 0l0 0c18.418976 0 36.08354 7.31691 49.107742 20.341087c13.02417 13.024178 20.341064 30.688759 20.341064 49.107735l0 0l0 0c0 38.355522 -31.093292 69.448814 -69.44881 69.448814l-8.031494 0c-38.35553 0 -69.44882 -31.093292 -69.44882 -69.448814z" fill-rule="evenodd"/><path stroke="#ffffff" stroke-width="2.0" stroke-linejoin="round" stroke-linecap="butt" d="m150.30971 101.58268l0 0c0 -38.355526 31.093292 -69.44882 69.44882 -69.44882l8.031494 0l0 0c18.418976 0 36.08354 7.31691 49.107742 20.341087c13.02417 13.024178 20.341064 30.688759 20.341064 49.107735l0 0l0 0c0 38.355522 -31.093292 69.448814 -69.44881 69.448814l-8.031494 0c-38.35553 0 -69.44882 -31.093292 -69.44882 -69.448814z" fill-rule="evenodd"/></g><path fill="#000000" fill-opacity="0.0" d="m176.68767 75.72441l97.6378 0l0 51.716537l-97.6378 0z" fill-rule="evenodd"/><path fill="#ffffff" d="m201.02385 97.74316q-0.765625 0 -1.46875 -0.296875q-0.6875 -0.3125 -1.21875 -0.890625q-0.515625 -0.59375 -0.765625 -1.453125l1.375 -0.5625q0.21875 0.765625 0.75 1.296875q0.53125 0.515625 1.328125 0.515625q0.453125 0 0.84375 -0.15625q0.40625 -0.171875 0.640625 -0.484375q0.234375 -0.3125 0.234375 -0.765625q0 -0.421875 -0.203125 -0.71875q-0.1875 -0.296875 -0.625 -0.546875q-0.4375 -0.25 -1.125 -0.484375l-0.59375 -0.21875q-0.390625 -0.140625 -0.796875 -0.359375q-0.390625 -0.21875 -0.734375 -0.53125q-0.34375 -0.3125 -0.546875 -0.734375q-0.1875 -0.421875 -0.1875 -0.984375q0 -0.71875 0.375 -1.296875q0.375 -0.59375 1.046875 -0.9375q0.671875 -0.359375 1.578125 -0.359375q0.90625 0 1.53125 0.328125q0.625 0.3125 0.96875 0.765625q0.359375 0.453125 0.484375 0.875l-1.3125 0.5625q-0.078125 -0.28125 -0.296875 -0.546875q-0.203125 -0.265625 -0.546875 -0.4375q-0.328125 -0.1875 -0.828125 -0.1875q-0.421875 0 -0.78125 0.15625q-0.34375 0.15625 -0.5625 0.4375q-0.203125 0.265625 -0.203125 0.625q0 0.515625 0.421875 0.84375q0.421875 0.328125 1.234375 0.59375l0.609375 0.21875q0.46875 0.15625 0.921875 0.375q0.453125 0.21875 0.828125 0.5625q0.375 0.34375 0.59375 0.828125q0.21875 0.484375 0.21875 1.15625q0 0.734375 -0.28125 1.28125q-0.28125 0.53125 -0.765625 0.875q-0.46875 0.328125 -1.046875 0.484375q-0.5625 0.171875 -1.09375 0.171875zm6.693863 2.328125q-0.03125 0.09375 -0.078125 0.1875q-0.046875 0.109375 -0.0625 0.140625l-1.53125 0q0.0625 -0.140625 0.1875 -0.40625q0.125 -0.265625 0.25 -0.53125q0.078125 -0.171875 0.15625 -0.375q0.09375 -0.203125 0.1875 -0.421875q0.109375 -0.203125 0.203125 -0.40625l0.96875 -2.140625l0.3125 -0.75l1.875 -4.640625l1.578125 0l-3.515625 8.109375q-0.09375 0.21875 -0.203125 0.46875q-0.109375 0.265625 -0.203125 0.46875q-0.078125 0.203125 -0.125 0.296875zm-0.109375 -2.75l-2.90625 -6.59375l1.59375 0l1.9375 4.640625l0.171875 0l-0.796875 1.953125zm5.1273193 0.203125l0 -6.796875l1.359375 0l0 0.9375l0.078125 0q0.203125 -0.34375 0.515625 -0.59375q0.328125 -0.25 0.734375 -0.40625q0.40625 -0.15625 0.84375 -0.15625q0.75 0 1.28125 0.359375q0.546875 0.359375 0.765625 0.90625q0.328125 -0.53125 0.90625 -0.890625q0.578125 -0.375 1.40625 -0.375q1.1875 0 1.78125 0.734375q0.59375 0.71875 0.59375 1.921875l0 4.359375l-1.4375 0l0 -4.125q0 -0.8125 -0.359375 -1.1875q-0.34375 -0.375 -0.96875 -0.375q-0.5 0 -0.875 0.28125q-0.359375 0.265625 -0.578125 0.734375q-0.203125 0.453125 -0.203125 1.03125l0 3.640625l-1.421875 0l0 -4.125q0 -0.8125 -0.359375 -1.1875q-0.359375 -0.375 -1.015625 -0.375q-0.46875 0 -0.84375 0.28125q-0.359375 0.28125 -0.5625 0.75q-0.203125 0.453125 -0.203125 1.03125l0 3.625l-1.4375 0zm15.513641 0.21875q-0.53125 0 -0.953125 -0.171875q-0.421875 -0.15625 -0.734375 -0.40625q-0.3125 -0.265625 -0.5 -0.546875l-0.078125 0l0 0.90625l-1.359375 0l0 -9.546875l1.4375 0l0 2.71875l-0.078125 0.953125l0.078125 0q0.1875 -0.296875 0.5 -0.546875q0.3125 -0.265625 0.734375 -0.421875q0.421875 -0.171875 0.953125 -0.171875q0.921875 0 1.65625 0.46875q0.734375 0.46875 1.171875 1.28125q0.4375 0.8125 0.4375 1.859375q0 1.0625 -0.4375 1.875q-0.4375 0.8125 -1.171875 1.28125q-0.734375 0.46875 -1.65625 0.46875zm-0.21875 -1.328125q0.53125 0 1.0 -0.28125q0.484375 -0.28125 0.765625 -0.796875q0.28125 -0.515625 0.28125 -1.21875q0 -0.703125 -0.28125 -1.203125q-0.28125 -0.515625 -0.765625 -0.796875q-0.46875 -0.28125 -1.0 -0.28125q-0.53125 0 -1.0 0.28125q-0.46875 0.28125 -0.765625 0.796875q-0.28125 0.5 -0.28125 1.203125q0 0.71875 0.28125 1.234375q0.296875 0.5 0.765625 0.78125q0.46875 0.28125 1.0 0.28125zm7.9913483 1.328125q-1.046875 0 -1.84375 -0.484375q-0.796875 -0.484375 -1.25 -1.296875q-0.453125 -0.828125 -0.453125 -1.84375q0 -1.0 0.453125 -1.8125q0.453125 -0.828125 1.25 -1.3125q0.796875 -0.484375 1.84375 -0.484375q1.046875 0 1.84375 0.5q0.796875 0.484375 1.25 1.296875q0.453125 0.8125 0.453125 1.8125q0 1.015625 -0.453125 1.84375q-0.453125 0.8125 -1.25 1.296875q-0.796875 0.484375 -1.84375 0.484375zm0 -1.328125q0.5625 0 1.046875 -0.265625q0.484375 -0.28125 0.78125 -0.78125q0.296875 -0.515625 0.296875 -1.25q0 -0.71875 -0.296875 -1.21875q-0.296875 -0.515625 -0.78125 -0.78125q-0.484375 -0.28125 -1.046875 -0.28125q-0.546875 0 -1.046875 0.28125q-0.484375 0.265625 -0.78125 0.78125q-0.296875 0.5 -0.296875 1.21875q0 0.734375 0.296875 1.25q0.296875 0.5 0.78125 0.78125q0.5 0.265625 1.046875 0.265625zm4.824951 1.109375l0 -9.546875l1.4375 0l0 9.546875l-1.4375 0zm3.2391815 0l0 -6.796875l1.4375 0l0 6.796875l-1.4375 0zm0.71875 -7.796875q-0.40625 0 -0.703125 -0.28125q-0.28125 -0.296875 -0.28125 -0.6875q0 -0.421875 0.28125 -0.6875q0.296875 -0.28125 0.703125 -0.28125q0.40625 0 0.6875 0.28125q0.28125 0.265625 0.28125 0.6875q0 0.390625 -0.28125 0.6875q-0.28125 0.28125 -0.6875 0.28125zm5.5778503 8.015625q-1.03125 0 -1.828125 -0.46875q-0.78125 -0.46875 -1.234375 -1.28125q-0.4375 -0.828125 -0.4375 -1.875q0 -1.03125 0.4375 -1.84375q0.453125 -0.8125 1.234375 -1.28125q0.796875 -0.484375 1.828125 -0.484375q1.140625 0 1.90625 0.515625q0.78125 0.5 1.125 1.375l-1.3125 0.53125q-0.234375 -0.546875 -0.6875 -0.8125q-0.4375 -0.28125 -1.0625 -0.28125q-0.546875 0 -1.015625 0.28125q-0.46875 0.28125 -0.75 0.796875q-0.28125 0.5 -0.28125 1.203125q0 0.703125 0.28125 1.21875q0.28125 0.515625 0.75 0.796875q0.46875 0.28125 1.015625 0.28125q0.65625 0 1.109375 -0.28125q0.453125 -0.296875 0.703125 -0.828125l1.28125 0.546875q-0.375 0.8125 -1.15625 1.359375q-0.765625 0.53125 -1.90625 0.53125z" fill-rule="nonzero"/><path fill="#ffffff" d="m206.31653 113.74316q-1.0625 0 -1.96875 -0.390625q-0.90625 -0.390625 -1.578125 -1.078125q-0.65625 -0.6875 -1.03125 -1.578125q-0.375 -0.90625 -0.375 -1.9375q0 -1.046875 0.375 -1.9375q0.375 -0.90625 1.03125 -1.59375q0.671875 -0.6875 1.578125 -1.0625q0.90625 -0.390625 1.96875 -0.390625q1.0625 0 1.953125 0.390625q0.890625 0.375 1.5625 1.0625q0.6875 0.6875 1.046875 1.59375q0.359375 0.890625 0.359375 1.9375q0 1.03125 -0.359375 1.9375q-0.359375 0.890625 -1.046875 1.578125q-0.671875 0.6875 -1.5625 1.078125q-0.890625 0.390625 -1.953125 0.390625zm0 -1.390625q0.96875 0 1.75 -0.453125q0.78125 -0.453125 1.25 -1.265625q0.46875 -0.8125 0.46875 -1.875q0 -1.078125 -0.46875 -1.890625q-0.46875 -0.8125 -1.25 -1.265625q-0.78125 -0.453125 -1.75 -0.453125q-0.96875 0 -1.75 0.453125q-0.78125 0.453125 -1.25 1.265625q-0.46875 0.8125 -0.46875 1.890625q0 1.0625 0.46875 1.875q0.46875 0.8125 1.25 1.265625q0.78125 0.453125 1.75 0.453125zm10.010834 1.390625q-0.53125 0 -0.953125 -0.171875q-0.421875 -0.15625 -0.734375 -0.40625q-0.3125 -0.265625 -0.5 -0.546875l-0.078125 0l0 0.90625l-1.359375 0l0 -9.546875l1.4375 0l0 2.71875l-0.078125 0.953125l0.078125 0q0.1875 -0.296875 0.5 -0.546875q0.3125 -0.265625 0.734375 -0.421875q0.421875 -0.171875 0.953125 -0.171875q0.921875 0 1.65625 0.46875q0.734375 0.46875 1.171875 1.28125q0.4375 0.8125 0.4375 1.859375q0 1.0625 -0.4375 1.875q-0.4375 0.8125 -1.171875 1.28125q-0.734375 0.46875 -1.65625 0.46875zm-0.21875 -1.328125q0.53125 0 1.0 -0.28125q0.484375 -0.28125 0.765625 -0.796875q0.28125 -0.515625 0.28125 -1.21875q0 -0.703125 -0.28125 -1.203125q-0.28125 -0.515625 -0.765625 -0.796875q-0.46875 -0.28125 -1.0 -0.28125q-0.53125 0 -1.0 0.28125q-0.46875 0.28125 -0.765625 0.796875q-0.28125 0.5 -0.28125 1.203125q0 0.71875 0.28125 1.234375q0.296875 0.5 0.765625 0.78125q0.46875 0.28125 1.0 0.28125zm4.2684326 4.125q-0.21875 0 -0.390625 -0.03125q-0.1875 -0.03125 -0.359375 -0.0625l0 -1.390625q0.125 0.0625 0.296875 0.109375q0.171875 0.0625 0.328125 0.0625q0.375 0 0.53125 -0.234375q0.171875 -0.234375 0.171875 -0.671875l0 -7.59375l1.4375 0l0 7.609375q0 0.78125 -0.265625 1.265625q-0.265625 0.484375 -0.71875 0.703125q-0.453125 0.234375 -1.03125 0.234375zm1.296875 -10.8125q-0.40625 0 -0.703125 -0.28125q-0.28125 -0.296875 -0.28125 -0.6875q0 -0.421875 0.28125 -0.6875q0.296875 -0.28125 0.703125 -0.28125q0.40625 0 0.6875 0.28125q0.28125 0.265625 0.28125 0.6875q0 0.390625 -0.28125 0.6875q-0.28125 0.28125 -0.6875 0.28125zm5.5309753 8.015625q-0.984375 0 -1.78125 -0.46875q-0.78125 -0.46875 -1.234375 -1.28125q-0.4375 -0.8125 -0.4375 -1.859375q0 -0.96875 0.421875 -1.796875q0.421875 -0.828125 1.1875 -1.328125q0.765625 -0.5 1.765625 -0.5q1.0625 0 1.796875 0.453125q0.734375 0.453125 1.125 1.25q0.390625 0.78125 0.390625 1.765625q0 0.140625 -0.015625 0.265625q0 0.125 -0.015625 0.1875l-5.84375 0l0 -1.078125l4.453125 0q-0.015625 -0.25 -0.140625 -0.53125q-0.125 -0.296875 -0.359375 -0.53125q-0.21875 -0.25 -0.5625 -0.390625q-0.34375 -0.15625 -0.8125 -0.15625q-0.578125 0 -1.03125 0.296875q-0.453125 0.296875 -0.71875 0.828125q-0.25 0.53125 -0.25 1.25q0 0.765625 0.296875 1.296875q0.296875 0.515625 0.765625 0.78125q0.484375 0.265625 1.046875 0.265625q0.6875 0 1.140625 -0.3125q0.453125 -0.3125 0.71875 -0.78125l1.1875 0.5625q-0.4375 0.8125 -1.203125 1.3125q-0.75 0.5 -1.890625 0.5zm7.777191 0q-1.03125 0 -1.828125 -0.46875q-0.78125 -0.46875 -1.234375 -1.28125q-0.4375 -0.828125 -0.4375 -1.875q0 -1.03125 0.4375 -1.84375q0.453125 -0.8125 1.234375 -1.28125q0.796875 -0.484375 1.828125 -0.484375q1.140625 0 1.90625 0.515625q0.78125 0.5 1.125 1.375l-1.3125 0.53125q-0.234375 -0.546875 -0.6875 -0.8125q-0.4375 -0.28125 -1.0625 -0.28125q-0.546875 0 -1.015625 0.28125q-0.46875 0.28125 -0.75 0.796875q-0.28125 0.5 -0.28125 1.203125q0 0.703125 0.28125 1.21875q0.28125 0.515625 0.75 0.796875q0.46875 0.28125 1.015625 0.28125q0.65625 0 1.109375 -0.28125q0.453125 -0.296875 0.703125 -0.828125l1.28125 0.546875q-0.375 0.8125 -1.15625 1.359375q-0.765625 0.53125 -1.90625 0.53125zm3.774353 -7.015625l4.296875 0l0 1.25l-4.296875 0l0 -1.25zm1.1875 4.828125l0 -6.75l1.4375 0l0 6.4375q0 0.515625 0.203125 0.78125q0.203125 0.265625 0.703125 0.265625q0.234375 0 0.421875 -0.078125q0.1875 -0.078125 0.375 -0.1875l0 1.40625q-0.21875 0.09375 -0.484375 0.140625q-0.25 0.0625 -0.59375 0.0625q-0.953125 0 -1.515625 -0.546875q-0.546875 -0.5625 -0.546875 -1.53125zm7.0946045 2.1875q-0.8125 0 -1.40625 -0.25q-0.59375 -0.25 -0.984375 -0.671875q-0.390625 -0.421875 -0.578125 -0.90625l1.296875 -0.5625q0.234375 0.546875 0.671875 0.84375q0.453125 0.28125 1.046875 0.28125q0.53125 0 0.921875 -0.1875q0.390625 -0.203125 0.390625 -0.640625q0 -0.28125 -0.1875 -0.453125q-0.171875 -0.1875 -0.484375 -0.3125q-0.296875 -0.125 -0.6875 -0.21875l-0.8125 -0.171875q-0.46875 -0.125 -0.90625 -0.375q-0.4375 -0.265625 -0.703125 -0.671875q-0.265625 -0.40625 -0.265625 -0.953125q0 -0.609375 0.34375 -1.046875q0.359375 -0.453125 0.953125 -0.6875q0.609375 -0.25 1.296875 -0.25q0.640625 0 1.171875 0.171875q0.53125 0.171875 0.921875 0.5q0.390625 0.3125 0.625 0.796875l-1.25 0.5625q-0.21875 -0.453125 -0.609375 -0.625q-0.390625 -0.1875 -0.84375 -0.1875q-0.5 0 -0.84375 0.203125q-0.34375 0.203125 -0.34375 0.546875q0 0.34375 0.296875 0.546875q0.3125 0.1875 0.75 0.3125l0.984375 0.25q1.015625 0.25 1.515625 0.765625q0.515625 0.5 0.515625 1.234375q0 0.65625 -0.375 1.140625q-0.375 0.484375 -1.015625 0.75q-0.625 0.265625 -1.40625 0.265625z" fill-rule="nonzero"/><path fill="#000000" fill-opacity="0.0" d="m348.33334 153.14961l25.102356 37.76378" fill-rule="evenodd"/><path stroke="#595959" stroke-width="1.0" stroke-linejoin="round" stroke-linecap="butt" d="m348.33334 153.14961l25.102356 37.76378" fill-rule="evenodd"/><path fill="#000000" fill-opacity="0.0" d="m233.12335 152.61154l-0.18896484 44.063004" fill-rule="evenodd"/><path stroke="#595959" stroke-width="1.0" stroke-linejoin="round" stroke-linecap="butt" d="m233.12335 152.61154l-0.18896484 44.063004" fill-rule="evenodd"/><path fill="#000000" fill-opacity="0.0" d="m129.77428 158.79002l-21.763779 39.527557" fill-rule="evenodd"/><path stroke="#595959" stroke-width="1.0" stroke-linejoin="round" stroke-linecap="butt" d="m129.77428 158.79002l-21.763779 39.527557" fill-rule="evenodd"/><path fill="#000000" fill-opacity="0.0" d="m28.923885 193.62466l182.14172 0l0 116.346466l-182.14172 0z" fill-rule="evenodd"/><path fill="#999999" d="m43.31451 212.89342l1.15625 0.15625q-0.1875 1.1875 -0.96875 1.859375q-0.78125 0.671875 -1.921875 0.671875q-1.40625 0 -2.28125 -0.921875q-0.859375 -0.9375 -0.859375 -2.65625q0 -1.125 0.375 -1.96875q0.375 -0.84375 1.125 -1.25q0.765625 -0.421875 1.65625 -0.421875q1.125 0 1.84375 0.578125q0.71875 0.5625 0.921875 1.609375l-1.140625 0.171875q-0.171875 -0.703125 -0.59375 -1.046875q-0.40625 -0.359375 -0.984375 -0.359375q-0.890625 0 -1.453125 0.640625q-0.546875 0.640625 -0.546875 2.0q0 1.40625 0.53125 2.03125q0.546875 0.625 1.40625 0.625q0.6875 0 1.140625 -0.421875q0.46875 -0.421875 0.59375 -1.296875zm1.7109375 -0.921875q0 -1.921875 1.078125 -2.84375q0.890625 -0.765625 2.171875 -0.765625q1.421875 0 2.328125 0.9375q0.90625 0.921875 0.90625 2.578125q0 1.328125 -0.40625 2.09375q-0.390625 0.765625 -1.15625 1.1875q-0.765625 0.421875 -1.671875 0.421875q-1.453125 0 -2.359375 -0.921875q-0.890625 -0.9375 -0.890625 -2.6875zm1.203125 0q0 1.328125 0.578125 1.984375q0.59375 0.65625 1.46875 0.65625q0.875 0 1.453125 -0.65625q0.578125 -0.671875 0.578125 -2.03125q0 -1.28125 -0.59375 -1.9375q-0.578125 -0.65625 -1.4375 -0.65625q-0.875 0 -1.46875 0.65625q-0.578125 0.65625 -0.578125 1.984375zm6.6468506 3.453125l0 -6.90625l1.046875 0l0 0.96875q0.328125 -0.515625 0.859375 -0.8125q0.546875 -0.3125 1.234375 -0.3125q0.78125 0 1.265625 0.3125q0.484375 0.3125 0.6875 0.890625q0.828125 -1.203125 2.140625 -1.203125q1.03125 0 1.578125 0.578125q0.5625 0.5625 0.5625 1.734375l0 4.75l-1.171875 0l0 -4.359375q0 -0.703125 -0.125 -1.0q-0.109375 -0.3125 -0.40625 -0.5q-0.296875 -0.1875 -0.703125 -0.1875q-0.71875 0 -1.203125 0.484375q-0.484375 0.484375 -0.484375 1.546875l0 4.015625l-1.171875 0l0 -4.484375q0 -0.78125 -0.296875 -1.171875q-0.28125 -0.390625 -0.921875 -0.390625q-0.5 0 -0.921875 0.265625q-0.421875 0.25 -0.609375 0.75q-0.1875 0.5 -0.1875 1.453125l0 3.578125l-1.171875 0zm11.102432 2.65625l0 -9.5625l1.0781212 0l0 0.890625q0.375 -0.53125 0.84375 -0.78125q0.484375 -0.265625 1.15625 -0.265625q0.875 0 1.546875 0.453125q0.6875 0.453125 1.03125 1.28125q0.34375 0.828125 0.34375 1.828125q0 1.046875 -0.375 1.90625q-0.375 0.84375 -1.109375 1.296875q-0.71875 0.453125 -1.53125 0.453125q-0.578125 0 -1.046875 -0.25q-0.46875 -0.25 -0.765625 -0.625l0 3.375l-1.1718712 0zm1.0624962 -6.078125q0 1.34375 0.53125 1.984375q0.546875 0.625 1.3125 0.625q0.78125 0 1.34375 -0.65625q0.5625 -0.65625 0.5625 -2.046875q0 -1.3125 -0.546875 -1.96875q-0.546875 -0.671875 -1.296875 -0.671875q-0.75 0 -1.328125 0.703125q-0.578125 0.703125 -0.578125 2.03125zm6.3656006 -4.765625l0 -1.359375l1.171875 0l0 1.359375l-1.171875 0zm0 8.1875l0 -6.90625l1.171875 0l0 6.90625l-1.171875 0zm2.92984 0l0 -9.546875l1.171875 0l0 9.546875l-1.171875 0zm7.71109 -2.21875l1.203125 0.140625q-0.28125 1.0625 -1.0625 1.65625q-0.765625 0.578125 -1.96875 0.578125q-1.515625 0 -2.40625 -0.9375q-0.890625 -0.9375 -0.890625 -2.609375q0 -1.75 0.890625 -2.703125q0.90625 -0.96875 2.34375 -0.96875q1.390625 0 2.265625 0.9375q0.875 0.9375 0.875 2.65625q0 0.109375 0 0.3125l-5.15625 0q0.0625 1.140625 0.640625 1.75q0.578125 0.59375 1.4375 0.59375q0.65625 0 1.109375 -0.328125q0.453125 -0.34375 0.71875 -1.078125zm-3.84375 -1.90625l3.859375 0q-0.078125 -0.859375 -0.4375 -1.296875q-0.5625 -0.6875 -1.453125 -0.6875q-0.8125 0 -1.359375 0.546875q-0.546875 0.53125 -0.609375 1.4375zm6.0687256 1.265625l0 -1.1875l3.59375 0l0 1.1875l-3.59375 0zm7.4539948 1.8125l0.171875 1.03125q-0.5 0.109375 -0.890625 0.109375q-0.640625 0 -1.0 -0.203125q-0.34375 -0.203125 -0.484375 -0.53125q-0.140625 -0.328125 -0.140625 -1.390625l0 -3.96875l-0.859375 0l0 -0.90625l0.859375 0l0 -1.71875l1.171875 -0.703125l0 2.421875l1.171875 0l0 0.90625l-1.171875 0l0 4.046875q0 0.5 0.046875 0.640625q0.0625 0.140625 0.203125 0.234375q0.140625 0.078125 0.40625 0.078125q0.203125 0 0.515625 -0.046875zm1.1561127 -7.140625l0 -1.359375l1.171875 0l0 1.359375l-1.171875 0zm0 8.1875l0 -6.90625l1.171875 0l0 6.90625l-1.171875 0zm2.945465 0l0 -6.90625l1.046875 0l0 0.96875q0.328125 -0.515625 0.859375 -0.8125q0.546875 -0.3125 1.234375 -0.3125q0.78125 0 1.265625 0.3125q0.484375 0.3125 0.6875 0.890625q0.828125 -1.203125 2.140625 -1.203125q1.03125 0 1.578125 0.578125q0.5625 0.5625 0.5625 1.734375l0 4.75l-1.171875 0l0 -4.359375q0 -0.703125 -0.125 -1.0q-0.109375 -0.3125 -0.40625 -0.5q-0.296875 -0.1875 -0.703125 -0.1875q-0.71875 0 -1.203125 0.484375q-0.484375 0.484375 -0.484375 1.546875l0 4.015625l-1.171875 0l0 -4.484375q0 -0.78125 -0.296875 -1.171875q-0.28125 -0.390625 -0.921875 -0.390625q-0.5 0 -0.921875 0.265625q-0.421875 0.25 -0.609375 0.75q-0.1875 0.5 -0.1875 1.453125l0 3.578125l-1.171875 0zm15.836807 -2.21875l1.203125 0.140625q-0.28125 1.0625 -1.0625 1.65625q-0.765625 0.578125 -1.96875 0.578125q-1.515625 0 -2.40625 -0.9375q-0.890625 -0.9375 -0.890625 -2.609375q0 -1.75 0.890625 -2.703125q0.90625 -0.96875 2.34375 -0.96875q1.390625 0 2.265625 0.9375q0.875 0.9375 0.875 2.65625q0 0.109375 0 0.3125l-5.15625 0q0.0625 1.140625 0.640625 1.75q0.578125 0.59375 1.4375 0.59375q0.65625 0 1.109375 -0.328125q0.453125 -0.34375 0.71875 -1.078125zm-3.84375 -1.90625l3.859375 0q-0.078125 -0.859375 -0.4375 -1.296875q-0.5625 -0.6875 -1.453125 -0.6875q-0.8125 0 -1.359375 0.546875q-0.546875 0.53125 -0.609375 1.4375zm14.959213 1.90625l1.203125 0.140625q-0.28125 1.0625 -1.0625 1.65625q-0.765625 0.578125 -1.96875 0.578125q-1.515625 0 -2.40625 -0.9375q-0.890625 -0.9375 -0.890625 -2.609375q0 -1.75 0.890625 -2.703125q0.90625 -0.96875 2.34375 -0.96875q1.390625 0 2.265625 0.9375q0.875 0.9375 0.875 2.65625q0 0.109375 0 0.3125l-5.15625 0q0.0625 1.140625 0.640625 1.75q0.578125 0.59375 1.4375 0.59375q0.65625 0 1.109375 -0.328125q0.453125 -0.34375 0.71875 -1.078125zm-3.84375 -1.90625l3.859375 0q-0.078125 -0.859375 -0.4375 -1.296875q-0.5625 -0.6875 -1.453125 -0.6875q-0.8125 0 -1.359375 0.546875q-0.546875 0.53125 -0.609375 1.4375zm6.5218506 4.125l0 -6.90625l1.0625 0l0 0.984375q0.75 -1.140625 2.1875076 -1.140625q0.625 0 1.15625 0.21875q0.53125 0.21875 0.78125 0.59375q0.265625 0.359375 0.375 0.859375q0.0625 0.328125 0.0625 1.140625l0 4.25l-1.171875 0l0 -4.203125q0 -0.71875 -0.140625 -1.0625q-0.140625 -0.359375 -0.484375 -0.5625q-0.34375 -0.21875 -0.8125 -0.21875q-0.7500076 0 -1.2968826 0.46875q-0.546875 0.46875 -0.546875 1.796875l0 3.78125l-1.171875 0zm9.974983 -1.046875l0.171875 1.03125q-0.5 0.109375 -0.890625 0.109375q-0.640625 0 -1.0 -0.203125q-0.34375 -0.203125 -0.484375 -0.53125q-0.140625 -0.328125 -0.140625 -1.390625l0 -3.96875l-0.859375 0l0 -0.90625l0.859375 0l0 -1.71875l1.171875 -0.703125l0 2.421875l1.171875 0l0 0.90625l-1.171875 0l0 4.046875q0 0.5 0.046875 0.640625q0.0625 0.140625 0.203125 0.234375q0.140625 0.078125 0.40625 0.078125q0.203125 0 0.515625 -0.046875zm1.1561127 -7.140625l0 -1.359375l1.171875 0l0 1.359375l-1.171875 0zm0 8.1875l0 -6.90625l1.171875 0l0 6.90625l-1.171875 0zm5.507965 -1.046875l0.171875 1.03125q-0.5 0.109375 -0.890625 0.109375q-0.640625 0 -1.0 -0.203125q-0.34375 -0.203125 -0.484375 -0.53125q-0.140625 -0.328125 -0.140625 -1.390625l0 -3.96875l-0.859375 0l0 -0.90625l0.859375 0l0 -1.71875l1.171875 -0.703125l0 2.421875l1.171875 0l0 0.90625l-1.171875 0l0 4.046875q0 0.5 0.046875 0.640625q0.0625 0.140625 0.203125 0.234375q0.140625 0.078125 0.40625 0.078125q0.203125 0 0.515625 -0.046875zm1.0936127 3.703125l-0.125 -1.09375q0.375 0.109375 0.65625 0.109375q0.390625 0 0.625 -0.140625q0.234375 -0.125 0.390625 -0.359375q0.109375 -0.171875 0.359375 -0.875q0.03125 -0.09375 0.109375 -0.28125l-2.625 -6.921875l1.265625 0l1.4375 4.0q0.28125 0.765625 0.5 1.59375q0.203125 -0.796875 0.46875 -1.578125l1.484375 -4.015625l1.171875 0l-2.625 7.015625q-0.421875 1.140625 -0.65625 1.578125q-0.3125 0.578125 -0.71875 0.84375q-0.40625 0.28125 -0.96875 0.28125q-0.328125 0 -0.75 -0.15625z" fill-rule="nonzero"/><path fill="#999999" d="m41.361385 230.37779l0.171875 1.03125q-0.5 0.109375 -0.890625 0.109375q-0.640625 0 -1.0 -0.203125q-0.34375 -0.203125 -0.484375 -0.53125q-0.140625 -0.328125 -0.140625 -1.390625l0 -3.96875l-0.859375 0l0 -0.90625l0.859375 0l0 -1.71875l1.171875 -0.703125l0 2.421875l1.171875 0l0 0.90625l-1.171875 0l0 4.046875q0 0.5 0.046875 0.640625q0.0625 0.140625 0.203125 0.234375q0.140625 0.078125 0.40625 0.078125q0.203125 0 0.515625 -0.046875zm1.0936127 3.703125l-0.125 -1.09375q0.375 0.109375 0.65625 0.109375q0.390625 0 0.625 -0.140625q0.234375 -0.125 0.390625 -0.359375q0.109375 -0.171875 0.359375 -0.875q0.03125 -0.09375 0.109375 -0.28125l-2.625 -6.921875l1.265625 0l1.4375 4.0q0.28125 0.765625 0.5 1.59375q0.203125 -0.796875 0.46875 -1.578125l1.484375 -4.015625l1.171875 0l-2.625 7.015625q-0.421875 1.140625 -0.65625 1.578125q-0.3125 0.578125 -0.71875 0.84375q-0.40625 0.28125 -0.96875 0.28125q-0.328125 0 -0.75 -0.15625zm6.7109375 0l0 -9.5625l1.078125 0l0 0.890625q0.375 -0.53125 0.84375 -0.78125q0.484375 -0.265625 1.15625 -0.265625q0.875 0 1.546875 0.453125q0.6875 0.453125 1.03125 1.28125q0.34375 0.828125 0.34375 1.828125q0 1.046875 -0.375 1.90625q-0.375 0.84375 -1.109375 1.296875q-0.71875 0.453125 -1.53125 0.453125q-0.578125 0 -1.046875 -0.25q-0.46875 -0.25 -0.765625 -0.625l0 3.375l-1.171875 0zm1.0625 -6.078125q0 1.34375 0.53125 1.984375q0.546875 0.625 1.3125 0.625q0.78125 0 1.34375 -0.65625q0.5625 -0.65625 0.5625 -2.046875q0 -1.3125 -0.546875 -1.96875q-0.546875 -0.671875 -1.296875 -0.671875q-0.75 0 -1.328125 0.703125q-0.578125 0.703125 -0.578125 2.03125zm11.084351 1.203125l1.203125 0.140625q-0.28125 1.0625 -1.0625 1.65625q-0.765625 0.578125 -1.96875 0.578125q-1.515625 0 -2.40625 -0.9375q-0.890625 -0.9375 -0.890625 -2.609375q0 -1.75 0.890625 -2.703125q0.90625 -0.96875 2.34375 -0.96875q1.390625 0 2.265625 0.9375q0.875 0.9375 0.875 2.65625q0 0.109375 0 0.3125l-5.15625 0q0.0625 1.140625 0.640625 1.75q0.578125 0.59375 1.4375 0.59375q0.65625 0 1.109375 -0.328125q0.453125 -0.34375 0.71875 -1.078125zm-3.84375 -1.90625l3.859375 0q-0.078125 -0.859375 -0.4375 -1.296875q-0.5625 -0.6875 -1.453125 -0.6875q-0.8125 0 -1.359375 0.546875q-0.546875 0.53125 -0.609375 1.4375zm6.0687256 1.265625l0 -1.1875l3.5937462 0l0 1.1875l-3.5937462 0zm4.875866 2.859375l0 -9.546875l1.171875 0l0 9.546875l-1.171875 0zm7.71109 -2.21875l1.203125 0.140625q-0.28125 1.0625 -1.0625 1.65625q-0.765625 0.578125 -1.96875 0.578125q-1.515625 0 -2.40625 -0.9375q-0.890625 -0.9375 -0.890625 -2.609375q0 -1.75 0.890625 -2.703125q0.90625 -0.96875 2.34375 -0.96875q1.390625 0 2.265625 0.9375q0.875 0.9375 0.875 2.65625q0 0.109375 0 0.3125l-5.15625 0q0.0625 1.140625 0.640625 1.75q0.578125 0.59375 1.4375 0.59375q0.65625 0 1.109375 -0.328125q0.453125 -0.34375 0.71875 -1.078125zm-3.84375 -1.90625l3.859375 0q-0.078125 -0.859375 -0.4375 -1.296875q-0.5625 -0.6875 -1.453125 -0.6875q-0.8125 0 -1.359375 0.546875q-0.546875 0.53125 -0.609375 1.4375zm8.443726 4.125l-2.625 -6.90625l1.234375 0l1.484375 4.140625q0.234375 0.65625 0.4375 1.390625q0.15625 -0.546875 0.4375 -1.3125l1.53125 -4.21875l1.21875 0l-2.625 6.90625l-1.09375 0zm9.4765625 -2.21875l1.203125 0.140625q-0.28125 1.0625 -1.0625 1.65625q-0.765625 0.578125 -1.96875 0.578125q-1.515625 0 -2.40625 -0.9375q-0.890625 -0.9375 -0.890625 -2.609375q0 -1.75 0.890625 -2.703125q0.90625 -0.96875 2.34375 -0.96875q1.390625 0 2.265625 0.9375q0.875 0.9375 0.875 2.65625q0 0.109375 0 0.3125l-5.15625 0q0.0625 1.140625 0.640625 1.75q0.578125 0.59375 1.4375 0.59375q0.65625 0 1.109375 -0.328125q0.453125 -0.34375 0.71875 -1.078125zm-3.84375 -1.90625l3.859375 0q-0.078125 -0.859375 -0.4375 -1.296875q-0.5625 -0.6875 -1.453125 -0.6875q-0.8125 0 -1.359375 0.546875q-0.546875 0.53125 -0.609375 1.4375zm6.5062256 4.125l0 -9.546875l1.171875 0l0 9.546875l-1.171875 0z" fill-rule="nonzero"/><path fill="#000000" d="m45.22076 247.42467l-1.703125 0l0 -1.015625q-0.421875 0.59375 -1.0 0.890625q-0.578125 0.28125 -1.15625 0.28125q-1.1875 0 -2.046875 -0.953125q-0.84375 -0.96875 -0.84375 -2.6875q0 -1.75 0.828125 -2.65625q0.828125 -0.921875 2.09375 -0.921875q1.15625 0 2.0 0.953125l0 -3.4375l1.828125 0l0 9.546875zm-4.875 -3.609375q0 1.109375 0.296875 1.609375q0.4375 0.71875 1.234375 0.71875q0.640625 0 1.078125 -0.53125q0.4375 -0.546875 0.4375 -1.609375q0 -1.203125 -0.4375 -1.71875q-0.421875 -0.53125 -1.09375 -0.53125q-0.640625 0 -1.078125 0.515625q-0.4375 0.515625 -0.4375 1.546875zm8.047607 -1.1875l-1.671875 -0.3125q0.28125 -1.0 0.96875 -1.46875q0.6875 -0.484375 2.03125 -0.484375q1.21875 0 1.8125 0.296875q0.609375 0.28125 0.84375 0.734375q0.25 0.4375 0.25 1.625l-0.015625 2.140625q0 0.90625 0.078125 1.34375q0.09375 0.421875 0.34375 0.921875l-1.8125 0q-0.078125 -0.1875 -0.171875 -0.546875q-0.046875 -0.15625 -0.078125 -0.203125q-0.46875 0.453125 -1.0 0.6875q-0.53125 0.21875 -1.140625 0.21875q-1.0625 0 -1.6875 -0.578125q-0.609375 -0.578125 -0.609375 -1.46875q0 -0.578125 0.28125 -1.03125q0.28125 -0.46875 0.78125 -0.703125q0.515625 -0.25 1.46875 -0.4375q1.28125 -0.234375 1.765625 -0.453125l0 -0.171875q0 -0.53125 -0.265625 -0.75q-0.25 -0.234375 -0.96875 -0.234375q-0.484375 0 -0.765625 0.203125q-0.265625 0.1875 -0.4375 0.671875zm2.4375 1.484375q-0.34375 0.109375 -1.109375 0.28125q-0.765625 0.15625 -1.0 0.3125q-0.359375 0.25 -0.359375 0.640625q0 0.390625 0.28125 0.671875q0.296875 0.28125 0.734375 0.28125q0.5 0 0.953125 -0.328125q0.328125 -0.25 0.4375 -0.609375q0.0625 -0.234375 0.0625 -0.890625l0 -0.359375zm6.7718506 -3.59375l0 1.453125l-1.25 0l0 2.78125q0 0.84375 0.03125 0.984375q0.046875 0.140625 0.171875 0.234375q0.125 0.09375 0.3125 0.09375q0.25 0 0.734375 -0.171875l0.15625 1.421875q-0.640625 0.265625 -1.453125 0.265625q-0.484375 0 -0.890625 -0.15625q-0.390625 -0.171875 -0.578125 -0.4375q-0.1875 -0.265625 -0.265625 -0.71875q-0.046875 -0.3125 -0.046875 -1.28125l0 -3.015625l-0.84375 0l0 -1.453125l0.84375 0l0 -1.375l1.828125 -1.078125l0 2.453125l1.25 0zm2.6414948 2.109375l-1.671875 -0.3125q0.28125 -1.0 0.96875 -1.46875q0.6875 -0.484375 2.03125 -0.484375q1.21875 0 1.8125 0.296875q0.609375 0.28125 0.8437462 0.734375q0.25 0.4375 0.25 1.625l-0.015625 2.140625q0 0.90625 0.078125 1.34375q0.09375 0.421875 0.34375 0.921875l-1.8124962 0q-0.078125 -0.1875 -0.171875 -0.546875q-0.046875 -0.15625 -0.078125 -0.203125q-0.46875 0.453125 -1.0 0.6875q-0.53125 0.21875 -1.140625 0.21875q-1.0625 0 -1.6875 -0.578125q-0.609375 -0.578125 -0.609375 -1.46875q0 -0.578125 0.28125 -1.03125q0.28125 -0.46875 0.78125 -0.703125q0.515625 -0.25 1.46875 -0.4375q1.28125 -0.234375 1.765625 -0.453125l0 -0.171875q0 -0.53125 -0.265625 -0.75q-0.25 -0.234375 -0.96875 -0.234375q-0.484375 0 -0.765625 0.203125q-0.265625 0.1875 -0.4375 0.671875zm2.4375 1.484375q-0.34375 0.109375 -1.109375 0.28125q-0.765625 0.15625 -1.0 0.3125q-0.359375 0.25 -0.359375 0.640625q0 0.390625 0.28125 0.671875q0.296875 0.28125 0.734375 0.28125q0.5 0 0.953125 -0.328125q0.328125 -0.25 0.4375 -0.609375q0.0625 -0.234375 0.0625 -0.890625l0 -0.359375zm3.3968468 0.765625l0 -1.828125l3.59375 0l0 1.828125l-3.59375 0zm4.6414948 2.546875l0 -9.546875l1.828125 0l0 9.546875l-1.828125 0zm3.7029877 -7.84375l0 -1.703125l1.828125 0l0 1.703125l-1.828125 0zm0 7.84375l0 -6.90625l1.828125 0l0 6.90625l-1.828125 0zm3.6404877 0l0 -9.546875l1.828125 0l0 5.0625l2.140625 -2.421875l2.25 0l-2.359375 2.515625l2.53125 4.390625l-1.96875 0l-1.734375 -3.109375l-0.859375 0.890625l0 2.21875l-1.828125 0zm11.474976 -2.203125l1.828125 0.3125q-0.34375 1.0 -1.109375 1.53125q-0.765625 0.515625 -1.890625 0.515625q-1.8125 0 -2.671875 -1.171875q-0.6875 -0.953125 -0.6875 -2.390625q0 -1.71875 0.890625 -2.6875q0.90625 -0.96875 2.28125 -0.96875q1.546875 0 2.4375 1.015625q0.890625 1.015625 0.84375 3.125l-4.578125 0q0.015625 0.8125 0.4375 1.265625q0.421875 0.453125 1.0625 0.453125q0.421875 0 0.71875 -0.234375q0.296875 -0.234375 0.4375 -0.765625zm0.109375 -1.84375q-0.015625 -0.796875 -0.40625 -1.203125q-0.390625 -0.421875 -0.953125 -0.421875q-0.59375 0 -0.984375 0.4375q-0.390625 0.4375 -0.390625 1.1875l2.734375 0z" fill-rule="nonzero"/><path fill="#000000" d="m38.736385 256.51843l1.6875 0l0 0.9375q0.90625 -1.09375 2.15625 -1.09375q0.671875 0 1.15625 0.28125q0.484375 0.265625 0.796875 0.8125q0.453125 -0.546875 0.984375 -0.8125q0.53125 -0.28125 1.125 -0.28125q0.765625 0 1.28125 0.3125q0.53125 0.296875 0.796875 0.90625q0.1875 0.4375 0.1875 1.421875l0 4.421875l-1.828125 0l0 -3.953125q0 -1.03125 -0.1875 -1.328125q-0.25 -0.390625 -0.78125 -0.390625q-0.390625 0 -0.734375 0.234375q-0.328125 0.234375 -0.484375 0.6875q-0.140625 0.453125 -0.140625 1.4375l0 3.3125l-1.828125 0l0 -3.78125q0 -1.015625 -0.109375 -1.296875q-0.09375 -0.296875 -0.296875 -0.4375q-0.203125 -0.15625 -0.546875 -0.15625q-0.421875 0 -0.765625 0.234375q-0.34375 0.21875 -0.484375 0.65625q-0.140625 0.421875 -0.140625 1.421875l0 3.359375l-1.84375 0l0 -6.90625zm13.36647 2.109375l-1.671875 -0.3125q0.28125 -1.0 0.96875 -1.46875q0.6875 -0.484375 2.03125 -0.484375q1.21875 0 1.8125 0.296875q0.609375 0.28125 0.84375 0.734375q0.25 0.4375 0.25 1.625l-0.015625 2.140625q0 0.90625 0.078125 1.34375q0.09375 0.421875 0.34375 0.921875l-1.8125 0q-0.078125 -0.1875 -0.171875 -0.546875q-0.046875 -0.15625 -0.078125 -0.203125q-0.46875 0.453125 -1.0 0.6875q-0.53125 0.21875 -1.140625 0.21875q-1.0625 0 -1.6875 -0.578125q-0.609375 -0.578125 -0.609375 -1.46875q0 -0.578125 0.28125 -1.03125q0.28125 -0.46875 0.78125 -0.703125q0.515625 -0.25 1.46875 -0.4375q1.28125 -0.234375 1.765625 -0.453125l0 -0.171875q0 -0.53125 -0.265625 -0.75q-0.25 -0.234375 -0.96875 -0.234375q-0.484375 0 -0.765625 0.203125q-0.265625 0.1875 -0.4375 0.671875zm2.4375 1.484375q-0.34375 0.109375 -1.109375 0.28125q-0.765625 0.15625 -1.0 0.3125q-0.359375 0.25 -0.359375 0.640625q0 0.390625 0.28125 0.671875q0.296875 0.28125 0.734375 0.28125q0.5 0 0.953125 -0.328125q0.328125 -0.25 0.4375 -0.609375q0.0625 -0.234375 0.0625 -0.890625l0 -0.359375zm9.896847 3.3125l-1.8281212 0l0 -3.53125q0 -1.109375 -0.125 -1.4375q-0.109375 -0.328125 -0.375 -0.515625q-0.265625 -0.1875 -0.640625 -0.1875q-0.46875 0 -0.859375 0.265625q-0.375 0.265625 -0.515625 0.703125q-0.140625 0.421875 -0.140625 1.578125l0 3.125l-1.828125 0l0 -6.90625l1.703125 0l0 1.015625q0.90625 -1.171875 2.28125 -1.171875q0.609375 0 1.109375 0.21875q0.5 0.21875 0.75 0.5625q0.2656212 0.328125 0.3593712 0.765625q0.109375 0.421875 0.109375 1.21875l0 4.296875zm1.8444824 -7.8437653l0 -1.703125l1.828125 0l0 1.703125l-1.828125 0zm0 7.8437653l0 -6.90625l1.828125 0l0 6.90625l-1.828125 0zm3.6561127 -6.90625l1.703125 0l0 1.015625q0.328125 -0.53125 0.890625 -0.84375q0.578125 -0.328125 1.265625 -0.328125q1.203125 0 2.03125 0.9375q0.84375 0.9375 0.84375 2.625q0 1.734375 -0.84375 2.703125q-0.84375 0.953125 -2.046875 0.953125q-0.578125 0 -1.046875 -0.21875q-0.453125 -0.234375 -0.96875 -0.796875l0 3.484375l-1.828125 0l0 -9.53125zm1.8125 3.328125q0 1.171875 0.453125 1.734375q0.46875 0.546875 1.125 0.546875q0.640625 0 1.0625 -0.5q0.421875 -0.515625 0.421875 -1.6875q0 -1.078125 -0.4375 -1.609375q-0.4375 -0.53125 -1.078125 -0.53125q-0.671875 0 -1.109375 0.515625q-0.4375 0.515625 -0.4375 1.53125zm10.922607 3.578125l0 -1.03125q-0.375 0.546875 -1.0 0.875q-0.609375 0.3125 -1.28125 0.3125q-0.703125 0 -1.265625 -0.296875q-0.546875 -0.3125 -0.796875 -0.859375q-0.234375 -0.5625 -0.234375 -1.53125l0 -4.375l1.828125 0l0 3.171875q0 1.453125 0.09375 1.78125q0.109375 0.328125 0.375 0.53125q0.265625 0.1875 0.671875 0.1875q0.46875 0 0.84375 -0.25q0.375 -0.265625 0.5 -0.640625q0.140625 -0.390625 0.140625 -1.875l0 -2.90625l1.828125 0l0 6.90625l-1.703125 0zm3.5944824 0l0 -9.54689l1.828125 0l0 9.54689l-1.828125 0zm5.0779877 -4.796875l-1.671875 -0.3125q0.28125 -1.0 0.96875 -1.46875q0.6875 -0.484375 2.03125 -0.484375q1.21875 0 1.8125 0.296875q0.609375 0.28125 0.84375 0.734375q0.25 0.4375 0.25 1.625l-0.015625 2.140625q0 0.90625 0.078125 1.34375q0.09375 0.421875 0.34375 0.921875l-1.8125 0q-0.078125 -0.1875 -0.171875 -0.546875q-0.046875 -0.15625 -0.078125 -0.203125q-0.46875 0.453125 -1.0 0.6875q-0.53125 0.21875 -1.140625 0.21875q-1.0625 0 -1.6875 -0.578125q-0.609375 -0.578125 -0.609375 -1.46875q0 -0.578125 0.28125 -1.03125q0.28125 -0.46875 0.78125 -0.703125q0.515625 -0.25 1.46875 -0.4375q1.28125 -0.234375 1.765625 -0.453125l0 -0.171875q0 -0.53125 -0.265625 -0.75q-0.25 -0.234375 -0.96875 -0.234375q-0.484375 0 -0.765625 0.203125q-0.265625 0.1875 -0.4375 0.671875zm2.4375 1.484375q-0.34375 0.109375 -1.109375 0.28125q-0.765625 0.15625 -1.0 0.3125q-0.359375 0.25 -0.359375 0.640625q0 0.390625 0.28125 0.671875q0.296875 0.28125 0.734375 0.28125q0.5 0 0.953125 -0.328125q0.328125 -0.25 0.4375 -0.609375q0.0625 -0.234375 0.0625 -0.890625l0 -0.359375zm3.5218506 3.3125l0 -9.54689l1.828125 0l0 3.4375153q0.84375 -0.953125 2.015625 -0.953125q1.25 0 2.078125 0.921875q0.828125 0.90625 0.828125 2.609375q0 1.78125 -0.84375 2.734375q-0.84375 0.953125 -2.046875 0.953125q-0.59375 0 -1.171875 -0.296875q-0.5625 -0.296875 -0.984375 -0.875l0 1.015625l-1.703125 0zm1.8125 -3.609375q0 1.078125 0.34375 1.59375q0.46875 0.734375 1.265625 0.734375q0.609375 0 1.03125 -0.515625q0.421875 -0.53125 0.421875 -1.640625q0 -1.1875 -0.4375 -1.703125q-0.421875 -0.53125 -1.09375 -0.53125q-0.65625 0 -1.09375 0.515625q-0.4375 0.515625 -0.4375 1.546875zm6.4069824 3.609375l0 -9.54689l1.828125 0l0 9.54689l-1.828125 0zm7.7029877 -2.203125l1.828125 0.3125q-0.34375 1.0 -1.109375 1.53125q-0.765625 0.515625 -1.890625 0.515625q-1.8125 0 -2.671875 -1.171875q-0.6875 -0.953125 -0.6875 -2.390625q0 -1.71875 0.890625 -2.6875q0.90625 -0.96875 2.28125 -0.96875q1.546875 0 2.4375 1.015625q0.890625 1.015625 0.84375 3.125l-4.578125 0q0.015625 0.8125 0.4375 1.265625q0.421875 0.453125 1.0625 0.453125q0.421875 0 0.71875 -0.234375q0.296875 -0.234375 0.4375 -0.765625zm0.109375 -1.84375q-0.015625 -0.796875 -0.40625 -1.203125q-0.390625 -0.421875 -0.953125 -0.421875q-0.59375 0 -0.984375 0.4375q-0.390625 0.4375 -0.390625 1.1875l2.734375 0z" fill-rule="nonzero"/><path fill="#000000" fill-opacity="0.0" d="m354.40805 193.73016l156.62991 0l0 84.031494l-156.62991 0z" fill-rule="evenodd"/><path fill="#000000" d="m366.11118 215.53015l-1.828125 0l0 -6.90625l1.703125 0l0 0.984375q0.4375 -0.703125 0.78125 -0.921875q0.34375 -0.21875 0.796875 -0.21875q0.625 0 1.203125 0.34375l-0.5625 1.59375q-0.46875 -0.296875 -0.859375 -0.296875q-0.390625 0 -0.65625 0.21875q-0.265625 0.203125 -0.421875 0.765625q-0.15625 0.546875 -0.15625 2.296875l0 2.140625zm7.9836426 0l0 -1.03125q-0.375 0.546875 -1.0 0.875q-0.609375 0.3125 -1.28125 0.3125q-0.703125 0 -1.265625 -0.296875q-0.546875 -0.3125 -0.796875 -0.859375q-0.234375 -0.5625 -0.234375 -1.53125l0 -4.375l1.828125 0l0 3.171875q0 1.453125 0.09375 1.78125q0.109375 0.328125 0.375 0.53125q0.265625 0.1875 0.671875 0.1875q0.46875 0 0.84375 -0.25q0.375 -0.265625 0.5 -0.640625q0.140625 -0.390625 0.140625 -1.875l0 -2.90625l1.828125 0l0 6.90625l-1.703125 0zm9.891357 0l-1.828125 0l0 -3.53125q0 -1.109375 -0.125 -1.4375q-0.109375 -0.328125 -0.375 -0.515625q-0.265625 -0.1875 -0.640625 -0.1875q-0.46875 0 -0.859375 0.265625q-0.375 0.265625 -0.515625 0.703125q-0.140625 0.421875 -0.140625 1.578125l0 3.125l-1.828125 0l0 -6.90625l1.703125 0l0 1.015625q0.90625 -1.171875 2.28125 -1.171875q0.609375 0 1.109375 0.21875q0.5 0.21875 0.75 0.5625q0.265625 0.328125 0.359375 0.765625q0.109375 0.421875 0.109375 1.21875l0 4.296875zm5.0163574 -6.90625l0 1.453125l-1.25 0l0 2.78125q0 0.84375 0.03125 0.984375q0.046875 0.140625 0.171875 0.234375q0.125 0.09375 0.3125 0.09375q0.25 0 0.734375 -0.171875l0.15625 1.421875q-0.640625 0.265625 -1.453125 0.265625q-0.484375 0 -0.890625 -0.15625q-0.390625 -0.171875 -0.578125 -0.4375q-0.1875 -0.265625 -0.265625 -0.71875q-0.046875 -0.3125 -0.046875 -1.28125l0 -3.015625l-0.84375 0l0 -1.453125l0.84375 0l0 -1.375l1.828125 -1.078125l0 2.453125l1.25 0zm1.26651 -0.9375l0 -1.703125l1.828125 0l0 1.703125l-1.828125 0zm0 7.84375l0 -6.90625l1.828125 0l0 6.90625l-1.828125 0zm3.5623474 -6.90625l1.6875 0l0 0.9375q0.90625 -1.09375 2.15625 -1.09375q0.671875 0 1.15625 0.28125q0.484375 0.265625 0.796875 0.8125q0.453125 -0.546875 0.984375 -0.8125q0.53125 -0.28125 1.125 -0.28125q0.765625 0 1.28125 0.3125q0.53125 0.296875 0.796875 0.90625q0.1875 0.4375 0.1875 1.421875l0 4.421875l-1.828125 0l0 -3.953125q0 -1.03125 -0.1875 -1.328125q-0.25 -0.390625 -0.78125 -0.390625q-0.390625 0 -0.734375 0.234375q-0.328125 0.234375 -0.484375 0.6875q-0.140625 0.453125 -0.140625 1.4375l0 3.3125l-1.828125 0l0 -3.78125q0 -1.015625 -0.109375 -1.296875q-0.09375 -0.296875 -0.296875 -0.4375q-0.203125 -0.15625 -0.546875 -0.15625q-0.421875 0 -0.765625 0.234375q-0.34375 0.21875 -0.484375 0.65625q-0.140625 0.421875 -0.140625 1.421875l0 3.359375l-1.84375 0l0 -6.90625zm15.991486 4.703125l1.828125 0.3125q-0.34375 1.0 -1.109375 1.53125q-0.765625 0.515625 -1.890625 0.515625q-1.8125 0 -2.671875 -1.171875q-0.6875 -0.953125 -0.6875 -2.390625q0 -1.71875 0.890625 -2.6875q0.90625 -0.96875 2.28125 -0.96875q1.546875 0 2.4375 1.015625q0.890625 1.015625 0.84375 3.125l-4.578125 0q0.015625 0.8125 0.4375 1.265625q0.421875 0.453125 1.0625 0.453125q0.421875 0 0.71875 -0.234375q0.296875 -0.234375 0.4375 -0.765625zm0.109375 -1.84375q-0.015625 -0.796875 -0.40625 -1.203125q-0.390625 -0.421875 -0.953125 -0.421875q-0.59375 0 -0.984375 0.4375q-0.390625 0.4375 -0.390625 1.1875l2.734375 0zm11.006073 1.84375l1.828125 0.3125q-0.34375 1.0 -1.109375 1.53125q-0.765625 0.515625 -1.890625 0.515625q-1.8125 0 -2.671875 -1.171875q-0.6875 -0.953125 -0.6875 -2.390625q0 -1.71875 0.890625 -2.6875q0.90625 -0.96875 2.28125 -0.96875q1.546875 0 2.4375 1.015625q0.890625 1.015625 0.84375 3.125l-4.578125 0q0.015625 0.8125 0.4375 1.265625q0.421875 0.453125 1.0625 0.453125q0.421875 0 0.71875 -0.234375q0.296875 -0.234375 0.4375 -0.765625zm0.109375 -1.84375q-0.015625 -0.796875 -0.40625 -1.203125q-0.390625 -0.421875 -0.953125 -0.421875q-0.59375 0 -0.984375 0.4375q-0.390625 0.4375 -0.390625 1.1875l2.734375 0zm9.599976 4.046875l-1.828125 0l0 -3.53125q0 -1.109375 -0.125 -1.4375q-0.109375 -0.328125 -0.375 -0.515625q-0.265625 -0.1875 -0.640625 -0.1875q-0.46875 0 -0.859375 0.265625q-0.375 0.265625 -0.515625 0.703125q-0.140625 0.421875 -0.140625 1.578125l0 3.125l-1.828125 0l0 -6.90625l1.703125 0l0 1.015625q0.90625 -1.171875 2.28125 -1.171875q0.609375 0 1.109375 0.21875q0.5 0.21875 0.75 0.5625q0.265625 0.328125 0.359375 0.765625q0.109375 0.421875 0.109375 1.21875l0 4.296875zm5.0163574 -6.90625l0 1.453125l-1.25 0l0 2.78125q0 0.84375 0.03125 0.984375q0.046875 0.140625 0.171875 0.234375q0.125 0.09375 0.3125 0.09375q0.25 0 0.734375 -0.171875l0.15625 1.421875q-0.640625 0.265625 -1.453125 0.265625q-0.484375 0 -0.890625 -0.15625q-0.390625 -0.171875 -0.578125 -0.4375q-0.1875 -0.265625 -0.265625 -0.71875q-0.046875 -0.3125 -0.046875 -1.28125l0 -3.015625l-0.84375 0l0 -1.453125l0.84375 0l0 -1.375l1.828125 -1.078125l0 2.453125l1.25 0zm1.26651 -0.9375l0 -1.703125l1.828125 0l0 1.703125l-1.828125 0zm0 7.84375l0 -6.90625l1.828125 0l0 6.90625l-1.828125 0zm6.8748474 -6.90625l0 1.453125l-1.25 0l0 2.78125q0 0.84375 0.03125 0.984375q0.046875 0.140625 0.171875 0.234375q0.125 0.09375 0.3125 0.09375q0.25 0 0.734375 -0.171875l0.15625 1.421875q-0.640625 0.265625 -1.453125 0.265625q-0.484375 0 -0.890625 -0.15625q-0.390625 -0.171875 -0.578125 -0.4375q-0.1875 -0.265625 -0.265625 -0.71875q-0.046875 -0.3125 -0.046875 -1.28125l0 -3.015625l-0.84375 0l0 -1.453125l0.84375 0l0 -1.375l1.828125 -1.078125l0 2.453125l1.25 0zm0.407135 0l1.9375 0l1.65625 4.90625l1.609375 -4.90625l1.90625 0l-2.453125 6.640625l-0.421875 1.203125q-0.25 0.609375 -0.46875 0.921875q-0.21875 0.328125 -0.5 0.515625q-0.28125 0.203125 -0.703125 0.3125q-0.40625 0.125 -0.921875 0.125q-0.53125 0 -1.03125 -0.125l-0.171875 -1.421875q0.4375 0.078125 0.78125 0.078125q0.640625 0 0.9375 -0.375q0.3125 -0.375 0.46875 -0.953125l-2.625 -6.921875z" fill-rule="nonzero"/><path fill="#000000" d="m364.36118 223.6864l0 -1.703125l1.828125 0l0 1.703125l-1.828125 0zm0 7.84375l0 -6.90625l1.828125 0l0 6.90625l-1.828125 0zm9.999847 0l-1.828125 0l0 -3.53125q0 -1.109375 -0.125 -1.4375q-0.109375 -0.328125 -0.375 -0.515625q-0.265625 -0.1875 -0.640625 -0.1875q-0.46875 0 -0.859375 0.265625q-0.375 0.265625 -0.515625 0.703125q-0.140625 0.421875 -0.140625 1.578125l0 3.125l-1.828125 0l0 -6.90625l1.703125 0l0 1.015625q0.90625 -1.171875 2.28125 -1.171875q0.609375 0 1.109375 0.21875q0.5 0.21875 0.75 0.5625q0.265625 0.328125 0.359375 0.765625q0.109375 0.421875 0.109375 1.21875l0 4.296875zm1.2038574 -1.96875l1.828125 -0.28125q0.125 0.53125 0.484375 0.8125q0.359375 0.265625 1.0 0.265625q0.703125 0 1.0625 -0.25q0.25 -0.1875 0.25 -0.484375q0 -0.21875 -0.140625 -0.359375q-0.125 -0.125 -0.609375 -0.234375q-2.203125 -0.484375 -2.796875 -0.890625q-0.828125 -0.5625 -0.828125 -1.5625q0 -0.890625 0.703125 -1.5q0.71875 -0.609375 2.203125 -0.609375q1.421875 0 2.109375 0.46875q0.703125 0.453125 0.953125 1.359375l-1.71875 0.3125q-0.109375 -0.40625 -0.421875 -0.609375q-0.3125 -0.21875 -0.890625 -0.21875q-0.71875 0 -1.03125 0.203125q-0.203125 0.140625 -0.203125 0.359375q0 0.203125 0.1875 0.34375q0.234375 0.171875 1.6875 0.515625q1.46875 0.328125 2.0625 0.8125q0.5625 0.484375 0.5625 1.359375q0 0.953125 -0.796875 1.640625q-0.78125 0.671875 -2.34375 0.671875q-1.40625 0 -2.234375 -0.5625q-0.828125 -0.578125 -1.078125 -1.5625zm11.224976 -4.9375l0 1.453125l-1.25 0l0 2.78125q0 0.84375 0.03125 0.984375q0.046875 0.140625 0.171875 0.234375q0.125 0.09375 0.3125 0.09375q0.25 0 0.734375 -0.171875l0.15625 1.421875q-0.640625 0.265625 -1.453125 0.265625q-0.484375 0 -0.890625 -0.15625q-0.390625 -0.171875 -0.578125 -0.4375q-0.1875 -0.265625 -0.265625 -0.71875q-0.046875 -0.3125 -0.046875 -1.28125l0 -3.015625l-0.84375 0l0 -1.453125l0.84375 0l0 -1.375l1.828125 -1.078125l0 2.453125l1.25 0zm2.64151 2.109375l-1.671875 -0.3125q0.28125 -1.0 0.96875 -1.46875q0.6875 -0.484375 2.03125 -0.484375q1.21875 0 1.8125 0.296875q0.609375 0.28125 0.84375 0.734375q0.25 0.4375 0.25 1.625l-0.015625 2.140625q0 0.90625 0.078125 1.34375q0.09375 0.421875 0.34375 0.921875l-1.8125 0q-0.078125 -0.1875 -0.171875 -0.546875q-0.046875 -0.15625 -0.078125 -0.203125q-0.46875 0.453125 -1.0 0.6875q-0.53125 0.21875 -1.140625 0.21875q-1.0625 0 -1.6875 -0.578125q-0.609375 -0.578125 -0.609375 -1.46875q0 -0.578125 0.28125 -1.03125q0.28125 -0.46875 0.78125 -0.703125q0.515625 -0.25 1.46875 -0.4375q1.28125 -0.234375 1.765625 -0.453125l0 -0.171875q0 -0.53125 -0.265625 -0.75q-0.25 -0.234375 -0.96875 -0.234375q-0.484375 0 -0.765625 0.203125q-0.265625 0.1875 -0.4375 0.671875zm2.4375 1.484375q-0.34375 0.109375 -1.109375 0.28125q-0.765625 0.15625 -1.0 0.3125q-0.359375 0.25 -0.359375 0.640625q0 0.390625 0.28125 0.671875q0.296875 0.28125 0.734375 0.28125q0.5 0 0.953125 -0.328125q0.328125 -0.25 0.4375 -0.609375q0.0625 -0.234375 0.0625 -0.890625l0 -0.359375zm9.896851 3.3125l-1.828125 0l0 -3.53125q0 -1.109375 -0.125 -1.4375q-0.109375 -0.328125 -0.375 -0.515625q-0.265625 -0.1875 -0.640625 -0.1875q-0.46875 0 -0.859375 0.265625q-0.375 0.265625 -0.515625 0.703125q-0.140625 0.421875 -0.140625 1.578125l0 3.125l-1.828125 0l0 -6.90625l1.703125 0l0 1.015625q0.90625 -1.171875 2.28125 -1.171875q0.609375 0 1.109375 0.21875q0.5 0.21875 0.75 0.5625q0.265625 0.328125 0.359375 0.765625q0.109375 0.421875 0.109375 1.21875l0 4.296875zm7.8757324 -4.875l-1.796875 0.328125q-0.09375 -0.53125 -0.421875 -0.796875q-0.328125 -0.28125 -0.828125 -0.28125q-0.6875 0 -1.09375 0.46875q-0.40625 0.46875 -0.40625 1.578125q0 1.234375 0.40625 1.75q0.421875 0.5 1.109375 0.5q0.53125 0 0.859375 -0.296875q0.328125 -0.296875 0.46875 -1.03125l1.796875 0.3125q-0.28125 1.234375 -1.078125 1.875q-0.796875 0.625 -2.125 0.625q-1.515625 0 -2.421875 -0.953125q-0.90625 -0.953125 -0.90625 -2.65625q0 -1.703125 0.90625 -2.65625q0.90625 -0.953125 2.453125 -0.953125q1.265625 0 2.0 0.546875q0.75 0.53125 1.078125 1.640625zm5.3812256 2.671875l1.828125 0.3125q-0.34375 1.0 -1.109375 1.53125q-0.765625 0.515625 -1.890625 0.515625q-1.8125 0 -2.671875 -1.171875q-0.6875 -0.953125 -0.6875 -2.390625q0 -1.71875 0.890625 -2.6875q0.90625 -0.96875 2.28125 -0.96875q1.546875 0 2.4375 1.015625q0.890625 1.015625 0.84375 3.125l-4.578125 0q0.015625 0.8125 0.4375 1.265625q0.421875 0.453125 1.0625 0.453125q0.421875 0 0.71875 -0.234375q0.296875 -0.234375 0.4375 -0.765625zm0.109375 -1.84375q-0.015625 -0.796875 -0.40625 -1.203125q-0.390625 -0.421875 -0.953125 -0.421875q-0.59375 0 -0.984375 0.4375q-0.390625 0.4375 -0.390625 1.1875l2.734375 0zm3.0999756 1.5l0 -1.828125l3.59375 0l0 1.828125l-3.59375 0zm4.6414795 2.546875l0 -9.546875l1.828125 0l0 9.546875l-1.828125 0zm7.703003 -2.203125l1.828125 0.3125q-0.34375 1.0 -1.109375 1.53125q-0.765625 0.515625 -1.890625 0.515625q-1.8125 0 -2.671875 -1.171875q-0.6875 -0.953125 -0.6875 -2.390625q0 -1.71875 0.890625 -2.6875q0.90625 -0.96875 2.28125 -0.96875q1.546875 0 2.4375 1.015625q0.890625 1.015625 0.84375 3.125l-4.578125 0q0.015625 0.8125 0.4375 1.265625q0.421875 0.453125 1.0625 0.453125q0.421875 0 0.71875 -0.234375q0.296875 -0.234375 0.4375 -0.765625zm0.109375 -1.84375q-0.015625 -0.796875 -0.40625 -1.203125q-0.390625 -0.421875 -0.953125 -0.421875q-0.59375 0 -0.984375 0.4375q-0.390625 0.4375 -0.390625 1.1875l2.734375 0zm5.2093506 4.046875l-2.78125 -6.90625l1.90625 0l1.3125 3.515625l0.375 1.1875q0.140625 -0.453125 0.1875 -0.59375q0.09375 -0.296875 0.1875 -0.59375l1.328125 -3.515625l1.875 0l-2.75 6.90625l-1.640625 0zm9.506226 -2.203125l1.828125 0.3125q-0.34375 1.0 -1.109375 1.53125q-0.765625 0.515625 -1.890625 0.515625q-1.8125 0 -2.671875 -1.171875q-0.6875 -0.953125 -0.6875 -2.390625q0 -1.71875 0.890625 -2.6875q0.90625 -0.96875 2.28125 -0.96875q1.546875 0 2.4375 1.015625q0.890625 1.015625 0.84375 3.125l-4.578125 0q0.015625 0.8125 0.4375 1.265625q0.421875 0.453125 1.0625 0.453125q0.421875 0 0.71875 -0.234375q0.296875 -0.234375 0.4375 -0.765625zm0.109375 -1.84375q-0.015625 -0.796875 -0.40625 -1.203125q-0.390625 -0.421875 -0.953125 -0.421875q-0.59375 0 -0.984375 0.4375q-0.390625 0.4375 -0.390625 1.1875l2.734375 0zm3.3031006 4.046875l0 -9.546875l1.828125 0l0 9.546875l-1.828125 0z" fill-rule="nonzero"/><path fill="#999999" d="m363.84555 244.07703q0 -1.921875 1.078125 -2.84375q0.890625 -0.765625 2.171875 -0.765625q1.421875 0 2.328125 0.9375q0.90625 0.921875 0.90625 2.578125q0 1.328125 -0.40625 2.09375q-0.390625 0.765625 -1.15625 1.1875q-0.765625 0.421875 -1.671875 0.421875q-1.453125 0 -2.359375 -0.921875q-0.890625 -0.9375 -0.890625 -2.6875zm1.203125 0q0 1.328125 0.578125 1.984375q0.59375 0.65625 1.46875 0.65625q0.875 0 1.453125 -0.65625q0.578125 -0.671875 0.578125 -2.03125q0 -1.28125 -0.59375 -1.9375q-0.578125 -0.65625 -1.4375 -0.65625q-0.875 0 -1.46875 0.65625q-0.578125 0.65625 -0.578125 1.984375zm6.6468506 6.109375l0 -9.5625l1.078125 0l0 0.890625q0.375 -0.53125 0.84375 -0.78125q0.484375 -0.265625 1.15625 -0.265625q0.875 0 1.546875 0.453125q0.6875 0.453125 1.03125 1.28125q0.34375 0.828125 0.34375 1.828125q0 1.046875 -0.375 1.90625q-0.375 0.84375 -1.109375 1.296875q-0.71875 0.453125 -1.53125 0.453125q-0.578125 0 -1.046875 -0.25q-0.46875 -0.25 -0.765625 -0.625l0 3.375l-1.171875 0zm1.0625 -6.078125q0 1.34375 0.53125 1.984375q0.546875 0.625 1.3125 0.625q0.78125 0 1.34375 -0.65625q0.5625 -0.65625 0.5625 -2.046875q0 -1.3125 -0.546875 -1.96875q-0.546875 -0.671875 -1.296875 -0.671875q-0.75 0 -1.328125 0.703125q-0.578125 0.703125 -0.578125 2.03125zm10.865601 2.5625q-0.65625 0.5625 -1.265625 0.796875q-0.59375 0.21875 -1.28125 0.21875q-1.140625 0 -1.75 -0.546875q-0.609375 -0.5625 -0.609375 -1.4375q0 -0.5 0.21875 -0.921875q0.234375 -0.421875 0.609375 -0.671875q0.375 -0.25 0.84375 -0.390625q0.34375 -0.078125 1.046875 -0.171875q1.421875 -0.171875 2.09375 -0.40625q0 -0.234375 0 -0.296875q0 -0.71875 -0.328125 -1.015625q-0.453125 -0.390625 -1.34375 -0.390625q-0.8125 0 -1.21875 0.296875q-0.390625 0.28125 -0.578125 1.015625l-1.140625 -0.15625q0.15625 -0.734375 0.515625 -1.1875q0.359375 -0.453125 1.03125 -0.6875q0.671875 -0.25 1.5625 -0.25q0.890625 0 1.4375 0.203125q0.5625 0.203125 0.8125 0.53125q0.265625 0.3125 0.375 0.796875q0.046875 0.296875 0.046875 1.078125l0 1.5625q0 1.625 0.078125 2.0625q0.078125 0.4375 0.296875 0.828125l-1.21875 0q-0.1875 -0.359375 -0.234375 -0.859375zm-0.09375 -2.609375q-0.640625 0.265625 -1.921875 0.4375q-0.71875 0.109375 -1.015625 0.25q-0.296875 0.125 -0.46875 0.375q-0.15625 0.25 -0.15625 0.546875q0 0.46875 0.34375 0.78125q0.359375 0.3125 1.046875 0.3125q0.671875 0 1.203125 -0.296875q0.53125 -0.296875 0.78125 -0.8125q0.1875 -0.390625 0.1875 -1.171875l0 -0.421875zm7.3968506 6.125l0 -3.390625q-0.265625 0.390625 -0.765625 0.640625q-0.484375 0.25 -1.046875 0.25q-1.21875 0 -2.109375 -0.984375q-0.890625 -0.984375 -0.890625 -2.6875q0 -1.046875 0.359375 -1.875q0.359375 -0.828125 1.046875 -1.25q0.6875 -0.421875 1.515625 -0.421875q1.28125 0 2.015625 1.078125l0 -0.921875l1.046875 0l0 9.5625l-1.171875 0zm-3.609375 -6.125q0 1.328125 0.5625 2.0q0.5625 0.65625 1.34375 0.65625q0.75 0 1.28125 -0.625q0.546875 -0.640625 0.546875 -1.9375q0 -1.375 -0.578125 -2.0625q-0.5625 -0.703125 -1.328125 -0.703125q-0.765625 0 -1.296875 0.65625q-0.53125 0.640625 -0.53125 2.015625zm11.146851 3.46875l0 -1.015625q-0.8125 1.171875 -2.1875 1.171875q-0.609375 0 -1.140625 -0.234375q-0.53125 -0.234375 -0.796875 -0.578125q-0.25 -0.359375 -0.359375 -0.875q-0.0625 -0.34375 -0.0625 -1.09375l0 -4.28125l1.171875 0l0 3.828125q0 0.921875 0.0625 1.234375q0.109375 0.46875 0.46875 0.734375q0.359375 0.25 0.890625 0.25q0.515625 0 0.984375 -0.265625q0.46875 -0.265625 0.65625 -0.734375q0.1875 -0.46875 0.1875 -1.34375l0 -3.703125l1.171875 0l0 6.90625l-1.046875 0zm7.6156006 -2.21875l1.203125 0.140625q-0.28125 1.0625 -1.0625 1.65625q-0.765625 0.578125 -1.96875 0.578125q-1.515625 0 -2.40625 -0.9375q-0.890625 -0.9375 -0.890625 -2.609375q0 -1.75 0.890625 -2.703125q0.90625 -0.96875 2.34375 -0.96875q1.390625 0 2.265625 0.9375q0.875 0.9375 0.875 2.65625q0 0.109375 0 0.3125l-5.15625 0q0.0625 1.140625 0.640625 1.75q0.578125 0.59375 1.4375 0.59375q0.65625 0 1.109375 -0.328125q0.453125 -0.34375 0.71875 -1.078125zm-3.84375 -1.90625l3.859375 0q-0.078125 -0.859375 -0.4375 -1.296875q-0.5625 -0.6875 -1.453125 -0.6875q-0.8125 0 -1.359375 0.546875q-0.546875 0.53125 -0.609375 1.4375z" fill-rule="nonzero"/><path fill="#999999" d="m364.29868 255.34267l0 -1.359375l1.171875 0l0 1.359375l-1.171875 0zm0 8.187485l0 -6.90625l1.171875 0l0 6.90625l-1.171875 0zm2.945465 0l0 -6.90625l1.046875 0l0 0.96875q0.328125 -0.515625 0.859375 -0.8125q0.546875 -0.3125 1.234375 -0.3125q0.78125 0 1.265625 0.3125q0.484375 0.3125 0.6875 0.890625q0.828125 -1.203125 2.140625 -1.203125q1.03125 0 1.578125 0.578125q0.5625 0.5625 0.5625 1.734375l0 4.75l-1.171875 0l0 -4.359375q0 -0.703125 -0.125 -1.0q-0.109375 -0.3125 -0.40625 -0.5q-0.296875 -0.1875 -0.703125 -0.1875q-0.71875 0 -1.203125 0.484375q-0.484375 0.484375 -0.484375 1.546875l0 4.015625l-1.171875 0l0 -4.484375q0 -0.78125 -0.296875 -1.171875q-0.28125 -0.390625 -0.921875 -0.390625q-0.5 0 -0.921875 0.265625q-0.421875 0.25 -0.609375 0.75q-0.1875 0.5 -0.1875 1.453125l0 3.578125l-1.171875 0zm11.102417 0l0 -6.90625l1.046875 0l0 0.96875q0.328125 -0.515625 0.859375 -0.8125q0.546875 -0.3125 1.234375 -0.3125q0.78125 0 1.265625 0.3125q0.484375 0.3125 0.6875 0.890625q0.828125 -1.203125 2.140625 -1.203125q1.03125 0 1.578125 0.578125q0.5625 0.5625 0.5625 1.734375l0 4.75l-1.171875 0l0 -4.359375q0 -0.703125 -0.125 -1.0q-0.109375 -0.3125 -0.40625 -0.5q-0.296875 -0.1875 -0.703125 -0.1875q-0.71875 0 -1.203125 0.484375q-0.484375 0.484375 -0.484375 1.546875l0 4.015625l-1.171875 0l0 -4.484375q0 -0.78125 -0.296875 -1.171875q-0.28125 -0.390625 -0.921875 -0.390625q-0.5 0 -0.921875 0.265625q-0.421875 0.25 -0.609375 0.75q-0.1875 0.5 -0.1875 1.453125l0 3.578125l-1.171875 0zm15.6336975 0l0 -1.015625q-0.8125 1.171875 -2.1875 1.171875q-0.609375 0 -1.140625 -0.234375q-0.53125 -0.234375 -0.796875 -0.578125q-0.25 -0.359375 -0.359375 -0.875q-0.0625 -0.34375 -0.0625 -1.09375l0 -4.28125l1.171875 0l0 3.828125q0 0.921875 0.0625 1.234375q0.109375 0.46875 0.46875 0.734375q0.359375 0.25 0.890625 0.25q0.515625 0 0.984375 -0.265625q0.46875 -0.265625 0.65625 -0.734375q0.1875 -0.46875 0.1875 -1.34375l0 -3.703125l1.171875 0l0 6.90625l-1.046875 0zm5.4437256 -1.046875l0.171875 1.03125q-0.5 0.109375 -0.890625 0.109375q-0.640625 0 -1.0 -0.203125q-0.34375 -0.203125 -0.484375 -0.53125q-0.140625 -0.328125 -0.140625 -1.390625l0 -3.96875l-0.859375 0l0 -0.90625l0.859375 0l0 -1.7187347l1.171875 -0.703125l0 2.4218597l1.171875 0l0 0.90625l-1.171875 0l0 4.046875q0 0.5 0.046875 0.640625q0.0625 0.140625 0.203125 0.234375q0.140625 0.078125 0.40625 0.078125q0.203125 0 0.515625 -0.046875zm5.6560974 0.1875q-0.65625 0.5625 -1.265625 0.796875q-0.59375 0.21875 -1.28125 0.21875q-1.140625 0 -1.75 -0.546875q-0.609375 -0.5625 -0.609375 -1.4375q0 -0.5 0.21875 -0.921875q0.234375 -0.421875 0.609375 -0.671875q0.375 -0.25 0.84375 -0.390625q0.34375 -0.078125 1.046875 -0.171875q1.421875 -0.171875 2.09375 -0.40625q0 -0.234375 0 -0.296875q0 -0.71875 -0.328125 -1.015625q-0.453125 -0.390625 -1.34375 -0.390625q-0.8125 0 -1.21875 0.296875q-0.390625 0.28125 -0.578125 1.015625l-1.140625 -0.15625q0.15625 -0.734375 0.515625 -1.1875q0.359375 -0.453125 1.03125 -0.6875q0.671875 -0.25 1.5625 -0.25q0.890625 0 1.4375 0.203125q0.5625 0.203125 0.8125 0.53125q0.265625 0.3125 0.375 0.796875q0.046875 0.296875 0.046875 1.078125l0 1.5625q0 1.625 0.078125 2.0625q0.078125 0.4375 0.296875 0.828125l-1.21875 0q-0.1875 -0.359375 -0.234375 -0.859375zm-0.09375 -2.609375q-0.640625 0.265625 -1.921875 0.4375q-0.71875 0.109375 -1.015625 0.25q-0.296875 0.125 -0.46875 0.375q-0.15625 0.25 -0.15625 0.546875q0 0.46875 0.34375 0.78125q0.359375 0.3125 1.046875 0.3125q0.671875 0 1.203125 -0.296875q0.53125 -0.296875 0.78125 -0.8125q0.1875 -0.390625 0.1875 -1.171875l0 -0.421875zm4.0687256 3.46875l-1.078125 0l0 -9.54686l1.171875 0l0 3.4062347q0.734375 -0.921875 1.890625 -0.921875q0.640625 0 1.203125 0.265625q0.578125 0.25 0.9375 0.71875q0.375 0.453125 0.578125 1.109375q0.203125 0.65625 0.203125 1.40625q0 1.78125 -0.875 2.75q-0.875 0.96875 -2.109375 0.96875q-1.21875 0 -1.921875 -1.015625l0 0.859375zm0 -3.5q0 1.234375 0.328125 1.78125q0.5625 0.90625 1.5 0.90625q0.765625 0 1.328125 -0.65625q0.5625 -0.671875 0.5625 -2.0q0 -1.34375 -0.546875 -1.984375q-0.53125 -0.65625 -1.296875 -0.65625q-0.765625 0 -1.328125 0.671875q-0.546875 0.671875 -0.546875 1.9375zm6.3187256 3.5l0 -9.54686l1.171875 0l0 9.54686l-1.171875 0zm7.71109 -2.21875l1.203125 0.140625q-0.28125 1.0625 -1.0625 1.65625q-0.765625 0.578125 -1.96875 0.578125q-1.515625 0 -2.40625 -0.9375q-0.890625 -0.9375 -0.890625 -2.609375q0 -1.75 0.890625 -2.703125q0.90625 -0.96875 2.34375 -0.96875q1.390625 0 2.265625 0.9375q0.875 0.9375 0.875 2.65625q0 0.109375 0 0.3125l-5.15625 0q0.0625 1.140625 0.640625 1.75q0.578125 0.59375 1.4375 0.59375q0.65625 0 1.109375 -0.328125q0.453125 -0.34375 0.71875 -1.078125zm-3.84375 -1.90625l3.859375 0q-0.078125 -0.859375 -0.4375 -1.296875q-0.5625 -0.6875 -1.453125 -0.6875q-0.8125 0 -1.359375 0.546875q-0.546875 0.53125 -0.609375 1.4375z" fill-rule="nonzero"/><path fill="#000000" fill-opacity="0.0" d="m188.33435 194.54774l182.14172 0l0 84.03151l-182.14172 0z" fill-rule="evenodd"/><path fill="#000000" d="m200.03748 216.34775l-1.828125 0l0 -6.90625l1.703125 0l0 0.984375q0.4375 -0.703125 0.78125 -0.921875q0.34375 -0.21875 0.796875 -0.21875q0.625 0 1.203125 0.34375l-0.5625 1.59375q-0.46875 -0.296875 -0.859375 -0.296875q-0.390625 0 -0.65625 0.21875q-0.265625 0.203125 -0.421875 0.765625q-0.15625 0.546875 -0.15625 2.296875l0 2.140625zm7.983658 0l0 -1.03125q-0.375 0.546875 -1.0 0.875q-0.609375 0.3125 -1.28125 0.3125q-0.703125 0 -1.265625 -0.296875q-0.546875 -0.3125 -0.796875 -0.859375q-0.234375 -0.5625 -0.234375 -1.53125l0 -4.375l1.828125 0l0 3.171875q0 1.453125 0.09375 1.78125q0.109375 0.328125 0.375 0.53125q0.265625 0.1875 0.671875 0.1875q0.46875 0 0.84375 -0.25q0.375 -0.265625 0.5 -0.640625q0.140625 -0.390625 0.140625 -1.875l0 -2.90625l1.828125 0l0 6.90625l-1.703125 0zm9.891357 0l-1.828125 0l0 -3.53125q0 -1.109375 -0.125 -1.4375q-0.109375 -0.328125 -0.375 -0.515625q-0.265625 -0.1875 -0.640625 -0.1875q-0.46875 0 -0.859375 0.265625q-0.375 0.265625 -0.515625 0.703125q-0.140625 0.421875 -0.140625 1.578125l0 3.125l-1.828125 0l0 -6.90625l1.703125 0l0 1.015625q0.90625 -1.171875 2.28125 -1.171875q0.609375 0 1.109375 0.21875q0.5 0.21875 0.75 0.5625q0.265625 0.328125 0.359375 0.765625q0.109375 0.421875 0.109375 1.21875l0 4.296875zm5.0163574 -6.90625l0 1.453125l-1.25 0l0 2.78125q0 0.84375 0.03125 0.984375q0.046875 0.140625 0.171875 0.234375q0.125 0.09375 0.3125 0.09375q0.25 0 0.734375 -0.171875l0.15625 1.421875q-0.640625 0.265625 -1.453125 0.265625q-0.484375 0 -0.890625 -0.15625q-0.390625 -0.171875 -0.578125 -0.4375q-0.1875 -0.265625 -0.265625 -0.71875q-0.046875 -0.3125 -0.046875 -1.28125l0 -3.015625l-0.84375 0l0 -1.453125l0.84375 0l0 -1.375l1.828125 -1.078125l0 2.453125l1.25 0zm1.2664948 -0.9375l0 -1.703125l1.828125 0l0 1.703125l-1.828125 0zm0 7.84375l0 -6.90625l1.828125 0l0 6.90625l-1.828125 0zm3.5623627 -6.90625l1.6875 0l0 0.9375q0.90625 -1.09375 2.15625 -1.09375q0.671875 0 1.15625 0.28125q0.484375 0.265625 0.796875 0.8125q0.453125 -0.546875 0.984375 -0.8125q0.53125 -0.28125 1.125 -0.28125q0.765625 0 1.28125 0.3125q0.53125 0.296875 0.796875 0.90625q0.1875 0.4375 0.1875 1.421875l0 4.421875l-1.828125 0l0 -3.953125q0 -1.03125 -0.1875 -1.328125q-0.25 -0.390625 -0.78125 -0.390625q-0.390625 0 -0.734375 0.234375q-0.328125 0.234375 -0.484375 0.6875q-0.140625 0.453125 -0.140625 1.4375l0 3.3125l-1.828125 0l0 -3.78125q0 -1.015625 -0.109375 -1.296875q-0.09375 -0.296875 -0.296875 -0.4375q-0.203125 -0.15625 -0.546875 -0.15625q-0.421875 0 -0.765625 0.234375q-0.34375 0.21875 -0.484375 0.65625q-0.140625 0.421875 -0.140625 1.421875l0 3.359375l-1.84375 0l0 -6.90625zm15.99147 4.703125l1.828125 0.3125q-0.34375 1.0 -1.109375 1.53125q-0.765625 0.515625 -1.890625 0.515625q-1.8125 0 -2.671875 -1.171875q-0.6875 -0.953125 -0.6875 -2.390625q0 -1.71875 0.890625 -2.6875q0.90625 -0.96875 2.28125 -0.96875q1.546875 0 2.4375 1.015625q0.890625 1.015625 0.84375 3.125l-4.578125 0q0.015625 0.8125 0.4375 1.265625q0.421875 0.453125 1.0625 0.453125q0.421875 0 0.71875 -0.234375q0.296875 -0.234375 0.4375 -0.765625zm0.109375 -1.84375q-0.015625 -0.796875 -0.40625 -1.203125q-0.390625 -0.421875 -0.953125 -0.421875q-0.59375 0 -0.984375 0.4375q-0.390625 0.4375 -0.390625 1.1875l2.734375 0zm11.006088 1.84375l1.8281097 0.3125q-0.34375 1.0 -1.1093597 1.53125q-0.765625 0.515625 -1.890625 0.515625q-1.8125 0 -2.671875 -1.171875q-0.6875 -0.953125 -0.6875 -2.390625q0 -1.71875 0.890625 -2.6875q0.90625 -0.96875 2.28125 -0.96875q1.546875 0 2.4375 1.015625q0.89060974 1.015625 0.84373474 3.125l-4.5781097 0q0.015625 0.8125 0.4375 1.265625q0.421875 0.453125 1.0625 0.453125q0.421875 0 0.71875 -0.234375q0.296875 -0.234375 0.4375 -0.765625zm0.109375 -1.84375q-0.015625 -0.796875 -0.40625 -1.203125q-0.390625 -0.421875 -0.953125 -0.421875q-0.59375 0 -0.984375 0.4375q-0.390625 0.4375 -0.390625 1.1875l2.734375 0zm9.59996 4.046875l-1.828125 0l0 -3.53125q0 -1.109375 -0.125 -1.4375q-0.109375 -0.328125 -0.375 -0.515625q-0.265625 -0.1875 -0.640625 -0.1875q-0.46875 0 -0.859375 0.265625q-0.375 0.265625 -0.515625 0.703125q-0.140625 0.421875 -0.140625 1.578125l0 3.125l-1.828125 0l0 -6.90625l1.703125 0l0 1.015625q0.90625 -1.171875 2.28125 -1.171875q0.609375 0 1.109375 0.21875q0.5 0.21875 0.75 0.5625q0.265625 0.328125 0.359375 0.765625q0.109375 0.421875 0.109375 1.21875l0 4.296875zm5.0163574 -6.90625l0 1.453125l-1.25 0l0 2.78125q0 0.84375 0.03125 0.984375q0.046875 0.140625 0.171875 0.234375q0.125 0.09375 0.3125 0.09375q0.25 0 0.734375 -0.171875l0.15625 1.421875q-0.640625 0.265625 -1.453125 0.265625q-0.484375 0 -0.890625 -0.15625q-0.390625 -0.171875 -0.578125 -0.4375q-0.1875 -0.265625 -0.265625 -0.71875q-0.046875 -0.3125 -0.046875 -1.28125l0 -3.015625l-0.84375 0l0 -1.453125l0.84375 0l0 -1.375l1.828125 -1.078125l0 2.453125l1.25 0zm1.26651 -0.9375l0 -1.703125l1.828125 0l0 1.703125l-1.828125 0zm0 7.84375l0 -6.90625l1.828125 0l0 6.90625l-1.828125 0zm6.8748474 -6.90625l0 1.453125l-1.25 0l0 2.78125q0 0.84375 0.03125 0.984375q0.046875 0.140625 0.171875 0.234375q0.125 0.09375 0.3125 0.09375q0.25 0 0.734375 -0.171875l0.15625 1.421875q-0.640625 0.265625 -1.453125 0.265625q-0.484375 0 -0.890625 -0.15625q-0.390625 -0.171875 -0.578125 -0.4375q-0.1875 -0.265625 -0.265625 -0.71875q-0.046875 -0.3125 -0.046875 -1.28125l0 -3.015625l-0.84375 0l0 -1.453125l0.84375 0l0 -1.375l1.828125 -1.078125l0 2.453125l1.25 0zm0.407135 0l1.9375 0l1.65625 4.90625l1.609375 -4.90625l1.90625 0l-2.453125 6.640625l-0.421875 1.203125q-0.25 0.609375 -0.46875 0.921875q-0.21875 0.328125 -0.5 0.515625q-0.28125 0.203125 -0.703125 0.3125q-0.40625 0.125 -0.921875 0.125q-0.53125 0 -1.03125 -0.125l-0.171875 -1.421875q0.4375 0.078125 0.78125 0.078125q0.640625 0 0.9375 -0.375q0.3125 -0.375 0.46875 -0.953125l-2.625 -6.921875z" fill-rule="nonzero"/><path fill="#000000" d="m198.28748 224.504l0 -1.703125l1.828125 0l0 1.703125l-1.828125 0zm0 7.84375l0 -6.90625l1.828125 0l0 6.90625l-1.828125 0zm9.999863 0l-1.828125 0l0 -3.53125q0 -1.109375 -0.125 -1.4375q-0.109375 -0.328125 -0.375 -0.515625q-0.265625 -0.1875 -0.640625 -0.1875q-0.46875 0 -0.859375 0.265625q-0.375 0.265625 -0.515625 0.703125q-0.140625 0.421875 -0.140625 1.578125l0 3.125l-1.828125 0l0 -6.90625l1.703125 0l0 1.015625q0.90625 -1.171875 2.28125 -1.171875q0.609375 0 1.109375 0.21875q0.5 0.21875 0.75 0.5625q0.265625 0.328125 0.359375 0.765625q0.109375 0.421875 0.109375 1.21875l0 4.296875zm1.2038574 -1.96875l1.828125 -0.28125q0.125 0.53125 0.484375 0.8125q0.359375 0.265625 1.0 0.265625q0.703125 0 1.0625 -0.25q0.25 -0.1875 0.25 -0.484375q0 -0.21875 -0.140625 -0.359375q-0.125 -0.125 -0.609375 -0.234375q-2.203125 -0.484375 -2.796875 -0.890625q-0.828125 -0.5625 -0.828125 -1.5625q0 -0.890625 0.703125 -1.5q0.71875 -0.609375 2.203125 -0.609375q1.421875 0 2.109375 0.46875q0.703125 0.453125 0.953125 1.359375l-1.71875 0.3125q-0.109375 -0.40625 -0.421875 -0.609375q-0.3125 -0.21875 -0.890625 -0.21875q-0.71875 0 -1.03125 0.203125q-0.203125 0.140625 -0.203125 0.359375q0 0.203125 0.1875 0.34375q0.234375 0.171875 1.6875 0.515625q1.46875 0.328125 2.0625 0.8125q0.5625 0.484375 0.5625 1.359375q0 0.953125 -0.796875 1.640625q-0.78125 0.671875 -2.34375 0.671875q-1.40625 0 -2.234375 -0.5625q-0.828125 -0.578125 -1.078125 -1.5625zm11.224976 -4.9375l0 1.453125l-1.25 0l0 2.78125q0 0.84375 0.03125 0.984375q0.046875 0.140625 0.171875 0.234375q0.125 0.09375 0.3125 0.09375q0.25 0 0.734375 -0.171875l0.15625 1.421875q-0.640625 0.265625 -1.453125 0.265625q-0.484375 0 -0.890625 -0.15625q-0.390625 -0.171875 -0.578125 -0.4375q-0.1875 -0.265625 -0.265625 -0.71875q-0.046875 -0.3125 -0.046875 -1.28125l0 -3.015625l-0.84375 0l0 -1.453125l0.84375 0l0 -1.375l1.828125 -1.078125l0 2.453125l1.25 0zm2.6414948 2.109375l-1.671875 -0.3125q0.28125 -1.0 0.96875 -1.46875q0.6875 -0.484375 2.03125 -0.484375q1.21875 0 1.8125 0.296875q0.609375 0.28125 0.84375 0.734375q0.25 0.4375 0.25 1.625l-0.015625 2.140625q0 0.90625 0.078125 1.34375q0.09375 0.421875 0.34375 0.921875l-1.8125 0q-0.078125 -0.1875 -0.171875 -0.546875q-0.046875 -0.15625 -0.078125 -0.203125q-0.46875 0.453125 -1.0 0.6875q-0.53125 0.21875 -1.140625 0.21875q-1.0625 0 -1.6875 -0.578125q-0.609375 -0.578125 -0.609375 -1.46875q0 -0.578125 0.28125 -1.03125q0.28125 -0.46875 0.78125 -0.703125q0.515625 -0.25 1.46875 -0.4375q1.28125 -0.234375 1.765625 -0.453125l0 -0.171875q0 -0.53125 -0.265625 -0.75q-0.25 -0.234375 -0.96875 -0.234375q-0.484375 0 -0.765625 0.203125q-0.265625 0.1875 -0.4375 0.671875zm2.4375 1.484375q-0.34375 0.109375 -1.109375 0.28125q-0.765625 0.15625 -1.0 0.3125q-0.359375 0.25 -0.359375 0.640625q0 0.390625 0.28125 0.671875q0.296875 0.28125 0.734375 0.28125q0.5 0 0.953125 -0.328125q0.328125 -0.25 0.4375 -0.609375q0.0625 -0.234375 0.0625 -0.890625l0 -0.359375zm9.896851 3.3125l-1.828125 0l0 -3.53125q0 -1.109375 -0.125 -1.4375q-0.109375 -0.328125 -0.375 -0.515625q-0.265625 -0.1875 -0.640625 -0.1875q-0.46875 0 -0.859375 0.265625q-0.375 0.265625 -0.515625 0.703125q-0.140625 0.421875 -0.140625 1.578125l0 3.125l-1.828125 0l0 -6.90625l1.703125 0l0 1.015625q0.90625 -1.171875 2.28125 -1.171875q0.609375 0 1.109375 0.21875q0.5 0.21875 0.75 0.5625q0.265625 0.328125 0.359375 0.765625q0.109375 0.421875 0.109375 1.21875l0 4.296875zm7.8757324 -4.875l-1.796875 0.328125q-0.09375 -0.53125 -0.421875 -0.796875q-0.328125 -0.28125 -0.828125 -0.28125q-0.6875 0 -1.09375 0.46875q-0.40625 0.46875 -0.40625 1.578125q0 1.234375 0.40625 1.75q0.421875 0.5 1.109375 0.5q0.53125 0 0.859375 -0.296875q0.328125 -0.296875 0.46875 -1.03125l1.796875 0.3125q-0.28125 1.234375 -1.078125 1.875q-0.796875 0.625 -2.125 0.625q-1.515625 0 -2.421875 -0.953125q-0.90625 -0.953125 -0.90625 -2.65625q0 -1.703125 0.90625 -2.65625q0.90625 -0.953125 2.453125 -0.953125q1.265625 0 2.0 0.546875q0.75 0.53125 1.078125 1.640625zm5.3812256 2.671875l1.828125 0.3125q-0.34375 1.0 -1.109375 1.53125q-0.765625 0.515625 -1.890625 0.515625q-1.8125 0 -2.671875 -1.171875q-0.6875 -0.953125 -0.6875 -2.390625q0 -1.71875 0.890625 -2.6875q0.90625 -0.96875 2.28125 -0.96875q1.546875 0 2.4375 1.015625q0.890625 1.015625 0.84375 3.125l-4.578125 0q0.015625 0.8125 0.4375 1.265625q0.421875 0.453125 1.0625 0.453125q0.421875 0 0.71875 -0.234375q0.296875 -0.234375 0.4375 -0.765625zm0.109375 -1.84375q-0.015625 -0.796875 -0.40625 -1.203125q-0.390625 -0.421875 -0.953125 -0.421875q-0.59375 0 -0.984375 0.4375q-0.390625 0.4375 -0.390625 1.1875l2.734375 0zm3.0999756 1.5l0 -1.828125l3.59375 0l0 1.828125l-3.59375 0zm4.6414795 2.546875l0 -9.546875l1.828125 0l0 9.546875l-1.828125 0zm7.703003 -2.203125l1.828125 0.3125q-0.34375 1.0 -1.109375 1.53125q-0.765625 0.515625 -1.890625 0.515625q-1.8125 0 -2.671875 -1.171875q-0.6875 -0.953125 -0.6875 -2.390625q0 -1.71875 0.890625 -2.6875q0.90625 -0.96875 2.28125 -0.96875q1.546875 0 2.4375 1.015625q0.890625 1.015625 0.84375 3.125l-4.578125 0q0.015625 0.8125 0.4375 1.265625q0.421875 0.453125 1.0625 0.453125q0.421875 0 0.71875 -0.234375q0.296875 -0.234375 0.4375 -0.765625zm0.109375 -1.84375q-0.015625 -0.796875 -0.40625 -1.203125q-0.390625 -0.421875 -0.953125 -0.421875q-0.59375 0 -0.984375 0.4375q-0.390625 0.4375 -0.390625 1.1875l2.734375 0zm5.2093506 4.046875l-2.78125 -6.90625l1.90625 0l1.3125 3.515625l0.375 1.1875q0.140625 -0.453125 0.1875 -0.59375q0.09375 -0.296875 0.1875 -0.59375l1.328125 -3.515625l1.875 0l-2.75 6.90625l-1.640625 0zm9.506226 -2.203125l1.828125 0.3125q-0.34375 1.0 -1.109375 1.53125q-0.765625 0.515625 -1.890625 0.515625q-1.8125 0 -2.671875 -1.171875q-0.6875 -0.953125 -0.6875 -2.390625q0 -1.71875 0.890625 -2.6875q0.90625 -0.96875 2.28125 -0.96875q1.546875 0 2.4375 1.015625q0.890625 1.015625 0.84375 3.125l-4.578125 0q0.015625 0.8125 0.4375 1.265625q0.421875 0.453125 1.0625 0.453125q0.421875 0 0.71875 -0.234375q0.296875 -0.234375 0.4375 -0.765625zm0.109375 -1.84375q-0.015625 -0.796875 -0.40625 -1.203125q-0.390625 -0.421875 -0.953125 -0.421875q-0.59375 0 -0.984375 0.4375q-0.390625 0.4375 -0.390625 1.1875l2.734375 0zm3.3031006 4.046875l0 -9.546875l1.828125 0l0 9.546875l-1.828125 0z" fill-rule="nonzero"/><path fill="#000000" d="m204.63123 248.34775l-1.703125 0l0 -1.015625q-0.421875 0.59375 -1.0 0.890625q-0.578125 0.28125 -1.15625 0.28125q-1.1875 0 -2.046875 -0.953125q-0.84375 -0.96875 -0.84375 -2.6875q0 -1.75 0.828125 -2.65625q0.828125 -0.921875 2.09375 -0.921875q1.15625 0 2.0 0.953125l0 -3.4375l1.828125 0l0 9.546875zm-4.875 -3.609375q0 1.109375 0.296875 1.609375q0.4375 0.71875 1.234375 0.71875q0.640625 0 1.078125 -0.53125q0.4375 -0.546875 0.4375 -1.609375q0 -1.203125 -0.4375 -1.71875q-0.421875 -0.53125 -1.09375 -0.53125q-0.640625 0 -1.078125 0.515625q-0.4375 0.515625 -0.4375 1.546875zm8.047607 -1.1875l-1.671875 -0.3125q0.28125 -1.0 0.96875 -1.46875q0.6875 -0.484375 2.03125 -0.484375q1.21875 0 1.8125 0.296875q0.609375 0.28125 0.84375 0.734375q0.25 0.4375 0.25 1.625l-0.015625 2.140625q0 0.90625 0.078125 1.34375q0.09375 0.421875 0.34375 0.921875l-1.8125 0q-0.078125 -0.1875 -0.171875 -0.546875q-0.046875 -0.15625 -0.078125 -0.203125q-0.46875 0.453125 -1.0 0.6875q-0.53125 0.21875 -1.140625 0.21875q-1.0625 0 -1.6875 -0.578125q-0.609375 -0.578125 -0.609375 -1.46875q0 -0.578125 0.28125 -1.03125q0.28125 -0.46875 0.78125 -0.703125q0.515625 -0.25 1.46875 -0.4375q1.28125 -0.234375 1.765625 -0.453125l0 -0.171875q0 -0.53125 -0.265625 -0.75q-0.25 -0.234375 -0.96875 -0.234375q-0.484375 0 -0.765625 0.203125q-0.265625 0.1875 -0.4375 0.671875zm2.4375 1.484375q-0.34375 0.109375 -1.109375 0.28125q-0.765625 0.15625 -1.0 0.3125q-0.359375 0.25 -0.359375 0.640625q0 0.390625 0.28125 0.671875q0.296875 0.28125 0.734375 0.28125q0.5 0 0.953125 -0.328125q0.328125 -0.25 0.4375 -0.609375q0.0625 -0.234375 0.0625 -0.890625l0 -0.359375zm6.7718506 -3.59375l0 1.453125l-1.25 0l0 2.78125q0 0.84375 0.03125 0.984375q0.046875 0.140625 0.171875 0.234375q0.125 0.09375 0.3125 0.09375q0.25 0 0.734375 -0.171875l0.15625 1.421875q-0.640625 0.265625 -1.453125 0.265625q-0.484375 0 -0.890625 -0.15625q-0.390625 -0.171875 -0.578125 -0.4375q-0.1875 -0.265625 -0.265625 -0.71875q-0.046875 -0.3125 -0.046875 -1.28125l0 -3.015625l-0.84375 0l0 -1.453125l0.84375 0l0 -1.375l1.828125 -1.078125l0 2.453125l1.25 0zm2.6414948 2.109375l-1.671875 -0.3125q0.28125 -1.0 0.96875 -1.46875q0.6875 -0.484375 2.03125 -0.484375q1.21875 0 1.8125 0.296875q0.609375 0.28125 0.84375 0.734375q0.25 0.4375 0.25 1.625l-0.015625 2.140625q0 0.90625 0.078125 1.34375q0.09375 0.421875 0.34375 0.921875l-1.8125 0q-0.078125 -0.1875 -0.171875 -0.546875q-0.046875 -0.15625 -0.078125 -0.203125q-0.46875 0.453125 -1.0 0.6875q-0.53125 0.21875 -1.140625 0.21875q-1.0625 0 -1.6875 -0.578125q-0.609375 -0.578125 -0.609375 -1.46875q0 -0.578125 0.28125 -1.03125q0.28125 -0.46875 0.78125 -0.703125q0.515625 -0.25 1.46875 -0.4375q1.28125 -0.234375 1.765625 -0.453125l0 -0.171875q0 -0.53125 -0.265625 -0.75q-0.25 -0.234375 -0.96875 -0.234375q-0.484375 0 -0.765625 0.203125q-0.265625 0.1875 -0.4375 0.671875zm2.4375 1.484375q-0.34375 0.109375 -1.109375 0.28125q-0.765625 0.15625 -1.0 0.3125q-0.359375 0.25 -0.359375 0.640625q0 0.390625 0.28125 0.671875q0.296875 0.28125 0.734375 0.28125q0.5 0 0.953125 -0.328125q0.328125 -0.25 0.4375 -0.609375q0.0625 -0.234375 0.0625 -0.890625l0 -0.359375zm3.3968506 0.765625l0 -1.828125l3.59375 0l0 1.828125l-3.59375 0zm4.6414948 2.546875l0 -9.546875l1.828125 0l0 9.546875l-1.828125 0zm3.7029877 -7.84375l0 -1.703125l1.828125 0l0 1.703125l-1.828125 0zm0 7.84375l0 -6.90625l1.828125 0l0 6.90625l-1.828125 0zm3.6404877 0l0 -9.546875l1.828125 0l0 5.0625l2.140625 -2.421875l2.25 0l-2.359375 2.515625l2.53125 4.390625l-1.96875 0l-1.734375 -3.109375l-0.859375 0.890625l0 2.21875l-1.828125 0zm11.474976 -2.203125l1.828125 0.3125q-0.34375 1.0 -1.109375 1.53125q-0.765625 0.515625 -1.890625 0.515625q-1.8125 0 -2.671875 -1.171875q-0.6875 -0.953125 -0.6875 -2.390625q0 -1.71875 0.890625 -2.6875q0.90625 -0.96875 2.28125 -0.96875q1.546875 0 2.4375 1.015625q0.890625 1.015625 0.84375 3.125l-4.578125 0q0.015625 0.8125 0.4375 1.265625q0.421875 0.453125 1.0625 0.453125q0.421875 0 0.71875 -0.234375q0.296875 -0.234375 0.4375 -0.765625zm0.109375 -1.84375q-0.015625 -0.796875 -0.40625 -1.203125q-0.390625 -0.421875 -0.953125 -0.421875q-0.59375 0 -0.984375 0.4375q-0.390625 0.4375 -0.390625 1.1875l2.734375 0z" fill-rule="nonzero"/><path fill="#000000" d="m198.14685 257.4415l1.6875 0l0 0.9375q0.90625 -1.09375 2.15625 -1.09375q0.671875 0 1.15625 0.28125q0.484375 0.265625 0.796875 0.8125q0.453125 -0.546875 0.984375 -0.8125q0.53125 -0.28125 1.125 -0.28125q0.765625 0 1.28125 0.3125q0.53125 0.296875 0.796875 0.90625q0.1875 0.4375 0.1875 1.421875l0 4.421875l-1.828125 0l0 -3.953125q0 -1.03125 -0.1875 -1.328125q-0.25 -0.390625 -0.78125 -0.390625q-0.390625 0 -0.734375 0.234375q-0.328125 0.234375 -0.484375 0.6875q-0.140625 0.453125 -0.140625 1.4375l0 3.3125l-1.828125 0l0 -3.78125q0 -1.015625 -0.109375 -1.296875q-0.09375 -0.296875 -0.296875 -0.4375q-0.203125 -0.15625 -0.546875 -0.15625q-0.421875 0 -0.765625 0.234375q-0.34375 0.21875 -0.484375 0.65625q-0.140625 0.421875 -0.140625 1.421875l0 3.359375l-1.84375 0l0 -6.90625zm13.36647 2.109375l-1.671875 -0.3125q0.28125 -1.0 0.96875 -1.46875q0.6875 -0.484375 2.03125 -0.484375q1.21875 0 1.8125 0.296875q0.609375 0.28125 0.84375 0.734375q0.25 0.4375 0.25 1.625l-0.015625 2.140625q0 0.90625 0.078125 1.34375q0.09375 0.421875 0.34375 0.921875l-1.8125 0q-0.078125 -0.1875 -0.171875 -0.546875q-0.046875 -0.15625 -0.078125 -0.203125q-0.46875 0.453125 -1.0 0.6875q-0.53125 0.21875 -1.140625 0.21875q-1.0625 0 -1.6875 -0.578125q-0.609375 -0.578125 -0.609375 -1.46875q0 -0.578125 0.28125 -1.03125q0.28125 -0.46875 0.78125 -0.703125q0.515625 -0.25 1.46875 -0.4375q1.28125 -0.234375 1.765625 -0.453125l0 -0.171875q0 -0.53125 -0.265625 -0.75q-0.25 -0.234375 -0.96875 -0.234375q-0.484375 0 -0.765625 0.203125q-0.265625 0.1875 -0.4375 0.671875zm2.4375 1.484375q-0.34375 0.109375 -1.109375 0.28125q-0.765625 0.15625 -1.0 0.3125q-0.359375 0.25 -0.359375 0.640625q0 0.390625 0.28125 0.671875q0.296875 0.28125 0.734375 0.28125q0.5 0 0.953125 -0.328125q0.328125 -0.25 0.4375 -0.609375q0.0625 -0.234375 0.0625 -0.890625l0 -0.359375zm9.896851 3.3125l-1.828125 0l0 -3.53125q0 -1.109375 -0.125 -1.4375q-0.109375 -0.328125 -0.375 -0.515625q-0.265625 -0.1875 -0.640625 -0.1875q-0.46875 0 -0.859375 0.265625q-0.375 0.265625 -0.515625 0.703125q-0.140625 0.421875 -0.140625 1.578125l0 3.125l-1.828125 0l0 -6.90625l1.703125 0l0 1.015625q0.90625 -1.171875 2.28125 -1.171875q0.609375 0 1.109375 0.21875q0.5 0.21875 0.75 0.5625q0.265625 0.328125 0.359375 0.765625q0.109375 0.421875 0.109375 1.21875l0 4.296875zm1.8444824 -7.84375l0 -1.703125l1.828125 0l0 1.703125l-1.828125 0zm0 7.84375l0 -6.90625l1.828125 0l0 6.90625l-1.828125 0zm3.6561127 -6.90625l1.703125 0l0 1.015625q0.328125 -0.53125 0.890625 -0.84375q0.578125 -0.328125 1.265625 -0.328125q1.203125 0 2.03125 0.9375q0.84375 0.9375 0.84375 2.625q0 1.734375 -0.84375 2.703125q-0.84375 0.953125 -2.046875 0.953125q-0.578125 0 -1.046875 -0.21875q-0.453125 -0.234375 -0.96875 -0.796875l0 3.484375l-1.828125 0l0 -9.53125zm1.8125 3.328125q0 1.171875 0.453125 1.734375q0.46875 0.546875 1.125 0.546875q0.640625 0 1.0625 -0.5q0.421875 -0.515625 0.421875 -1.6875q0 -1.078125 -0.4375 -1.609375q-0.4375 -0.53125 -1.078125 -0.53125q-0.671875 0 -1.109375 0.515625q-0.4375 0.515625 -0.4375 1.53125zm10.922607 3.578125l0 -1.03125q-0.375 0.546875 -1.0 0.875q-0.609375 0.3125 -1.28125 0.3125q-0.703125 0 -1.265625 -0.296875q-0.546875 -0.3125 -0.796875 -0.859375q-0.234375 -0.5625 -0.234375 -1.53125l0 -4.375l1.828125 0l0 3.171875q0 1.453125 0.09375 1.78125q0.109375 0.328125 0.375 0.53125q0.265625 0.1875 0.671875 0.1875q0.46875 0 0.84375 -0.25q0.375 -0.265625 0.5 -0.640625q0.140625 -0.390625 0.140625 -1.875l0 -2.90625l1.828125 0l0 6.90625l-1.703125 0zm3.5944824 0l0 -9.546875l1.828125 0l0 9.546875l-1.828125 0zm5.0779877 -4.796875l-1.671875 -0.3125q0.28125 -1.0 0.96875 -1.46875q0.6875 -0.484375 2.03125 -0.484375q1.21875 0 1.8125 0.296875q0.609375 0.28125 0.84375 0.734375q0.25 0.4375 0.25 1.625l-0.015625 2.140625q0 0.90625 0.078125 1.34375q0.09375 0.421875 0.34375 0.921875l-1.8125 0q-0.078125 -0.1875 -0.171875 -0.546875q-0.046875 -0.15625 -0.078125 -0.203125q-0.46875 0.453125 -1.0 0.6875q-0.53125 0.21875 -1.140625 0.21875q-1.0625 0 -1.6875 -0.578125q-0.609375 -0.578125 -0.609375 -1.46875q0 -0.578125 0.28125 -1.03125q0.28125 -0.46875 0.78125 -0.703125q0.515625 -0.25 1.46875 -0.4375q1.28125 -0.234375 1.765625 -0.453125l0 -0.171875q0 -0.53125 -0.265625 -0.75q-0.25 -0.234375 -0.96875 -0.234375q-0.484375 0 -0.765625 0.203125q-0.265625 0.1875 -0.4375 0.671875zm2.4375 1.484375q-0.34375 0.109375 -1.109375 0.28125q-0.765625 0.15625 -1.0 0.3125q-0.359375 0.25 -0.359375 0.640625q0 0.390625 0.28125 0.671875q0.296875 0.28125 0.734375 0.28125q0.5 0 0.953125 -0.328125q0.328125 -0.25 0.4375 -0.609375q0.0625 -0.234375 0.0625 -0.890625l0 -0.359375zm3.5218353 3.3125l0 -9.546875l1.828125 0l0 3.4375q0.84375 -0.953125 2.015625 -0.953125q1.25 0 2.078125 0.921875q0.828125 0.90625 0.828125 2.609375q0 1.78125 -0.84375 2.734375q-0.84375 0.953125 -2.046875 0.953125q-0.59375 0 -1.171875 -0.296875q-0.5625 -0.296875 -0.984375 -0.875l0 1.015625l-1.703125 0zm1.8125 -3.609375q0 1.078125 0.34375 1.59375q0.46875 0.734375 1.265625 0.734375q0.609375 0 1.03125 -0.515625q0.421875 -0.53125 0.421875 -1.640625q0 -1.1875 -0.4375 -1.703125q-0.421875 -0.53125 -1.09375 -0.53125q-0.65625 0 -1.09375 0.515625q-0.4375 0.515625 -0.4375 1.546875zm6.4069824 3.609375l0 -9.546875l1.828125 0l0 9.546875l-1.828125 0zm7.703003 -2.203125l1.828125 0.3125q-0.34375 1.0 -1.109375 1.53125q-0.765625 0.515625 -1.890625 0.515625q-1.8125 0 -2.671875 -1.171875q-0.6875 -0.953125 -0.6875 -2.390625q0 -1.71875 0.890625 -2.6875q0.90625 -0.96875 2.28125 -0.96875q1.546875 0 2.4375 1.015625q0.890625 1.015625 0.84375 3.125l-4.578125 0q0.015625 0.8125 0.4375 1.265625q0.421875 0.453125 1.0625 0.453125q0.421875 0 0.71875 -0.234375q0.296875 -0.234375 0.4375 -0.765625zm0.109375 -1.84375q-0.015625 -0.796875 -0.40625 -1.203125q-0.390625 -0.421875 -0.953125 -0.421875q-0.59375 0 -0.984375 0.4375q-0.390625 0.4375 -0.390625 1.1875l2.734375 0z" fill-rule="nonzero"/><path fill="#000000" fill-opacity="0.0" d="m137.45932 252.6483l40.503937 0" fill-rule="evenodd"/><path stroke="#595959" stroke-width="2.0" stroke-linejoin="round" stroke-linecap="butt" d="m137.45932 252.6483l33.649765 0" fill-rule="evenodd"/><path fill="#595959" stroke="#595959" stroke-width="2.0" stroke-linecap="butt" d="m171.10909 252.6483l-2.249176 2.2491608l6.179535 -2.2491608l-6.179535 -2.249176z" fill-rule="evenodd"/><path fill="#000000" fill-opacity="0.0" d="m345.45407 218.8819l-43.55905 0.37794495" fill-rule="evenodd"/><path stroke="#595959" stroke-width="2.0" stroke-linejoin="round" stroke-linecap="butt" d="m345.45407 218.8819l-36.70514 0.31848145" fill-rule="evenodd"/><path fill="#595959" stroke="#595959" stroke-width="2.0" stroke-linecap="butt" d="m308.74893 219.20038l2.2295532 -2.2686005l-6.15979 2.3027039l6.198822 2.195465z" fill-rule="evenodd"/><path fill="#000000" fill-opacity="0.0" d="m181.49081 263.67975l-0.03149414 -24.976364" fill-rule="evenodd"/><path stroke="#595959" stroke-width="1.0" stroke-linejoin="round" stroke-linecap="butt" d="m181.49081 263.67975l-0.03149414 -24.976364" fill-rule="evenodd"/><path fill="#000000" fill-opacity="0.0" d="m300.29135 232.837l-0.03149414 -24.97638" fill-rule="evenodd"/><path stroke="#595959" stroke-width="1.0" stroke-linejoin="round" stroke-linecap="butt" d="m300.29135 232.837l-0.03149414 -24.97638" fill-rule="evenodd"/></g></svg>