<svg version="1.1" viewBox="0.0 0.0 400.0 400.0" fill="none" stroke="none" stroke-linecap="square" stroke-miterlimit="10" xmlns:xlink="http://www.w3.org/1999/xlink" xmlns="http://www.w3.org/2000/svg"><clipPath id="g11df8525824_0_0.0"><path d="m0 0l960.0 0l0 540.0l-960.0 0l0 -540.0z" clip-rule="nonzero"/></clipPath><g clip-path="url(#g11df8525824_0_0.0)"><path fill="#000000" fill-opacity="0.0" d="m0 0l960.0 0l0 540.0l-960.0 0z" fill-rule="evenodd"/><path fill="#ffffff" d="m28.821522 84.173225l116.62993 0l0 29.16536l-116.62993 0z" fill-rule="evenodd"/><path stroke="#595959" stroke-width="2.0" stroke-linejoin="round" stroke-linecap="butt" d="m28.821522 84.173225l116.62993 0l0 29.16536l-116.62993 0z" fill-rule="evenodd"/><path fill="#999999" d="m38.274647 101.57028l1.265625 -0.203125q0.109375 0.765625 0.59375 1.171875q0.5 0.40625 1.375 0.40625q0.890625 0 1.3125 -0.359375q0.4375 -0.359375 0.4375 -0.84375q0 -0.4375 -0.375 -0.6875q-0.265625 -0.171875 -1.3125 -0.4375q-1.421875 -0.359375 -1.96875 -0.609375q-0.546875 -0.265625 -0.828125 -0.734375q-0.28125 -0.46875 -0.28125 -1.015625q0 -0.515625 0.21875 -0.9375q0.234375 -0.4375 0.640625 -0.734375q0.296875 -0.21875 0.8125 -0.359375q0.53125 -0.15625 1.125 -0.15625q0.890625 0 1.5625 0.265625q0.671875 0.25 1.0 0.6875q0.328125 0.4375 0.4375 1.171875l-1.25 0.171875q-0.09375 -0.578125 -0.5 -0.90625q-0.40625 -0.34375 -1.15625 -0.34375q-0.890625 0 -1.28125 0.296875q-0.375 0.296875 -0.375 0.6875q0 0.25 0.15625 0.453125q0.15625 0.203125 0.5 0.34375q0.1875 0.078125 1.140625 0.328125q1.359375 0.359375 1.890625 0.59375q0.546875 0.234375 0.859375 0.6875q0.3125 0.4375 0.3125 1.09375q0 0.640625 -0.375 1.21875q-0.375 0.5625 -1.09375 0.875q-0.703125 0.3125 -1.59375 0.3125q-1.484375 0 -2.265625 -0.609375q-0.765625 -0.625 -0.984375 -1.828125zm7.78125 5.1875l-0.140625 -1.203125q0.421875 0.109375 0.734375 0.109375q0.4375 0 0.6875 -0.140625q0.265625 -0.140625 0.421875 -0.40625q0.125 -0.1875 0.390625 -0.953125q0.046875 -0.109375 0.125 -0.3125l-2.890625 -7.609375l1.390625 0l1.578125 4.390625q0.3125 0.84375 0.546875 1.765625q0.234375 -0.890625 0.53125 -1.734375l1.625 -4.421875l1.296875 0l-2.890625 7.71875q-0.46875 1.25 -0.734375 1.734375q-0.34375 0.625 -0.78125 0.921875q-0.4375 0.296875 -1.0625 0.296875q-0.375 0 -0.828125 -0.15625zm7.390625 -2.921875l0 -7.59375l1.15625 0l0 1.0625q0.34375 -0.5625 0.9375 -0.890625q0.609375 -0.34375 1.359375 -0.34375q0.84375 0 1.375 0.34375q0.546875 0.34375 0.765625 0.984375q0.90625 -1.328125 2.359375 -1.328125q1.125 0 1.734375 0.625q0.609375 0.625 0.609375 1.921875l0 5.21875l-1.28125 0l0 -4.78125q0 -0.78125 -0.125 -1.109375q-0.125 -0.34375 -0.453125 -0.546875q-0.328125 -0.21875 -0.78125 -0.21875q-0.796875 0 -1.328125 0.53125q-0.53125 0.53125 -0.53125 1.703125l0 4.421875l-1.28125 0l0 -4.9375q0 -0.859375 -0.3125 -1.28125q-0.3125 -0.4375 -1.03125 -0.4375q-0.546875 0 -1.015625 0.296875q-0.453125 0.28125 -0.671875 0.828125q-0.203125 0.546875 -0.203125 1.59375l0 3.9375l-1.28125 0zm11.021275 2.90625l0 -0.921875l8.53125 0l0 0.921875l-8.53125 0zm9.338608 -11.921875l0 -1.46875l1.296875 0l0 1.46875l-1.296875 0zm0 9.015625l0 -7.59375l1.296875 0l0 7.59375l-1.296875 0zm3.2561493 0l0 -7.59375l1.15625 0l0 1.078125q0.84375 -1.25 2.421875 -1.25q0.6875 0 1.265625 0.25q0.578125 0.234375 0.859375 0.640625q0.28125 0.40625 0.40625 0.953125q0.0625 0.359375 0.0625 1.25l0 4.671875l-1.28125 0l0 -4.625q0 -0.78125 -0.15625 -1.171875q-0.15625 -0.390625 -0.546875 -0.625q-0.375 -0.234375 -0.890625 -0.234375q-0.8125 0 -1.421875 0.53125q-0.59375 0.515625 -0.59375 1.96875l0 4.15625l-1.28125 0zm8.151108 -9.015625l0 -1.46875l1.296875 0l0 1.46875l-1.296875 0zm0 9.015625l0 -7.59375l1.296875 0l0 7.59375l-1.296875 0zm6.0686493 -1.15625l0.1875 1.140625q-0.546875 0.109375 -0.984375 0.109375q-0.6875 0 -1.078125 -0.21875q-0.390625 -0.21875 -0.546875 -0.578125q-0.15625 -0.359375 -0.15625 -1.515625l0 -4.375l-0.953125 0l0 -1.0l0.953125 0l0 -1.890625l1.28125 -0.765625l0 2.65625l1.296875 0l0 1.0l-1.296875 0l0 4.4375q0 0.546875 0.0625 0.71875q0.078125 0.15625 0.21875 0.25q0.15625 0.078125 0.453125 0.078125q0.203125 0 0.5625 -0.046875zm0.07197571 4.0625l0 -0.921875l8.53125 0l0 0.921875l-8.53125 0zm14.291733 -3.84375q-0.71875 0.609375 -1.375 0.859375q-0.65625 0.25 -1.421875 0.25q-1.25 0 -1.921875 -0.609375q-0.671875 -0.609375 -0.671875 -1.5625q0 -0.5625 0.25 -1.015625q0.25 -0.46875 0.65625 -0.75q0.421875 -0.28125 0.9375 -0.421875q0.375 -0.09375 1.140625 -0.1875q1.5625 -0.1875 2.296875 -0.453125q0.015625 -0.265625 0.015625 -0.328125q0 -0.796875 -0.375 -1.109375q-0.484375 -0.4375 -1.453125 -0.4375q-0.921875 0 -1.359375 0.328125q-0.421875 0.3125 -0.625 1.109375l-1.265625 -0.171875q0.171875 -0.796875 0.5625 -1.296875q0.390625 -0.5 1.140625 -0.765625q0.75 -0.265625 1.71875 -0.265625q0.984375 0 1.59375 0.234375q0.609375 0.21875 0.890625 0.5625q0.28125 0.34375 0.40625 0.875q0.0625 0.328125 0.0625 1.1875l0 1.71875q0 1.796875 0.078125 2.28125q0.078125 0.46875 0.328125 0.90625l-1.34375 0q-0.203125 -0.40625 -0.265625 -0.9375zm-0.109375 -2.875q-0.703125 0.28125 -2.09375 0.484375q-0.796875 0.109375 -1.125 0.265625q-0.328125 0.140625 -0.515625 0.421875q-0.171875 0.265625 -0.171875 0.59375q0 0.515625 0.390625 0.859375q0.390625 0.34375 1.140625 0.34375q0.734375 0 1.3125 -0.3125q0.59375 -0.328125 0.859375 -0.890625q0.203125 -0.4375 0.203125 -1.296875l0 -0.46875zm3.2917328 3.8125l0 -7.59375l1.15625 0l0 1.140625q0.453125 -0.796875 0.828125 -1.046875q0.375 -0.265625 0.8125 -0.265625q0.65625 0 1.328125 0.40625l-0.4375 1.203125q-0.46875 -0.28125 -0.953125 -0.28125q-0.421875 0 -0.765625 0.25q-0.328125 0.25 -0.46875 0.703125q-0.21875 0.6875 -0.21875 1.5l0 3.984375l-1.28125 0zm4.6618958 0.625l1.25 0.1875q0.078125 0.578125 0.4375 0.84375q0.46875 0.359375 1.3125 0.359375q0.890625 0 1.375 -0.359375q0.484375 -0.359375 0.65625 -1.0q0.109375 -0.390625 0.09375 -1.65625q-0.84375 1.0 -2.109375 1.0q-1.5625 0 -2.421875 -1.125q-0.859375 -1.140625 -0.859375 -2.71875q0 -1.09375 0.390625 -2.0q0.40625 -0.921875 1.140625 -1.421875q0.75 -0.5 1.765625 -0.5q1.34375 0 2.21875 1.078125l0 -0.90625l1.1875 0l0 6.5625q0 1.78125 -0.359375 2.515625q-0.359375 0.734375 -1.15625 1.15625q-0.78125 0.4375 -1.921875 0.4375q-1.359375 0 -2.203125 -0.609375q-0.828125 -0.609375 -0.796875 -1.84375zm1.0625 -4.5625q0 1.5 0.59375 2.1875q0.59375 0.6875 1.484375 0.6875q0.890625 0 1.484375 -0.6875q0.609375 -0.6875 0.609375 -2.140625q0 -1.390625 -0.625 -2.09375q-0.609375 -0.71875 -1.484375 -0.71875q-0.859375 0 -1.46875 0.703125q-0.59375 0.6875 -0.59375 2.0625zm6.807358 1.671875l1.265625 -0.203125q0.109375 0.765625 0.59375 1.171875q0.5 0.40625 1.375 0.40625q0.890625 0 1.3125 -0.359375q0.4375 -0.359375 0.4375 -0.84375q0 -0.4375 -0.375 -0.6875q-0.265625 -0.171875 -1.3125 -0.4375q-1.421875 -0.359375 -1.96875 -0.609375q-0.546875 -0.265625 -0.828125 -0.734375q-0.28125 -0.46875 -0.28125 -1.015625q0 -0.515625 0.21875 -0.9375q0.234375 -0.4375 0.640625 -0.734375q0.296875 -0.21875 0.8125 -0.359375q0.53125 -0.15625 1.125 -0.15625q0.890625 0 1.5625 0.265625q0.671875 0.25 1.0 0.6875q0.328125 0.4375 0.4375 1.171875l-1.25 0.171875q-0.09375 -0.578125 -0.5 -0.90625q-0.40625 -0.34375 -1.15625 -0.34375q-0.890625 0 -1.28125 0.296875q-0.375 0.296875 -0.375 0.6875q0 0.25 0.15625 0.453125q0.15625 0.203125 0.5 0.34375q0.1875 0.078125 1.140625 0.328125q1.359375 0.359375 1.890625 0.59375q0.546875 0.234375 0.859375 0.6875q0.3125 0.4375 0.3125 1.09375q0 0.640625 -0.375 1.21875q-0.375 0.5625 -1.09375 0.875q-0.703125 0.3125 -1.59375 0.3125q-1.484375 0 -2.265625 -0.609375q-0.765625 -0.625 -0.984375 -1.828125z" fill-rule="nonzero"/><path fill="#ffffff" d="m28.821522 113.338585l116.62993 0l0 29.165352l-116.62993 0z" fill-rule="evenodd"/><path stroke="#595959" stroke-width="2.0" stroke-linejoin="round" stroke-linecap="butt" d="m28.821522 113.338585l116.62993 0l0 29.165352l-116.62993 0z" fill-rule="evenodd"/><path fill="#999999" d="m38.274647 130.73564l1.265625 -0.203125q0.109375 0.765625 0.59375 1.171875q0.5 0.40625 1.375 0.40625q0.890625 0 1.3125 -0.359375q0.4375 -0.359375 0.4375 -0.84375q0 -0.4375 -0.375 -0.6875q-0.265625 -0.171875 -1.3125 -0.4375q-1.421875 -0.359375 -1.96875 -0.609375q-0.546875 -0.265625 -0.828125 -0.734375q-0.28125 -0.46875763 -0.28125 -1.0156326q0 -0.515625 0.21875 -0.9375q0.234375 -0.4375 0.640625 -0.734375q0.296875 -0.21875 0.8125 -0.359375q0.53125 -0.15625 1.125 -0.15625q0.890625 0 1.5625 0.265625q0.671875 0.25 1.0 0.6875q0.328125 0.4375 0.4375 1.171875l-1.25 0.171875q-0.09375 -0.578125 -0.5 -0.90625q-0.40625 -0.34375 -1.15625 -0.34375q-0.890625 0 -1.28125 0.296875q-0.375 0.296875 -0.375 0.6875q0 0.25 0.15625 0.453125q0.15625 0.203125 0.5 0.34375763q0.1875 0.078125 1.140625 0.328125q1.359375 0.359375 1.890625 0.59375q0.546875 0.234375 0.859375 0.6875q0.3125 0.4375 0.3125 1.09375q0 0.640625 -0.375 1.21875q-0.375 0.5625 -1.09375 0.875q-0.703125 0.3125 -1.59375 0.3125q-1.484375 0 -2.265625 -0.609375q-0.765625 -0.625 -0.984375 -1.828125zm7.78125 5.1875l-0.140625 -1.203125q0.421875 0.109375 0.734375 0.109375q0.4375 0 0.6875 -0.140625q0.265625 -0.140625 0.421875 -0.40625q0.125 -0.1875 0.390625 -0.953125q0.046875 -0.109375 0.125 -0.3125l-2.890625 -7.6093826l1.390625 0l1.578125 4.3906326q0.3125 0.84375 0.546875 1.765625q0.234375 -0.890625 0.53125 -1.734375l1.625 -4.4218826l1.296875 0l-2.890625 7.7187576q-0.46875 1.25 -0.734375 1.734375q-0.34375 0.625 -0.78125 0.921875q-0.4375 0.296875 -1.0625 0.296875q-0.375 0 -0.828125 -0.15625zm7.390625 -2.921875l0 -7.5937576l1.15625 0l0 1.0625q0.34375 -0.5625 0.9375 -0.890625q0.609375 -0.34375 1.359375 -0.34375q0.84375 0 1.375 0.34375q0.546875 0.34375 0.765625 0.984375q0.90625 -1.328125 2.359375 -1.328125q1.125 0 1.734375 0.625q0.609375 0.625 0.609375 1.921875l0 5.2187576l-1.28125 0l0 -4.78125q0 -0.7812576 -0.125 -1.1093826q-0.125 -0.34375 -0.453125 -0.546875q-0.328125 -0.21875 -0.78125 -0.21875q-0.796875 0 -1.328125 0.53125q-0.53125 0.53125 -0.53125 1.7031326l0 4.421875l-1.28125 0l0 -4.9375q0 -0.8593826 -0.3125 -1.2812576q-0.3125 -0.4375 -1.03125 -0.4375q-0.546875 0 -1.015625 0.296875q-0.453125 0.28125 -0.671875 0.828125q-0.203125 0.5468826 -0.203125 1.5937576l0 3.9375l-1.28125 0zm11.021275 2.90625l0 -0.921875l8.53125 0l0 0.921875l-8.53125 0zm9.338608 0l0 -10.500008l1.171875 0l0 0.984375q0.421875 -0.578125 0.9375 -0.859375q0.515625 -0.296875 1.265625 -0.296875q0.96875 0 1.71875 0.5q0.75 0.5 1.125 1.421875q0.375 0.9062576 0.375 1.9843826q0 1.171875 -0.421875 2.109375q-0.40625 0.921875 -1.21875 1.421875q-0.796875 0.5 -1.671875 0.5q-0.640625 0 -1.15625 -0.265625q-0.515625 -0.28125 -0.84375 -0.6875l0 3.6875l-1.28125 0zm1.15625 -6.65625q0 1.453125 0.59375 2.15625q0.609375 0.703125 1.453125 0.703125q0.859375 0 1.46875 -0.71875q0.609375 -0.734375 0.609375 -2.25q0 -1.4531326 -0.609375 -2.1718826q-0.59375 -0.734375 -1.421875 -0.734375q-0.8125 0 -1.453125 0.78125q-0.640625 0.765625 -0.640625 2.2343826zm11.947983 2.8125q-0.71875 0.609375 -1.375 0.859375q-0.65625 0.25 -1.421875 0.25q-1.25 0 -1.921875 -0.609375q-0.671875 -0.609375 -0.671875 -1.5625q0 -0.5625 0.25 -1.015625q0.25 -0.46875 0.65625 -0.75q0.421875 -0.28125 0.9375 -0.421875q0.375 -0.09375 1.140625 -0.1875q1.5625 -0.1875 2.296875 -0.453125q0.015625 -0.26563263 0.015625 -0.32813263q0 -0.796875 -0.375 -1.109375q-0.484375 -0.4375 -1.453125 -0.4375q-0.921875 0 -1.359375 0.328125q-0.421875 0.3125 -0.625 1.109375l-1.265625 -0.171875q0.171875 -0.796875 0.5625 -1.296875q0.390625 -0.5 1.140625 -0.765625q0.75 -0.265625 1.71875 -0.265625q0.984375 0 1.59375 0.234375q0.609375 0.21875 0.890625 0.5625q0.28125 0.34375 0.40625 0.875q0.0625 0.328125 0.0625 1.1875076l0 1.71875q0 1.796875 0.078125 2.28125q0.078125 0.46875 0.328125 0.90625l-1.34375 0q-0.203125 -0.40625 -0.265625 -0.9375zm-0.109375 -2.875q-0.703125 0.28125 -2.09375 0.484375q-0.796875 0.109375 -1.125 0.265625q-0.328125 0.140625 -0.515625 0.421875q-0.171875 0.265625 -0.171875 0.59375q0 0.515625 0.390625 0.859375q0.390625 0.34375 1.140625 0.34375q0.734375 0 1.3125 -0.3125q0.59375 -0.328125 0.859375 -0.890625q0.203125 -0.4375 0.203125 -1.296875l0 -0.46875zm3.2917328 3.8125l0 -7.5937576l1.15625 0l0 1.140625q0.453125 -0.796875 0.828125 -1.046875q0.375 -0.265625 0.8125 -0.265625q0.65625 0 1.328125 0.40625l-0.4375 1.203125q-0.46875 -0.28125 -0.953125 -0.28125q-0.421875 0 -0.765625 0.25q-0.328125 0.25 -0.46875 0.703125q-0.21875 0.6875076 -0.21875 1.5000076l0 3.984375l-1.28125 0zm10.099396 -2.453125l1.328125 0.171875q-0.3125 1.171875 -1.171875 1.8125q-0.84375 0.640625 -2.171875 0.640625q-1.671875 0 -2.65625 -1.015625q-0.96875 -1.03125 -0.96875 -2.890625q0 -1.9218826 0.984375 -2.9687576q1.0 -1.0625 2.578125 -1.0625q1.515625 0 2.484375 1.03125q0.96875 1.03125 0.96875 2.9218826q0 0.109375 -0.015625 0.34375l-5.65625 0q0.0625 1.25 0.703125 1.921875q0.640625 0.65625 1.59375 0.65625q0.703125 0 1.203125 -0.359375q0.5 -0.375 0.796875 -1.203125zm-4.234375 -2.078125l4.25 0q-0.09375 -0.9531326 -0.484375 -1.4375076q-0.625 -0.75 -1.609375 -0.75q-0.875 0 -1.484375 0.59375q-0.609375 0.59375 -0.671875 1.5937576zm7.182358 4.53125l0 -7.5937576l1.15625 0l0 1.078125q0.84375 -1.25 2.421875 -1.25q0.6875 0 1.265625 0.25q0.578125 0.234375 0.859375 0.640625q0.28125 0.40625 0.40625 0.953125q0.0625 0.359375 0.0625 1.2500076l0 4.671875l-1.28125 0l0 -4.625q0 -0.7812576 -0.15625 -1.1718826q-0.15625 -0.390625 -0.546875 -0.625q-0.375 -0.234375 -0.890625 -0.234375q-0.8125 0 -1.421875 0.53125q-0.59375 0.515625 -0.59375 1.9687576l0 4.15625l-1.28125 0zm10.963608 -1.15625l0.1875 1.140625q-0.546875 0.109375 -0.984375 0.109375q-0.6875 0 -1.078125 -0.21875q-0.390625 -0.21875 -0.546875 -0.578125q-0.15625 -0.359375 -0.15625 -1.515625l0 -4.3750076l-0.953125 0l0 -1.0l0.953125 0l0 -1.890625l1.28125 -0.765625l0 2.65625l1.296875 0l0 1.0l-1.296875 0l0 4.4375076q0 0.546875 0.0625 0.71875q0.078125 0.15625 0.21875 0.25q0.15625 0.078125 0.453125 0.078125q0.203125 0 0.5625 -0.046875z" fill-rule="nonzero"/><path fill="#ffffff" d="m28.821522 142.50394l116.62993 0l0 29.16536l-116.62993 0z" fill-rule="evenodd"/><path stroke="#595959" stroke-width="2.0" stroke-linejoin="round" stroke-linecap="butt" d="m28.821522 142.50394l116.62993 0l0 29.16536l-116.62993 0z" fill-rule="evenodd"/><path fill="#000000" d="m36.88402 165.07286l0 -0.921875l8.546875 0l0 0.921875l-8.546875 0zm9.072983 -2.90625l3.296875 -3.859375l-1.890625 -3.734375l1.421875 0l0.65625 1.34375q0.359375 0.765625 0.640625 1.453125l2.1875 -2.796875l1.578125 0l-3.1875 3.84375l1.921875 3.75l-1.4375 0l-0.75 -1.546875q-0.25 -0.5 -0.5625 -1.21875l-2.25 2.765625l-1.625 0z" fill-rule="nonzero"/><path fill="#ffffff" d="m28.821522 171.6693l116.62993 0l0 29.165344l-116.62993 0z" fill-rule="evenodd"/><path stroke="#595959" stroke-width="2.0" stroke-linejoin="round" stroke-linecap="butt" d="m28.821522 171.6693l116.62993 0l0 29.165344l-116.62993 0z" fill-rule="evenodd"/><path fill="#000000" d="m36.88402 194.23822l0 -0.921875l8.546875 0l0 0.921875l-8.546875 0zm9.088608 0.03125l0.078125 -1.21875q0.40625 0.109375 0.78125 0.109375q0.390625 0 0.640625 -0.171875q0.3125 -0.234375 0.6875 -0.890625l0.40625 -0.75l-1.265625 -7.609375l1.28125 0l0.5625 3.84375q0.171875 1.125 0.296875 2.265625l3.40625 -6.109375l1.34375 0l-4.84375 8.609375q-0.703125 1.25 -1.25 1.65625q-0.53125 0.40625 -1.25 0.40625q-0.453125 0 -0.875 -0.140625z" fill-rule="nonzero"/><path fill="#ffffff" d="m28.821522 200.83464l116.62993 0l0 29.16536l-116.62993 0z" fill-rule="evenodd"/><path stroke="#595959" stroke-width="2.0" stroke-linejoin="round" stroke-linecap="butt" d="m28.821522 200.83464l116.62993 0l0 29.16536l-116.62993 0z" fill-rule="evenodd"/><path fill="#000000" d="m38.274647 218.2317l1.265625 -0.203125q0.109375 0.765625 0.59375 1.171875q0.5 0.40625 1.375 0.40625q0.890625 0 1.3125 -0.359375q0.4375 -0.359375 0.4375 -0.84375q0 -0.4375 -0.375 -0.6875q-0.265625 -0.171875 -1.3125 -0.4375q-1.421875 -0.359375 -1.96875 -0.609375q-0.546875 -0.265625 -0.828125 -0.734375q-0.28125 -0.46875 -0.28125 -1.015625q0 -0.515625 0.21875 -0.9375q0.234375 -0.4375 0.640625 -0.734375q0.296875 -0.21875 0.8125 -0.359375q0.53125 -0.15625 1.125 -0.15625q0.890625 0 1.5625 0.265625q0.671875 0.25 1.0 0.6875q0.328125 0.4375 0.4375 1.171875l-1.25 0.171875q-0.09375 -0.578125 -0.5 -0.90625q-0.40625 -0.34375 -1.15625 -0.34375q-0.890625 0 -1.28125 0.296875q-0.375 0.296875 -0.375 0.6875q0 0.25 0.15625 0.453125q0.15625 0.203125 0.5 0.34375q0.1875 0.078125 1.140625 0.328125q1.359375 0.359375 1.890625 0.59375q0.546875 0.234375 0.859375 0.6875q0.3125 0.4375 0.3125 1.09375q0 0.640625 -0.375 1.21875q-0.375 0.5625 -1.09375 0.875q-0.703125 0.3125 -1.59375 0.3125q-1.484375 0 -2.265625 -0.609375q-0.765625 -0.625 -0.984375 -1.828125zm12.828125 2.265625l0 -1.109375q-0.890625 1.28125 -2.421875 1.28125q-0.671875 0 -1.25 -0.25q-0.578125 -0.265625 -0.875 -0.65625q-0.28125 -0.390625 -0.390625 -0.953125q-0.078125 -0.375 -0.078125 -1.203125l0 -4.703125l1.28125 0l0 4.203125q0 1.015625 0.078125 1.359375q0.125 0.515625 0.515625 0.8125q0.40625 0.28125 0.984375 0.28125q0.578125 0 1.078125 -0.296875q0.515625 -0.296875 0.71875 -0.8125q0.21875 -0.515625 0.21875 -1.484375l0 -4.0625l1.28125 0l0 7.59375l-1.140625 0zm3.1667328 0l0 -7.59375l1.15625 0l0 1.0625q0.34375 -0.5625 0.9375 -0.890625q0.609375 -0.34375 1.359375 -0.34375q0.84375 0 1.375 0.34375q0.546875 0.34375 0.765625 0.984375q0.90625 -1.328125 2.359375 -1.328125q1.125 0 1.734375 0.625q0.6093788 0.625 0.6093788 1.921875l0 5.21875l-1.2812538 0l0 -4.78125q0 -0.78125 -0.125 -1.109375q-0.125 -0.34375 -0.453125 -0.546875q-0.328125 -0.21875 -0.78125 -0.21875q-0.796875 0 -1.328125 0.53125q-0.53125 0.53125 -0.53125 1.703125l0 4.421875l-1.28125 0l0 -4.9375q0 -0.859375 -0.3125 -1.28125q-0.3125 -0.4375 -1.03125 -0.4375q-0.546875 0 -1.015625 0.296875q-0.453125 0.28125 -0.671875 0.828125q-0.203125 0.546875 -0.203125 1.59375l0 3.9375l-1.28125 0z" fill-rule="nonzero"/><path fill="#ffffff" d="m194.12862 84.173225l116.62993 0l0 29.16536l-116.62993 0z" fill-rule="evenodd"/><path stroke="#0000ff" stroke-width="2.0" stroke-linejoin="round" stroke-linecap="butt" d="m194.12862 84.173225l116.62993 0l0 29.16536l-116.62993 0z" fill-rule="evenodd"/><path fill="#0000ff" d="m203.23799 103.83591l2.78125 -3.953125l-2.578125 -3.640625l1.609375 0l1.171875 1.78125q0.328125 0.5 0.53125 0.84375q0.3125 -0.46875 0.578125 -0.828125l1.28125 -1.796875l1.53125 0l-2.625 3.578125l2.828125 4.015625l-1.578125 0l-1.5625 -2.359375l-0.40625 -0.640625l-2.0 3.0l-1.5625 0z" fill-rule="nonzero"/><path fill="#ffffff" d="m194.12862 113.338585l116.62993 0l0 29.165352l-116.62993 0z" fill-rule="evenodd"/><path stroke="#0000ff" stroke-width="2.0" stroke-linejoin="round" stroke-linecap="butt" d="m194.12862 113.338585l116.62993 0l0 29.165352l-116.62993 0z" fill-rule="evenodd"/><path fill="#0000ff" d="m204.03487 135.92314l-0.140625 -1.203125q0.421875 0.109375 0.734375 0.109375q0.4375 0 0.6875 -0.140625q0.265625 -0.140625 0.421875 -0.40625q0.125 -0.1875 0.390625 -0.953125q0.046875 -0.109375 0.125 -0.3125l-2.890625 -7.6093826l1.390625 0l1.578125 4.3906326q0.3125 0.84375 0.546875 1.765625q0.234375 -0.890625 0.53125 -1.734375l1.625 -4.4218826l1.296875 0l-2.890625 7.7187576q-0.46875 1.25 -0.734375 1.734375q-0.34375 0.625 -0.78125 0.921875q-0.4375 0.296875 -1.0625 0.296875q-0.375 0 -0.828125 -0.15625z" fill-rule="nonzero"/><path fill="#000000" fill-opacity="0.0" d="m145.45145 98.755905l48.692917 0" fill-rule="evenodd"/><path stroke="#0000ff" stroke-width="1.0" stroke-linejoin="round" stroke-linecap="butt" d="m149.24144 98.755905l41.47583 0" fill-rule="evenodd"/><path fill="#0000ff" stroke="#0000ff" stroke-width="1.0" stroke-linecap="butt" d="m145.95145 98.755905c0 -0.9085083 0.736496 -1.6449966 1.6450043 -1.6449966c0.9085083 0 1.644989 0.73648834 1.644989 1.6449966c0 0.9085083 -0.7364807 1.6449966 -1.644989 1.6449966c-0.9085083 0 -1.6450043 -0.73648834 -1.6450043 -1.6449966z" fill-rule="nonzero"/><path fill="#0000ff" stroke="#0000ff" stroke-width="1.0" stroke-linecap="butt" d="m190.71727 98.755905l-1.124588 1.1245804l3.0897675 -1.1245804l-3.0897675 -1.1245804z" fill-rule="evenodd"/><path fill="#000000" fill-opacity="0.0" d="m141.21523 7.1601048l57.16536 0l0 42.015747l-57.16536 0z" fill-rule="evenodd"/><path fill="#0000ff" d="m151.71523 34.080105l0 -13.359377l7.71875 0l0 1.515625l-6.140625 0l0 11.843752l-1.578125 0zm0.828125 -5.781252l0 -1.5l6.296875 0l0 1.5l-6.296875 0zm12.580841 6.078127q-1.4375 0 -2.546875 -0.671875q-1.09375 -0.671875 -1.71875 -1.8125019q-0.625 -1.15625 -0.625 -2.5625q0 -1.421875 0.625 -2.5625q0.625 -1.15625 1.71875 -1.828125q1.109375 -0.671875 2.546875 -0.671875q1.4375 0 2.53125 0.6875q1.109375 0.671875 1.734375 1.828125q0.625 1.140625 0.625 2.546875q0 1.40625 -0.625 2.5625q-0.625 1.1406269 -1.734375 1.8125019q-1.09375 0.671875 -2.53125 0.671875zm0 -1.4375q0.859375 0 1.609375 -0.421875q0.75 -0.4375 1.21875 -1.2500019q0.46875 -0.8125 0.46875 -1.9375q0 -1.140625 -0.46875 -1.953125q-0.46875 -0.8125 -1.21875 -1.234375q-0.75 -0.4375 -1.609375 -0.4375q-0.859375 0 -1.625 0.4375q-0.765625 0.421875 -1.234375 1.234375q-0.46875 0.8125 -0.46875 1.953125q0 1.125 0.46875 1.9375q0.46875 0.8125019 1.234375 1.2500019q0.765625 0.421875 1.625 0.421875zm11.119125 1.4375q-1.4375 0 -2.546875 -0.671875q-1.09375 -0.671875 -1.71875 -1.8125019q-0.625 -1.15625 -0.625 -2.5625q0 -1.421875 0.625 -2.5625q0.625 -1.15625 1.71875 -1.828125q1.109375 -0.671875 2.546875 -0.671875q1.4375 0 2.53125 0.6875q1.109375 0.671875 1.734375 1.828125q0.625 1.140625 0.625 2.546875q0 1.40625 -0.625 2.5625q-0.625 1.1406269 -1.734375 1.8125019q-1.09375 0.671875 -2.53125 0.671875zm0 -1.4375q0.859375 0 1.609375 -0.421875q0.75 -0.4375 1.21875 -1.2500019q0.46875 -0.8125 0.46875 -1.9375q0 -1.140625 -0.46875 -1.953125q-0.46875 -0.8125 -1.21875 -1.234375q-0.75 -0.4375 -1.609375 -0.4375q-0.859375 0 -1.625 0.4375q-0.765625 0.421875 -1.234375 1.234375q-0.46875 0.8125 -0.46875 1.953125q0 1.125 0.46875 1.9375q0.46875 0.8125019 1.234375 1.2500019q0.765625 0.421875 1.625 0.421875z" fill-rule="nonzero"/><path fill="#000000" fill-opacity="0.0" d="m168.96245 78.979004l2.1732178 204.12598" fill-rule="evenodd"/><path stroke="#595959" stroke-width="1.0" stroke-linejoin="round" stroke-linecap="butt" stroke-dasharray="4.0,3.0" d="m168.96245 78.979004l2.1732178 204.12598" fill-rule="evenodd"/><path fill="#000000" fill-opacity="0.0" d="m53.15223 240.79002l88.062996 0l0 51.716537l-88.062996 0z" fill-rule="evenodd"/><path fill="#000000" d="m67.636604 262.80878q-1.046875 0 -1.9375 -0.390625q-0.890625 -0.390625 -1.5625 -1.078125q-0.65625 -0.6875 -1.03125 -1.578125q-0.359375 -0.90625 -0.359375 -1.9375q0 -1.046875 0.359375 -1.9375q0.375 -0.90625 1.03125 -1.59375q0.671875 -0.6875 1.5625 -1.0625q0.890625 -0.390625 1.9375 -0.390625q1.0625 0 1.953125 0.390625q0.890625 0.375 1.546875 1.0625q0.671875 0.6875 1.03125 1.59375q0.359375 0.890625 0.359375 1.9375q0 1.03125 -0.359375 1.9375q-0.359375 0.890625 -1.03125 1.578125q-0.65625 0.6875 -1.546875 1.078125q-0.890625 0.390625 -1.953125 0.390625zm0 -1.078125q1.046875 0 1.890625 -0.5q0.84375 -0.5 1.34375 -1.375q0.515625 -0.890625 0.515625 -2.03125q0 -1.171875 -0.515625 -2.046875q-0.5 -0.875 -1.34375 -1.359375q-0.84375 -0.5 -1.890625 -0.5q-1.015625 0 -1.875 0.5q-0.84375 0.484375 -1.359375 1.359375q-0.5 0.875 -0.5 2.046875q0 1.140625 0.5 2.03125q0.515625 0.875 1.359375 1.375q0.859375 0.5 1.875 0.5zm9.79483 1.078125q-0.546875 0 -1.0 -0.1875q-0.453125 -0.171875 -0.796875 -0.4375q-0.34375 -0.28125 -0.53125 -0.59375l-0.046875 0l0 1.0l-1.078125 0l0 -9.546875l1.125 0l0 2.8125l-0.046875 0.953125l0.046875 0q0.1875 -0.328125 0.53125 -0.59375q0.34375 -0.28125 0.796875 -0.453125q0.453125 -0.1875 1.0 -0.1875q0.921875 0 1.65625 0.46875q0.734375 0.46875 1.15625 1.28125q0.4375 0.8125 0.4375 1.859375q0 1.0625 -0.4375 1.875q-0.421875 0.8125 -1.15625 1.28125q-0.734375 0.46875 -1.65625 0.46875zm-0.125 -1.03125q0.59375 0 1.09375 -0.3125q0.515625 -0.3125 0.828125 -0.890625q0.3125 -0.59375 0.3125 -1.390625q0 -0.796875 -0.3125 -1.375q-0.3125 -0.578125 -0.828125 -0.890625q-0.5 -0.3125 -1.09375 -0.3125q-0.59375 0 -1.109375 0.3125q-0.5 0.3125 -0.828125 0.890625q-0.3125 0.578125 -0.3125 1.375q0 0.8125 0.3125 1.390625q0.328125 0.578125 0.828125 0.890625q0.515625 0.3125 1.109375 0.3125zm3.988083 3.828125q-0.1875 0 -0.328125 -0.03125q-0.15625 -0.03125 -0.28125 -0.0625l0 -1.078125q0.109375 0.046875 0.28125 0.09375q0.15625 0.046875 0.28125 0.046875q0.4375 0 0.609375 -0.265625q0.1875 -0.265625 0.1875 -0.765625l0 -7.75l1.125 0l0 7.75q0 0.71875 -0.234375 1.171875q-0.234375 0.453125 -0.65625 0.671875q-0.421875 0.21875 -0.984375 0.21875zm1.296875 -11.0625q-0.328125 0 -0.578125 -0.234375q-0.234375 -0.25 -0.234375 -0.578125q0 -0.34375 0.234375 -0.578125q0.25 -0.234375 0.578125 -0.234375q0.359375 0 0.578125 0.234375q0.234375 0.234375 0.234375 0.578125q0 0.328125 -0.234375 0.578125q-0.21875 0.234375 -0.578125 0.234375zm5.3048553 8.265625q-0.984375 0 -1.75 -0.46875q-0.765625 -0.46875 -1.203125 -1.28125q-0.421875 -0.8125 -0.421875 -1.859375q0 -0.96875 0.40625 -1.796875q0.40625 -0.828125 1.140625 -1.328125q0.734375 -0.5 1.734375 -0.5q1.015625 0 1.734375 0.453125q0.734375 0.4375 1.125 1.234375q0.40625 0.78125 0.40625 1.796875q0 0.09375 -0.015625 0.1875q0 0.09375 -0.015625 0.15625l-5.859375 0l0 -0.9375l4.6875 0q-0.015625 -0.265625 -0.140625 -0.59375q-0.109375 -0.328125 -0.359375 -0.609375q-0.234375 -0.296875 -0.625 -0.46875q-0.375 -0.1875 -0.9375 -0.1875q-0.65625 0 -1.15625 0.34375q-0.484375 0.34375 -0.75 0.9375q-0.25 0.578125 -0.25 1.3125q0 0.875 0.328125 1.453125q0.34375 0.5625 0.859375 0.84375q0.53125 0.28125 1.109375 0.28125q0.75 0 1.234375 -0.34375q0.484375 -0.359375 0.78125 -0.890625l0.953125 0.46875q-0.390625 0.78125 -1.140625 1.296875q-0.75 0.5 -1.875 0.5zm7.6328735 0q-1.0 0 -1.78125 -0.46875q-0.78125 -0.484375 -1.21875 -1.296875q-0.4375 -0.828125 -0.4375 -1.859375q0 -1.03125 0.4375 -1.84375q0.4375 -0.8125 1.21875 -1.28125q0.78125 -0.484375 1.78125 -0.484375q1.140625 0 1.875 0.53125q0.75 0.53125 1.046875 1.359375l-1.015625 0.421875q-0.25 -0.625 -0.75 -0.953125q-0.5 -0.328125 -1.21875 -0.328125q-0.59375 0 -1.109375 0.328125q-0.515625 0.3125 -0.84375 0.890625q-0.3125 0.578125 -0.3125 1.359375q0 0.78125 0.3125 1.375q0.328125 0.578125 0.84375 0.90625q0.515625 0.3125 1.109375 0.3125q0.71875 0 1.234375 -0.328125q0.53125 -0.34375 0.78125 -0.953125l1.015625 0.421875q-0.328125 0.796875 -1.078125 1.34375q-0.75 0.546875 -1.890625 0.546875zm3.6635895 -7.015625l3.984375 0l0 1.03125l-3.984375 0l0 -1.03125zm1.1875 5.015625l0 -6.9375l1.125 0l0 6.65625q0 0.53125 0.21875 0.828125q0.21875 0.28125 0.734375 0.28125q0.21875 0 0.40625 -0.0625q0.1875 -0.0625 0.34375 -0.15625l0 1.109375q-0.171875 0.078125 -0.390625 0.125q-0.203125 0.046875 -0.546875 0.046875q-0.859375 0 -1.375 -0.5q-0.515625 -0.5 -0.515625 -1.390625z" fill-rule="nonzero"/><path fill="#000000" d="m65.886604 278.80878q-0.703125 0 -1.390625 -0.296875q-0.671875 -0.296875 -1.1875 -0.859375q-0.515625 -0.578125 -0.75 -1.4375l1.078125 -0.4375q0.21875 0.828125 0.8125 1.390625q0.609375 0.5625 1.46875 0.5625q0.53125 0 0.96875 -0.1875q0.453125 -0.203125 0.71875 -0.578125q0.28125 -0.375 0.28125 -0.90625q0 -0.484375 -0.234375 -0.8125q-0.234375 -0.328125 -0.703125 -0.59375q-0.46875 -0.265625 -1.140625 -0.5l-0.609375 -0.21875q-0.390625 -0.140625 -0.796875 -0.34375q-0.40625 -0.21875 -0.75 -0.515625q-0.34375 -0.296875 -0.546875 -0.71875q-0.1875 -0.421875 -0.1875 -0.984375q0 -0.703125 0.359375 -1.265625q0.375 -0.578125 1.03125 -0.921875q0.65625 -0.34375 1.515625 -0.34375q0.890625 0 1.484375 0.328125q0.609375 0.3125 0.96875 0.765625q0.359375 0.453125 0.46875 0.8125l-1.046875 0.453125q-0.078125 -0.265625 -0.3125 -0.5625q-0.21875 -0.3125 -0.609375 -0.515625q-0.375 -0.203125 -0.953125 -0.203125q-0.453125 0 -0.859375 0.1875q-0.40625 0.1875 -0.65625 0.515625q-0.25 0.3125 -0.25 0.75q0 0.59375 0.46875 0.9375q0.484375 0.34375 1.296875 0.625l0.640625 0.21875q0.421875 0.140625 0.859375 0.359375q0.453125 0.21875 0.828125 0.546875q0.390625 0.328125 0.625 0.828125q0.25 0.484375 0.25 1.15625q0 0.734375 -0.296875 1.265625q-0.28125 0.515625 -0.75 0.859375q-0.453125 0.328125 -1.015625 0.484375q-0.546875 0.15625 -1.078125 0.15625zm3.7976685 -7.015625l3.984375 0l0 1.03125l-3.984375 0l0 -1.03125zm1.1875 5.015625l0 -6.9375l1.125 0l0 6.65625q0 0.53125 0.21875 0.828125q0.21875 0.28125 0.734375 0.28125q0.21875 0 0.40625 -0.0625q0.1875 -0.0625 0.34375 -0.15625l0 1.109375q-0.171875 0.078125 -0.390625 0.125q-0.203125 0.046875 -0.546875 0.046875q-0.859375 0 -1.375 -0.5q-0.515625 -0.5 -0.515625 -1.390625zm6.18454 2.0q-0.765625 0 -1.34375 -0.296875q-0.5625 -0.296875 -0.890625 -0.8125q-0.328125 -0.515625 -0.328125 -1.15625q0 -0.75 0.375 -1.265625q0.390625 -0.515625 1.046875 -0.765625q0.65625 -0.265625 1.4375 -0.265625q0.453125 0 0.84375 0.078125q0.390625 0.0625 0.671875 0.171875q0.296875 0.09375 0.4375 0.1875l0 -0.40625q0 -0.78125 -0.546875 -1.234375q-0.546875 -0.453125 -1.328125 -0.453125q-0.5625 0 -1.046875 0.25q-0.484375 0.25 -0.765625 0.6875l-0.859375 -0.640625q0.265625 -0.40625 0.65625 -0.6875q0.40625 -0.296875 0.921875 -0.453125q0.515625 -0.171875 1.09375 -0.171875q1.375 0 2.15625 0.734375q0.796875 0.734375 0.796875 1.96875l0 4.3125l-1.078125 0l0 -0.96875l-0.046875 0q-0.1875 0.28125 -0.515625 0.5625q-0.3125 0.265625 -0.75 0.4375q-0.421875 0.1875 -0.9375 0.1875zm0.109375 -1.0q0.578125 0 1.0625 -0.296875q0.484375 -0.296875 0.78125 -0.78125q0.296875 -0.5 0.296875 -1.09375q-0.3125 -0.203125 -0.78125 -0.328125q-0.453125 -0.140625 -1.0 -0.140625q-0.96875 0 -1.421875 0.40625q-0.453125 0.390625 -0.453125 0.96875q0 0.5625 0.421875 0.921875q0.4375 0.34375 1.09375 0.34375zm4.193878 -6.015625l3.984375 0l0 1.03125l-3.984375 0l0 -1.03125zm1.1875 5.015625l0 -6.9375l1.125 0l0 6.65625q0 0.53125 0.21875 0.828125q0.21875 0.28125 0.734375 0.28125q0.21875 0 0.40625 -0.0625q0.1875 -0.0625 0.34375 -0.15625l0 1.109375q-0.171875 0.078125 -0.390625 0.125q-0.203125 0.046875 -0.546875 0.046875q-0.859375 0 -1.375 -0.5q-0.515625 -0.5 -0.515625 -1.390625zm6.868286 2.0q-0.984375 0 -1.75 -0.46875q-0.765625 -0.46875 -1.203125 -1.28125q-0.421875 -0.8125 -0.421875 -1.859375q0 -0.96875 0.40625 -1.796875q0.40625 -0.828125 1.140625 -1.328125q0.734375 -0.5 1.734375 -0.5q1.015625 0 1.734375 0.453125q0.734375 0.4375 1.125 1.234375q0.40625 0.78125 0.40625 1.796875q0 0.09375 -0.015625 0.1875q0 0.09375 -0.015625 0.15625l-5.859375 0l0 -0.9375l4.6875 0q-0.015625 -0.265625 -0.140625 -0.59375q-0.109375 -0.328125 -0.359375 -0.609375q-0.234375 -0.296875 -0.625 -0.46875q-0.375 -0.1875 -0.9375 -0.1875q-0.65625 0 -1.15625 0.34375q-0.484375 0.34375 -0.75 0.9375q-0.25 0.578125 -0.25 1.3125q0 0.875 0.328125 1.453125q0.34375 0.5625 0.859375 0.84375q0.53125 0.28125 1.109375 0.28125q0.75 0 1.234375 -0.34375q0.484375 -0.359375 0.78125 -0.890625l0.953125 0.46875q-0.390625 0.78125 -1.140625 1.296875q-0.75 0.5 -1.875 0.5zm6.9297485 0q-0.765625 0 -1.34375 -0.25q-0.578125 -0.25 -0.96875 -0.671875q-0.375 -0.421875 -0.5625 -0.90625l1.015625 -0.453125q0.265625 0.609375 0.765625 0.953125q0.515625 0.328125 1.171875 0.328125q0.625 0 1.046875 -0.25q0.421875 -0.265625 0.421875 -0.75q0 -0.3125 -0.1875 -0.515625q-0.171875 -0.203125 -0.5 -0.34375q-0.328125 -0.15625 -0.8125 -0.28125l-0.828125 -0.203125q-0.484375 -0.140625 -0.90625 -0.375q-0.421875 -0.25 -0.6875 -0.625q-0.25 -0.375 -0.25 -0.921875q0 -0.625 0.359375 -1.0625q0.359375 -0.4375 0.9375 -0.671875q0.59375 -0.234375 1.25 -0.234375q0.59375 0 1.109375 0.171875q0.515625 0.171875 0.890625 0.5q0.390625 0.3125 0.59375 0.796875l-0.984375 0.453125q-0.265625 -0.5 -0.6875 -0.703125q-0.421875 -0.203125 -0.9375 -0.203125q-0.5625 0 -0.984375 0.25q-0.40625 0.25 -0.40625 0.671875q0 0.421875 0.328125 0.640625q0.34375 0.21875 0.84375 0.34375l0.984375 0.25q1.0 0.265625 1.5 0.765625q0.515625 0.5 0.515625 1.21875q0 0.640625 -0.359375 1.109375q-0.359375 0.453125 -0.984375 0.71875q-0.609375 0.25 -1.34375 0.25z" fill-rule="nonzero"/><path fill="#000000" fill-opacity="0.0" d="m212.20735 240.79002l110.80315 0l0 51.716537l-110.80315 0z" fill-rule="evenodd"/><path fill="#000000" d="m224.94173 262.80878q-0.703125 0 -1.390625 -0.296875q-0.671875 -0.296875 -1.1875 -0.859375q-0.515625 -0.578125 -0.75 -1.4375l1.078125 -0.4375q0.21875 0.828125 0.8125 1.390625q0.609375 0.5625 1.46875 0.5625q0.53125 0 0.96875 -0.1875q0.453125 -0.203125 0.71875 -0.578125q0.28125 -0.375 0.28125 -0.90625q0 -0.484375 -0.234375 -0.8125q-0.234375 -0.328125 -0.703125 -0.59375q-0.46875 -0.265625 -1.140625 -0.5l-0.609375 -0.21875q-0.390625 -0.140625 -0.796875 -0.34375q-0.40625 -0.21875 -0.75 -0.515625q-0.34375 -0.296875 -0.546875 -0.71875q-0.1875 -0.421875 -0.1875 -0.984375q0 -0.703125 0.359375 -1.265625q0.375 -0.578125 1.03125 -0.921875q0.65625 -0.34375 1.515625 -0.34375q0.890625 0 1.484375 0.328125q0.609375 0.3125 0.96875 0.765625q0.359375 0.453125 0.46875 0.8125l-1.046875 0.453125q-0.078125 -0.265625 -0.3125 -0.5625q-0.21875 -0.3125 -0.609375 -0.515625q-0.375 -0.203125 -0.953125 -0.203125q-0.453125 0 -0.859375 0.1875q-0.40625 0.1875 -0.65625 0.515625q-0.25 0.3125 -0.25 0.75q0 0.59375 0.46875 0.9375q0.484375 0.34375 1.296875 0.625l0.640625 0.21875q0.421875 0.140625 0.859375 0.359375q0.453125 0.21875 0.828125 0.546875q0.390625 0.328125 0.625 0.828125q0.25 0.484375 0.25 1.15625q0 0.734375 -0.296875 1.265625q-0.28125 0.515625 -0.75 0.859375q-0.453125 0.328125 -1.015625 0.484375q-0.546875 0.15625 -1.078125 0.15625zm6.270584 2.3125q-0.03125 0.09375 -0.09375 0.203125q-0.046875 0.125 -0.0625 0.140625l-1.171875 0q0.078125 -0.171875 0.171875 -0.375q0.09375 -0.203125 0.234375 -0.5q0.078125 -0.171875 0.140625 -0.328125q0.0625 -0.140625 0.140625 -0.328125q0.09375 -0.171875 0.21875 -0.4375l0.9375 -2.03125l0.25 -0.625l2.046875 -5.046875l1.234375 0l-3.515625 8.109375q-0.0625 0.125 -0.171875 0.375q-0.109375 0.265625 -0.21875 0.515625q-0.09375 0.25 -0.140625 0.328125zm0.25 -2.8125l-2.875 -6.515625l1.234375 0l2.125 5.046875l0.109375 0l-0.59375 1.46875zm4.783081 0.28125l0 -6.796875l1.078125 0l0 1.0l0.046875 0q0.1875 -0.328125 0.515625 -0.59375q0.328125 -0.28125 0.75 -0.453125q0.421875 -0.171875 0.859375 -0.171875q0.75 0 1.296875 0.375q0.546875 0.359375 0.796875 0.953125q0.34375 -0.578125 0.921875 -0.953125q0.59375 -0.375 1.40625 -0.375q1.21875 0 1.78125 0.734375q0.578125 0.734375 0.578125 1.921875l0 4.359375l-1.125 0l0 -4.1875q0 -0.984375 -0.40625 -1.390625q-0.390625 -0.40625 -1.125 -0.40625q-0.515625 0 -0.921875 0.296875q-0.40625 0.296875 -0.640625 0.796875q-0.234375 0.484375 -0.234375 1.046875l0 3.84375l-1.125 0l0 -4.171875q0 -0.984375 -0.40625 -1.390625q-0.40625 -0.421875 -1.125 -0.421875q-0.515625 0 -0.921875 0.3125q-0.40625 0.296875 -0.640625 0.796875q-0.234375 0.484375 -0.234375 1.0625l0 3.8125l-1.125 0zm15.115189 0.21875q-0.546875 0 -1.0 -0.1875q-0.453125 -0.171875 -0.796875 -0.4375q-0.34375 -0.28125 -0.53125 -0.59375l-0.046875 0l0 1.0l-1.078125 0l0 -9.546875l1.125 0l0 2.8125l-0.046875 0.953125l0.046875 0q0.1875 -0.328125 0.53125 -0.59375q0.34375 -0.28125 0.796875 -0.453125q0.453125 -0.1875 1.0 -0.1875q0.921875 0 1.65625 0.46875q0.734375 0.46875 1.15625 1.28125q0.4375 0.8125 0.4375 1.859375q0 1.0625 -0.4375 1.875q-0.421875 0.8125 -1.15625 1.28125q-0.734375 0.46875 -1.65625 0.46875zm-0.125 -1.03125q0.59375 0 1.09375 -0.3125q0.515625 -0.3125 0.828125 -0.890625q0.3125 -0.59375 0.3125 -1.390625q0 -0.796875 -0.3125 -1.375q-0.3125 -0.578125 -0.828125 -0.890625q-0.5 -0.3125 -1.09375 -0.3125q-0.59375 0 -1.109375 0.3125q-0.5 0.3125 -0.828125 0.890625q-0.3125 0.578125 -0.3125 1.375q0 0.8125 0.3125 1.390625q0.328125 0.578125 0.828125 0.890625q0.515625 0.3125 1.109375 0.3125zm7.8203583 1.03125q-1.015625 0 -1.8125 -0.484375q-0.78125 -0.484375 -1.234375 -1.296875q-0.43748474 -0.828125 -0.43748474 -1.84375q0 -1.0 0.43748474 -1.8125q0.453125 -0.828125 1.234375 -1.3125q0.796875 -0.484375 1.8125 -0.484375q1.03125 0 1.8125 0.5q0.796875 0.484375 1.234375 1.3125q0.453125 0.8125 0.453125 1.796875q0 1.015625 -0.453125 1.84375q-0.4375 0.8125 -1.234375 1.296875q-0.78125 0.484375 -1.8125 0.484375zm0 -1.03125q0.609375 0 1.15625 -0.296875q0.546875 -0.3125 0.875 -0.890625q0.328125 -0.578125 0.328125 -1.40625q0 -0.8125 -0.328125 -1.390625q-0.328125 -0.578125 -0.875 -0.875q-0.546875 -0.3125 -1.15625 -0.3125q-0.609375 0 -1.15625 0.3125q-0.546875 0.296875 -0.890625 0.875q-0.328125 0.578125 -0.328125 1.390625q0 0.828125 0.328125 1.40625q0.34375 0.578125 0.890625 0.890625q0.546875 0.296875 1.15625 0.296875zm4.7518616 0.8125l0 -9.546875l1.125 0l0 9.546875l-1.125 0zm2.9216003 0l0 -6.796875l1.125 0l0 6.796875l-1.125 0zm0.546875 -8.046875q-0.328125 0 -0.578125 -0.234375q-0.234375 -0.25 -0.234375 -0.578125q0 -0.34375 0.234375 -0.578125q0.25 -0.234375 0.578125 -0.234375q0.359375 0 0.578125 0.234375q0.234375 0.234375 0.234375 0.578125q0 0.328125 -0.234375 0.578125q-0.21875 0.234375 -0.578125 0.234375zm5.3673706 8.265625q-1.0 0 -1.78125 -0.46875q-0.78125 -0.484375 -1.21875 -1.296875q-0.4375 -0.828125 -0.4375 -1.859375q0 -1.03125 0.4375 -1.84375q0.4375 -0.8125 1.21875 -1.28125q0.78125 -0.484375 1.78125 -0.484375q1.140625 0 1.875 0.53125q0.75 0.53125 1.046875 1.359375l-1.015625 0.421875q-0.25 -0.625 -0.75 -0.953125q-0.5 -0.328125 -1.21875 -0.328125q-0.59375 0 -1.109375 0.328125q-0.515625 0.3125 -0.84375 0.890625q-0.3125 0.578125 -0.3125 1.359375q0 0.78125 0.3125 1.375q0.328125 0.578125 0.84375 0.90625q0.515625 0.3125 1.109375 0.3125q0.71875 0 1.234375 -0.328125q0.53125 -0.34375 0.78125 -0.953125l1.015625 0.421875q-0.328125 0.796875 -1.078125 1.34375q-0.75 0.546875 -1.890625 0.546875z" fill-rule="nonzero"/><path fill="#000000" d="m222.26985 278.59003l0 -9.546875l3.234375 0q0.796875 0 1.46875 0.359375q0.671875 0.359375 1.078125 1.0q0.40625 0.625 0.40625 1.46875q0 0.515625 -0.1875 1.015625q-0.1875 0.484375 -0.578125 0.90625q-0.390625 0.40625 -1.0 0.65625q-0.609375 0.25 -1.453125 0.25l-2.359375 0l0 -1.046875l2.546875 0q0.5 0 0.921875 -0.21875q0.4375 -0.234375 0.703125 -0.640625q0.265625 -0.40625 0.265625 -0.921875q0 -0.421875 -0.21875 -0.8125q-0.21875 -0.40625 -0.625 -0.671875q-0.40625 -0.265625 -0.953125 -0.265625l-2.109375 0l0 8.46875l-1.140625 0zm2.3125 -4.375l1.234375 -0.0625l3.015625 4.390625l0 0.046875l-1.328125 0l-2.921875 -4.375zm8.161301 4.59375q-0.984375 0 -1.75 -0.46875q-0.765625 -0.46875 -1.203125 -1.28125q-0.421875 -0.8125 -0.421875 -1.859375q0 -0.96875 0.40625 -1.796875q0.40625 -0.828125 1.140625 -1.328125q0.734375 -0.5 1.734375 -0.5q1.015625 0 1.734375 0.453125q0.734375 0.4375 1.125 1.234375q0.40625 0.78125 0.40625 1.796875q0 0.09375 -0.015625 0.1875q0 0.09375 -0.015625 0.15625l-5.859375 0l0 -0.9375l4.6875 0q-0.015625 -0.265625 -0.140625 -0.59375q-0.109375 -0.328125 -0.359375 -0.609375q-0.234375 -0.296875 -0.625 -0.46875q-0.375 -0.1875 -0.9375 -0.1875q-0.65625 0 -1.15625 0.34375q-0.484375 0.34375 -0.75 0.9375q-0.25 0.578125 -0.25 1.3125q0 0.875 0.328125 1.453125q0.34375 0.5625 0.859375 0.84375q0.53125 0.28125 1.109375 0.28125q0.75 0 1.234375 -0.34375q0.484375 -0.359375 0.78125 -0.890625l0.953125 0.46875q-0.390625 0.78125 -1.140625 1.296875q-0.75 0.5 -1.875 0.5zm4.488083 2.65625l0 -9.671875l1.078125 0l0 1.015625l0.046875 0q0.1875 -0.328125 0.53125 -0.59375q0.34375 -0.28125 0.796875 -0.453125q0.453125 -0.1875 1.0 -0.1875q0.921875 0 1.65625 0.46875q0.734375 0.46875 1.15625 1.28125q0.4375 0.8125 0.4375 1.859375q0 1.0625 -0.4375 1.875q-0.421875 0.8125 -1.15625 1.28125q-0.734375 0.46875 -1.65625 0.46875q-0.8125 0 -1.4375 -0.375q-0.609375 -0.375 -0.890625 -0.84375l-0.046875 0l0.046875 0.9375l0 2.9375l-1.125 0zm3.328125 -3.6875q0.59375 0 1.09375 -0.3125q0.515625 -0.3125 0.828125 -0.890625q0.3125 -0.59375 0.3125 -1.390625q0 -0.796875 -0.3125 -1.375q-0.3125 -0.578125 -0.828125 -0.890625q-0.5 -0.3125 -1.09375 -0.3125q-0.59375 0 -1.109375 0.3125q-0.5 0.3125 -0.828125 0.890625q-0.3125 0.578125 -0.3125 1.375q0 0.8125 0.3125 1.390625q0.328125 0.578125 0.828125 0.890625q0.515625 0.3125 1.109375 0.3125zm4.628708 0.8125l0 -6.796875l1.078125 0l0 1.09375l0.046875 0q0.140625 -0.390625 0.453125 -0.671875q0.3125 -0.28125 0.71875 -0.453125q0.40625 -0.171875 0.796875 -0.171875q0.3125 0 0.484375 0.03125q0.171875 0.03125 0.328125 0.109375l0 1.21875q-0.21875 -0.109375 -0.46875 -0.15625q-0.25 -0.046875 -0.5 -0.046875q-0.484375 0 -0.90625 0.28125q-0.40625 0.265625 -0.65625 0.734375q-0.25 0.46875 -0.25 1.03125l0 3.796875l-1.125 0zm7.6136627 0.21875q-0.984375 0 -1.75 -0.46875q-0.765625 -0.46875 -1.203125 -1.28125q-0.421875 -0.8125 -0.421875 -1.859375q0 -0.96875 0.40625 -1.796875q0.40625 -0.828125 1.140625 -1.328125q0.734375 -0.5 1.734375 -0.5q1.015625 0 1.734375 0.453125q0.734375 0.4375 1.125 1.234375q0.40625 0.78125 0.40625 1.796875q0 0.09375 -0.015625 0.1875q0 0.09375 -0.015625 0.15625l-5.859375 0l0 -0.9375l4.6875 0q-0.015625 -0.265625 -0.140625 -0.59375q-0.109375 -0.328125 -0.359375 -0.609375q-0.234375 -0.296875 -0.625 -0.46875q-0.375 -0.1875 -0.9375 -0.1875q-0.65625 0 -1.15625 0.34375q-0.484375 0.34375 -0.75 0.9375q-0.25 0.578125 -0.25 1.3125q0 0.875 0.328125 1.453125q0.34375 0.5625 0.859375 0.84375q0.53125 0.28125 1.109375 0.28125q0.75 0 1.234375 -0.34375q0.484375 -0.359375 0.78125 -0.890625l0.953125 0.46875q-0.390625 0.78125 -1.140625 1.296875q-0.75 0.5 -1.875 0.5zm6.9297333 0q-0.765625 0 -1.34375 -0.25q-0.578125 -0.25 -0.96875 -0.671875q-0.375 -0.421875 -0.5625 -0.90625l1.015625 -0.453125q0.265625 0.609375 0.765625 0.953125q0.515625 0.328125 1.171875 0.328125q0.625 0 1.046875 -0.25q0.421875 -0.265625 0.421875 -0.75q0 -0.3125 -0.1875 -0.515625q-0.171875 -0.203125 -0.5 -0.34375q-0.328125 -0.15625 -0.8125 -0.28125l-0.828125 -0.203125q-0.484375 -0.140625 -0.90625 -0.375q-0.421875 -0.25 -0.6875 -0.625q-0.25 -0.375 -0.25 -0.921875q0 -0.625 0.359375 -1.0625q0.359375 -0.4375 0.9375 -0.671875q0.59375 -0.234375 1.25 -0.234375q0.59375 0 1.109375 0.171875q0.515625 0.171875 0.890625 0.5q0.390625 0.3125 0.59375 0.796875l-0.984375 0.453125q-0.265625 -0.5 -0.6875 -0.703125q-0.421875 -0.203125 -0.9375 -0.203125q-0.5625 0 -0.984375 0.25q-0.40625 0.25 -0.40625 0.671875q0 0.421875 0.328125 0.640625q0.34375 0.21875 0.84375 0.34375l0.984375 0.25q1.0 0.265625 1.5 0.765625q0.515625 0.5 0.515625 1.21875q0 0.640625 -0.359375 1.109375q-0.359375 0.453125 -0.984375 0.71875q-0.609375 0.25 -1.34375 0.25zm7.0114746 0q-0.984375 0 -1.75 -0.46875q-0.765625 -0.46875 -1.203125 -1.28125q-0.421875 -0.8125 -0.421875 -1.859375q0 -0.96875 0.40625 -1.796875q0.40625 -0.828125 1.140625 -1.328125q0.734375 -0.5 1.734375 -0.5q1.015625 0 1.734375 0.453125q0.734375 0.4375 1.125 1.234375q0.40625 0.78125 0.40625 1.796875q0 0.09375 -0.015625 0.1875q0 0.09375 -0.015625 0.15625l-5.859375 0l0 -0.9375l4.6875 0q-0.015625 -0.265625 -0.140625 -0.59375q-0.109375 -0.328125 -0.359375 -0.609375q-0.234375 -0.296875 -0.625 -0.46875q-0.375 -0.1875 -0.9375 -0.1875q-0.65625 0 -1.15625 0.34375q-0.484375 0.34375 -0.75 0.9375q-0.25 0.578125 -0.25 1.3125q0 0.875 0.328125 1.453125q0.34375 0.5625 0.859375 0.84375q0.53125 0.28125 1.109375 0.28125q0.75 0 1.234375 -0.34375q0.484375 -0.359375 0.78125 -0.890625l0.953125 0.46875q-0.390625 0.78125 -1.140625 1.296875q-0.75 0.5 -1.875 0.5zm4.488098 -0.21875l0 -6.796875l1.078125 0l0 1.0l0.046875 0q0.265625 -0.5 0.875 -0.859375q0.609375 -0.359375 1.328125 -0.359375q1.25 0 1.875 0.734375q0.640625 0.71875 0.640625 1.921875l0 4.359375l-1.125 0l0 -4.1875q0 -0.984375 -0.484375 -1.390625q-0.46875 -0.40625 -1.21875 -0.40625q-0.546875 0 -0.984375 0.3125q-0.421875 0.3125 -0.671875 0.8125q-0.234375 0.484375 -0.234375 1.03125l0 3.828125l-1.125 0zm6.6749573 -6.796875l3.984375 0l0 1.03125l-3.984375 0l0 -1.03125zm1.1875 5.015625l0 -6.9375l1.125 0l0 6.65625q0 0.53125 0.21875 0.828125q0.21875 0.28125 0.734375 0.28125q0.21875 0 0.40625 -0.0625q0.1875 -0.0625 0.34375 -0.15625l0 1.109375q-0.171875 0.078125 -0.390625 0.125q-0.203125 0.046875 -0.546875 0.046875q-0.859375 0 -1.375 -0.5q-0.515625 -0.5 -0.515625 -1.390625zm6.18454 2.0q-0.765625 0 -1.34375 -0.296875q-0.5625 -0.296875 -0.890625 -0.8125q-0.328125 -0.515625 -0.328125 -1.15625q0 -0.75 0.375 -1.265625q0.390625 -0.515625 1.046875 -0.765625q0.65625 -0.265625 1.4375 -0.265625q0.453125 0 0.84375 0.078125q0.390625 0.0625 0.671875 0.171875q0.296875 0.09375 0.4375 0.1875l0 -0.40625q0 -0.78125 -0.546875 -1.234375q-0.546875 -0.453125 -1.328125 -0.453125q-0.5625 0 -1.046875 0.25q-0.484375 0.25 -0.765625 0.6875l-0.859375 -0.640625q0.265625 -0.40625 0.65625 -0.6875q0.40625 -0.296875 0.921875 -0.453125q0.515625 -0.171875 1.09375 -0.171875q1.375 0 2.15625 0.734375q0.796875 0.734375 0.796875 1.96875l0 4.3125l-1.078125 0l0 -0.96875l-0.046875 0q-0.1875 0.28125 -0.515625 0.5625q-0.3125 0.265625 -0.75 0.4375q-0.421875 0.1875 -0.9375 0.1875zm0.109375 -1.0q0.578125 0 1.0625 -0.296875q0.484375 -0.296875 0.78125 -0.78125q0.296875 -0.5 0.296875 -1.09375q-0.3125 -0.203125 -0.78125 -0.328125q-0.453125 -0.140625 -1.0 -0.140625q-0.96875 0 -1.421875 0.40625q-0.453125 0.390625 -0.453125 0.96875q0 0.5625 0.421875 0.921875q0.4375 0.34375 1.09375 0.34375zm4.193878 -6.015625l3.984375 0l0 1.03125l-3.984375 0l0 -1.03125zm1.1875 5.015625l0 -6.9375l1.125 0l0 6.65625q0 0.53125 0.21875 0.828125q0.21875 0.28125 0.734375 0.28125q0.21875 0 0.40625 -0.0625q0.1875 -0.0625 0.34375 -0.15625l0 1.109375q-0.171875 0.078125 -0.390625 0.125q-0.203125 0.046875 -0.546875 0.046875q-0.859375 0 -1.375 -0.5q-0.515625 -0.5 -0.515625 -1.390625zm4.322052 1.78125l0 -6.796875l1.125 0l0 6.796875l-1.125 0zm0.546875 -8.046875q-0.328125 0 -0.578125 -0.234375q-0.234375 -0.25 -0.234375 -0.578125q0 -0.34375 0.234375 -0.578125q0.25 -0.234375 0.578125 -0.234375q0.359375 0 0.578125 0.234375q0.234375 0.234375 0.234375 0.578125q0 0.328125 -0.234375 0.578125q-0.21875 0.234375 -0.578125 0.234375zm5.414215 8.265625q-1.015625 0 -1.8125 -0.484375q-0.78125 -0.484375 -1.234375 -1.296875q-0.4375 -0.828125 -0.4375 -1.84375q0 -1.0 0.4375 -1.8125q0.453125 -0.828125 1.234375 -1.3125q0.796875 -0.484375 1.8125 -0.484375q1.03125 0 1.8125 0.5q0.796875 0.484375 1.234375 1.3125q0.453125 0.8125 0.453125 1.796875q0 1.015625 -0.453125 1.84375q-0.4375 0.8125 -1.234375 1.296875q-0.78125 0.484375 -1.8125 0.484375zm0 -1.03125q0.609375 0 1.15625 -0.296875q0.546875 -0.3125 0.875 -0.890625q0.328125 -0.578125 0.328125 -1.40625q0 -0.8125 -0.328125 -1.390625q-0.328125 -0.578125 -0.875 -0.875q-0.546875 -0.3125 -1.15625 -0.3125q-0.609375 0 -1.15625 0.3125q-0.546875 0.296875 -0.890625 0.875q-0.328125 0.578125 -0.328125 1.390625q0 0.828125 0.328125 1.40625q0.34375 0.578125 0.890625 0.890625q0.546875 0.296875 1.15625 0.296875zm4.685211 0.8125l0 -6.796875l1.078125 0l0 1.0l0.046875 0q0.265625 -0.5 0.875 -0.859375q0.609375 -0.359375 1.328125 -0.359375q1.25 0 1.875 0.734375q0.640625 0.71875 0.640625 1.921875l0 4.359375l-1.125 0l0 -4.1875q0 -0.984375 -0.484375 -1.390625q-0.46875 -0.40625 -1.21875 -0.40625q-0.546875 0 -0.984375 0.3125q-0.421875 0.3125 -0.671875 0.8125q-0.234375 0.484375 -0.234375 1.03125l0 3.828125l-1.125 0z" fill-rule="nonzero"/><path fill="#000000" fill-opacity="0.0" d="m119.52231 309.08923l110.80315 0l0 35.55905l-110.80315 0z" fill-rule="evenodd"/><path fill="#000000" d="m132.25668 331.108q-0.703125 0 -1.390625 -0.296875q-0.671875 -0.296875 -1.1875 -0.859375q-0.515625 -0.578125 -0.75 -1.4375l1.078125 -0.4375q0.21875 0.828125 0.8125 1.390625q0.609375 0.5625 1.46875 0.5625q0.53125 0 0.96875 -0.1875q0.453125 -0.203125 0.71875 -0.578125q0.28125 -0.375 0.28125 -0.90625q0 -0.484375 -0.234375 -0.8125q-0.234375 -0.328125 -0.703125 -0.59375q-0.46875 -0.265625 -1.140625 -0.5l-0.609375 -0.21875q-0.390625 -0.140625 -0.796875 -0.34375q-0.40625 -0.21875 -0.75 -0.515625q-0.34375 -0.296875 -0.546875 -0.71875q-0.1875 -0.421875 -0.1875 -0.984375q0 -0.703125 0.359375 -1.265625q0.375 -0.578125 1.03125 -0.921875q0.65625 -0.34375 1.515625 -0.34375q0.890625 0 1.484375 0.328125q0.609375 0.3125 0.96875 0.765625q0.359375 0.453125 0.46875 0.8125l-1.046875 0.453125q-0.078125 -0.265625 -0.3125 -0.5625q-0.21875 -0.3125 -0.609375 -0.515625q-0.375 -0.203125 -0.953125 -0.203125q-0.453125 0 -0.859375 0.1875q-0.40625 0.1875 -0.65625 0.515625q-0.25 0.3125 -0.25 0.75q0 0.59375 0.46875 0.9375q0.484375 0.34375 1.296875 0.625l0.640625 0.21875q0.421875 0.140625 0.859375 0.359375q0.453125 0.21875 0.828125 0.546875q0.390625 0.328125 0.625 0.828125q0.25 0.484375 0.25 1.15625q0 0.734375 -0.296875 1.265625q-0.28125 0.515625 -0.75 0.859375q-0.453125 0.328125 -1.015625 0.484375q-0.546875 0.15625 -1.078125 0.15625zm6.270584 2.3125q-0.03125 0.09375 -0.09375 0.203125q-0.046875 0.125 -0.0625 0.140625l-1.171875 0q0.078125 -0.171875 0.171875 -0.375q0.09375 -0.203125 0.234375 -0.5q0.078125 -0.171875 0.140625 -0.328125q0.0625 -0.140625 0.140625 -0.328125q0.09375 -0.171875 0.21875 -0.4375l0.9375 -2.03125l0.25 -0.625l2.046875 -5.046875l1.234375 0l-3.515625 8.109375q-0.0625 0.125 -0.171875 0.375q-0.109375 0.265625 -0.21875 0.515625q-0.09375 0.25 -0.140625 0.328125zm0.25 -2.8125l-2.875 -6.515625l1.234375 0l2.125 5.046875l0.109375 0l-0.59375 1.46875zm4.783081 0.28125l0 -6.796875l1.078125 0l0 1.0l0.046875 0q0.265625 -0.5 0.875 -0.859375q0.609375 -0.359375 1.328125 -0.359375q1.25 0 1.875 0.734375q0.640625 0.71875 0.640625 1.921875l0 4.359375l-1.125 0l0 -4.1875q0 -0.984375 -0.484375 -1.390625q-0.46875 -0.40625 -1.21875 -0.40625q-0.546875 0 -0.984375 0.3125q-0.421875 0.3125 -0.671875 0.8125q-0.234375 0.484375 -0.234375 1.03125l0 3.828125l-1.125 0zm10.555176 0.21875q-1.0 0 -1.78125 -0.46875q-0.78125 -0.484375 -1.21875 -1.296875q-0.4375 -0.828125 -0.4375 -1.859375q0 -1.03125 0.4375 -1.84375q0.4375 -0.8125 1.21875 -1.28125q0.78125 -0.484375 1.78125 -0.484375q1.140625 0 1.875 0.53125q0.75 0.53125 1.046875 1.359375l-1.015625 0.421875q-0.25 -0.625 -0.75 -0.953125q-0.5 -0.328125 -1.21875 -0.328125q-0.59375 0 -1.109375 0.328125q-0.515625 0.3125 -0.84375 0.890625q-0.3125 0.578125 -0.3125 1.359375q0 0.78125 0.3125 1.375q0.328125 0.578125 0.84375 0.90625q0.515625 0.3125 1.109375 0.3125q0.71875 0 1.234375 -0.328125q0.53125 -0.34375 0.78125 -0.953125l1.015625 0.421875q-0.328125 0.796875 -1.078125 1.34375q-0.75 0.546875 -1.890625 0.546875zm4.199005 -0.21875l0 -9.546875l1.125 0l0 2.8125l-0.046875 0.9375l0.046875 0q0.265625 -0.5 0.875 -0.859375q0.609375 -0.359375 1.34375 -0.359375q0.859375 0 1.421875 0.359375q0.5625 0.34375 0.84375 0.9375q0.28125 0.59375 0.28125 1.359375l0 4.359375l-1.140625 0l0 -4.1875q0 -0.65625 -0.234375 -1.046875q-0.234375 -0.390625 -0.609375 -0.5625q-0.375 -0.1875 -0.828125 -0.1875q-0.5625 0 -1.0 0.328125q-0.4375 0.3125 -0.703125 0.828125q-0.25 0.5 -0.25 1.046875l0 3.78125l-1.125 0zm7.517029 0l0 -6.796875l1.078125 0l0 1.09375l0.046875 0q0.140625 -0.390625 0.453125 -0.671875q0.3125 -0.28125 0.71875 -0.453125q0.40625 -0.171875 0.796875 -0.171875q0.3125 0 0.484375 0.03125q0.171875 0.03125 0.328125 0.109375l0 1.21875q-0.21875 -0.109375 -0.46875 -0.15625q-0.25 -0.046875 -0.5 -0.046875q-0.484375 0 -0.90625 0.28125q-0.40625 0.265625 -0.65625 0.734375q-0.25 0.46875 -0.25 1.03125l0 3.796875l-1.125 0zm7.7230377 0.21875q-1.015625 0 -1.8125 -0.484375q-0.78125 -0.484375 -1.234375 -1.296875q-0.4375 -0.828125 -0.4375 -1.84375q0 -1.0 0.4375 -1.8125q0.453125 -0.828125 1.234375 -1.3125q0.796875 -0.484375 1.8125 -0.484375q1.03125 0 1.8125 0.5q0.796875 0.484375 1.234375 1.3125q0.453125 0.8125 0.453125 1.796875q0 1.015625 -0.453125 1.84375q-0.4375 0.8125 -1.234375 1.296875q-0.78125 0.484375 -1.8125 0.484375zm0 -1.03125q0.609375 0 1.15625 -0.296875q0.546875 -0.3125 0.875 -0.890625q0.328125 -0.578125 0.328125 -1.40625q0 -0.8125 -0.328125 -1.390625q-0.328125 -0.578125 -0.875 -0.875q-0.546875 -0.3125 -1.15625 -0.3125q-0.609375 0 -1.15625 0.3125q-0.546875 0.296875 -0.890625 0.875q-0.328125 0.578125 -0.328125 1.390625q0 0.828125 0.328125 1.40625q0.34375 0.578125 0.890625 0.890625q0.546875 0.296875 1.15625 0.296875zm4.685196 0.8125l0 -6.796875l1.078125 0l0 1.0l0.046875 0q0.265625 -0.5 0.875 -0.859375q0.609375 -0.359375 1.328125 -0.359375q1.25 0 1.875 0.734375q0.640625 0.71875 0.640625 1.921875l0 4.359375l-1.125 0l0 -4.1875q0 -0.984375 -0.484375 -1.390625q-0.46875 -0.40625 -1.21875 -0.40625q-0.546875 0 -0.984375 0.3125q-0.421875 0.3125 -0.671875 0.8125q-0.234375 0.484375 -0.234375 1.03125l0 3.828125l-1.125 0zm7.586426 0l0 -6.796875l1.125 0l0 6.796875l-1.125 0zm0.546875 -8.046875q-0.328125 0 -0.578125 -0.234375q-0.234375 -0.25 -0.234375 -0.578125q0 -0.34375 0.234375 -0.578125q0.25 -0.234375 0.578125 -0.234375q0.359375 0 0.578125 0.234375q0.234375 0.234375 0.234375 0.578125q0 0.328125 -0.234375 0.578125q-0.21875 0.234375 -0.578125 0.234375zm2.012146 8.046875l0 -0.96875l4.0 -4.796875l-3.890625 0l0 -1.03125l5.28125 0l0 0.96875l-4.015625 4.796875l4.125 0l0 1.03125l-5.5 0zm9.716812 0.21875q-0.984375 0 -1.75 -0.46875q-0.765625 -0.46875 -1.203125 -1.28125q-0.421875 -0.8125 -0.421875 -1.859375q0 -0.96875 0.40625 -1.796875q0.40625 -0.828125 1.140625 -1.328125q0.734375 -0.5 1.734375 -0.5q1.015625 0 1.734375 0.453125q0.734375 0.4375 1.125 1.234375q0.40625 0.78125 0.40625 1.796875q0 0.09375 -0.015625 0.1875q0 0.09375 -0.015625 0.15625l-5.859375 0l0 -0.9375l4.6875 0q-0.015625 -0.265625 -0.140625 -0.59375q-0.109375 -0.328125 -0.359375 -0.609375q-0.234375 -0.296875 -0.625 -0.46875q-0.375 -0.1875 -0.9375 -0.1875q-0.65625 0 -1.15625 0.34375q-0.484375 0.34375 -0.75 0.9375q-0.25 0.578125 -0.25 1.3125q0 0.875 0.328125 1.453125q0.34375 0.5625 0.859375 0.84375q0.53125 0.28125 1.109375 0.28125q0.75 0 1.234375 -0.34375q0.484375 -0.359375 0.78125 -0.890625l0.953125 0.46875q-0.390625 0.78125 -1.140625 1.296875q-0.75 0.5 -1.875 0.5zm7.4453735 0q-0.921875 0 -1.671875 -0.46875q-0.734375 -0.46875 -1.15625 -1.28125q-0.421875 -0.8125 -0.421875 -1.875q0 -1.046875 0.421875 -1.859375q0.421875 -0.8125 1.15625 -1.28125q0.75 -0.46875 1.671875 -0.46875q0.546875 0 1.0 0.1875q0.453125 0.171875 0.78125 0.453125q0.34375 0.265625 0.53125 0.59375l0.0625 0l-0.0625 -0.953125l0 -2.8125l1.140625 0l0 9.546875l-1.078125 0l0 -1.0l-0.0625 0q-0.1875 0.3125 -0.53125 0.59375q-0.328125 0.265625 -0.78125 0.4375q-0.453125 0.1875 -1.0 0.1875zm0.125 -1.03125q0.578125 0 1.09375 -0.3125q0.515625 -0.3125 0.828125 -0.890625q0.328125 -0.578125 0.328125 -1.390625q0 -0.796875 -0.328125 -1.375q-0.3125 -0.578125 -0.828125 -0.890625q-0.515625 -0.3125 -1.09375 -0.3125q-0.59375 0 -1.109375 0.3125q-0.515625 0.3125 -0.84375 0.890625q-0.3125 0.578125 -0.3125 1.375q0 0.796875 0.3125 1.390625q0.328125 0.578125 0.84375 0.890625q0.515625 0.3125 1.109375 0.3125z" fill-rule="nonzero"/><path fill="#000000" fill-opacity="0.0" d="m235.86876 292.50656c0 4.1921387 -5.478363 7.5905457 -12.236267 7.5905457l-46.099625 0c-6.757904 0 -12.236267 3.398407 -12.236267 7.5905457l0 0c0 -4.1921387 -5.478363 -7.5905457 -12.236282 -7.5905457l-49.585197 0l0 0c-6.7579117 0 -12.236275 -3.398407 -12.236275 -7.5905457z" fill-rule="evenodd"/><path fill="#000000" fill-opacity="0.0" d="m235.86876 292.50656c0 4.1921387 -5.478363 7.5905457 -12.236267 7.5905457l-46.099625 0c-6.757904 0 -12.236267 3.398407 -12.236267 7.5905457l0 0c0 -4.1921387 -5.478363 -7.5905457 -12.236282 -7.5905457l-49.585197 0l0 0c-6.7579117 0 -12.236275 -3.398407 -12.236275 -7.5905457" fill-rule="evenodd"/><path stroke="#595959" stroke-width="1.0" stroke-linejoin="round" stroke-linecap="butt" d="m235.86876 292.50656c0 4.1921387 -5.478363 7.5905457 -12.236267 7.5905457l-46.099625 0c-6.757904 0 -12.236267 3.398407 -12.236267 7.5905457l0 0c0 -4.1921387 -5.478363 -7.5905457 -12.236282 -7.5905457l-49.585197 0l0 0c-6.7579117 0 -12.236275 -3.398407 -12.236275 -7.5905457" fill-rule="evenodd"/><path fill="#000000" fill-opacity="0.0" d="m30.175854 37.666668l128.62991 0l0 35.559055l-128.62991 0z" fill-rule="evenodd"/><path fill="#000000" d="m39.37898 59.466667l3.625 -9.546875l1.28125 0l3.625 9.546875l-1.25 0l-2.625 -7.125l-0.375 -1.03125l-0.046875 0l-0.375 1.03125l-2.625 7.125l-1.234375 0zm4.125 -2.625l0 -1.0625l2.203125 0l0.390625 1.0625l-2.59375 0zm-2.578125 0l0.375 -1.0625l2.203125 0l0 1.0625l-2.578125 0zm10.39856 2.84375q-0.765625 0 -1.34375 -0.25q-0.578125 -0.25 -0.96875 -0.671875q-0.375 -0.421875 -0.5625 -0.90625l1.015625 -0.453125q0.265625 0.609375 0.765625 0.953125q0.515625 0.328125 1.171875 0.328125q0.625 0 1.046875 -0.25q0.421875 -0.265625 0.421875 -0.75q0 -0.3125 -0.1875 -0.515625q-0.171875 -0.203125 -0.5 -0.34375q-0.328125 -0.15625 -0.8125 -0.28125l-0.828125 -0.203125q-0.484375 -0.140625 -0.90625 -0.375q-0.421875 -0.25 -0.6875 -0.625q-0.25 -0.375 -0.25 -0.921875q0 -0.625 0.359375 -1.0625q0.359375 -0.4375 0.9375 -0.671875q0.59375 -0.234375 1.25 -0.234375q0.59375 0 1.109375 0.171875q0.515625 0.171875 0.890625 0.5q0.390625 0.3125 0.59375 0.796875l-0.984375 0.453125q-0.265625 -0.5 -0.6875 -0.703125q-0.421875 -0.203125 -0.9375 -0.203125q-0.5625 0 -0.984375 0.25q-0.40625 0.25 -0.40625 0.671875q0 0.421875 0.328125 0.640625q0.34375 0.21875 0.84375 0.34375l0.984375 0.25q1.0 0.265625 1.5 0.765625q0.515625 0.5 0.515625 1.21875q0 0.640625 -0.359375 1.109375q-0.359375 0.453125 -0.984375 0.71875q-0.609375 0.25 -1.34375 0.25zm9.193176 0q-0.765625 0 -1.34375 -0.296875q-0.5625 -0.296875 -0.890625 -0.8125q-0.328125 -0.515625 -0.328125 -1.15625q0 -0.75 0.375 -1.265625q0.390625 -0.515625 1.046875 -0.765625q0.65625 -0.265625 1.4375 -0.265625q0.453125 0 0.84375 0.078125q0.390625 0.0625 0.671875 0.171875q0.296875 0.09375 0.4375 0.1875l0 -0.40625q0 -0.78125 -0.546875 -1.234375q-0.546875 -0.453125 -1.328125 -0.453125q-0.5625 0 -1.046875 0.25q-0.484375 0.25 -0.765625 0.6875l-0.859375 -0.640625q0.265625 -0.40625 0.65625 -0.6875q0.40625 -0.296875 0.921875 -0.453125q0.515625 -0.171875 1.09375 -0.171875q1.375 0 2.15625 0.734375q0.796875 0.734375 0.796875 1.96875l0 4.3125l-1.078125 0l0 -0.96875l-0.046875 0q-0.1875 0.28125 -0.515625 0.5625q-0.3125 0.265625 -0.75 0.4375q-0.421875 0.1875 -0.9375 0.1875zm0.109375 -1.0q0.578125 0 1.0625 -0.296875q0.484375 -0.296875 0.78125 -0.78125q0.296875 -0.5 0.296875 -1.09375q-0.3125 -0.203125 -0.78125 -0.328125q-0.453125 -0.140625 -1.0 -0.140625q-0.96875 0 -1.421875 0.40625q-0.453125 0.390625 -0.453125 0.96875q0 0.5625 0.421875 0.921875q0.4375 0.34375 1.09375 0.34375zm4.7959557 0.78125l0 -6.796875l1.078125 0l0 1.0l0.046875 0q0.265625 -0.5 0.875 -0.859375q0.609375 -0.359375 1.328125 -0.359375q1.25 0 1.875 0.734375q0.640625 0.71875 0.640625 1.921875l0 4.359375l-1.125 0l0 -4.1875q0 -0.984375 -0.484375 -1.390625q-0.46875 -0.40625 -1.21875 -0.40625q-0.546875 0 -0.984375 0.3125q-0.421875 0.3125 -0.671875 0.8125q-0.234375 0.484375 -0.234375 1.03125l0 3.828125l-1.125 0zm13.694168 0.21875q-1.015625 0 -1.8125 -0.484375q-0.78125 -0.484375 -1.234375 -1.296875q-0.4375 -0.828125 -0.4375 -1.84375q0 -1.0 0.4375 -1.8125q0.453125 -0.828125 1.234375 -1.3125q0.796875 -0.484375 1.8125 -0.484375q1.03125 0 1.8125 0.5q0.796875 0.484375 1.234375 1.3125q0.453125 0.8125 0.453125 1.796875q0 1.015625 -0.453125 1.84375q-0.4375 0.8125 -1.234375 1.296875q-0.78125 0.484375 -1.8125 0.484375zm0 -1.03125q0.609375 0 1.15625 -0.296875q0.546875 -0.3125 0.875 -0.890625q0.328125 -0.578125 0.328125 -1.40625q0 -0.8125 -0.328125 -1.390625q-0.328125 -0.578125 -0.875 -0.875q-0.546875 -0.3125 -1.15625 -0.3125q-0.609375 0 -1.15625 0.3125q-0.546875 0.296875 -0.890625 0.875q-0.328125 0.578125 -0.328125 1.390625q0 0.828125 0.328125 1.40625q0.34375 0.578125 0.890625 0.890625q0.546875 0.296875 1.15625 0.296875zm8.204987 1.03125q-0.546875 0 -1.0 -0.1875q-0.453125 -0.171875 -0.796875 -0.4375q-0.34375 -0.28125 -0.53125 -0.59375l-0.046875 0l0 1.0l-1.078125 0l0 -9.546875l1.125 0l0 2.8125l-0.046875 0.953125l0.046875 0q0.1875 -0.328125 0.53125 -0.59375q0.34375 -0.28125 0.796875 -0.453125q0.453125 -0.1875 1.0 -0.1875q0.921875 0 1.65625 0.46875q0.734375 0.46875 1.15625 1.28125q0.4375 0.8125 0.4375 1.859375q0 1.0625 -0.4375 1.875q-0.421875 0.8125 -1.15625 1.28125q-0.734375 0.46875 -1.65625 0.46875zm-0.125 -1.03125q0.59375 0 1.09375 -0.3125q0.515625 -0.3125 0.828125 -0.890625q0.3125 -0.59375 0.3125 -1.390625q0 -0.796875 -0.3125 -1.375q-0.3125 -0.578125 -0.828125 -0.890625q-0.5 -0.3125 -1.09375 -0.3125q-0.59375 0 -1.109375 0.3125q-0.5 0.3125 -0.828125 0.890625q-0.3125 0.578125 -0.3125 1.375q0 0.8125 0.3125 1.390625q0.328125 0.578125 0.828125 0.890625q0.515625 0.3125 1.109375 0.3125zm3.988083 3.828125q-0.1875 0 -0.328125 -0.03125q-0.15625 -0.03125 -0.28125 -0.0625l0 -1.078125q0.109375 0.046875 0.28125 0.09375q0.15625 0.046875 0.28125 0.046875q0.4375 0 0.609375 -0.265625q0.1875 -0.265625 0.1875 -0.765625l0 -7.75l1.125 0l0 7.75q0 0.71875 -0.234375 1.171875q-0.234375 0.453125 -0.65625 0.671875q-0.421875 0.21875 -0.984375 0.21875zm1.296875 -11.0625q-0.328125 0 -0.578125 -0.234375q-0.234375 -0.25 -0.234375 -0.578125q0 -0.34375 0.234375 -0.578125q0.25 -0.234375 0.578125 -0.234375q0.359375 0 0.578125 0.234375q0.234375 0.234375 0.234375 0.578125q0 0.328125 -0.234375 0.578125q-0.21875 0.234375 -0.578125 0.234375zm5.3048553 8.265625q-0.984375 0 -1.75 -0.46875q-0.765625 -0.46875 -1.203125 -1.28125q-0.421875 -0.8125 -0.421875 -1.859375q0 -0.96875 0.40625 -1.796875q0.40625 -0.828125 1.140625 -1.328125q0.734375 -0.5 1.734375 -0.5q1.015625 0 1.734375 0.453125q0.734375 0.4375 1.125 1.234375q0.40625 0.78125 0.40625 1.796875q0 0.09375 -0.015625 0.1875q0 0.09375 -0.015625 0.15625l-5.859375 0l0 -0.9375l4.6875 0q-0.015625 -0.265625 -0.140625 -0.59375q-0.109375 -0.328125 -0.359375 -0.609375q-0.234375 -0.296875 -0.625 -0.46875q-0.375 -0.1875 -0.9375 -0.1875q-0.65625 0 -1.15625 0.34375q-0.484375 0.34375 -0.75 0.9375q-0.25 0.578125 -0.25 1.3125q0 0.875 0.328125 1.453125q0.34375 0.5625 0.859375 0.84375q0.53125 0.28125 1.109375 0.28125q0.75 0 1.234375 -0.34375q0.484375 -0.359375 0.78125 -0.890625l0.953125 0.46875q-0.390625 0.78125 -1.140625 1.296875q-0.75 0.5 -1.875 0.5zm7.6328735 0q-1.0 0 -1.78125 -0.46875q-0.78125 -0.484375 -1.21875 -1.296875q-0.4375 -0.828125 -0.4375 -1.859375q0 -1.03125 0.4375 -1.84375q0.4375 -0.8125 1.21875 -1.28125q0.78125 -0.484375 1.78125 -0.484375q1.140625 0 1.875 0.53125q0.75 0.53125 1.046875 1.359375l-1.015625 0.421875q-0.25 -0.625 -0.75 -0.953125q-0.5 -0.328125 -1.21875 -0.328125q-0.59375 0 -1.109375 0.328125q-0.515625 0.3125 -0.84375 0.890625q-0.3125 0.578125 -0.3125 1.359375q0 0.78125 0.3125 1.375q0.328125 0.578125 0.84375 0.90625q0.515625 0.3125 1.109375 0.3125q0.71875 0 1.234375 -0.328125q0.53125 -0.34375 0.78125 -0.953125l1.015625 0.421875q-0.328125 0.796875 -1.078125 1.34375q-0.75 0.546875 -1.890625 0.546875zm3.6635895 -7.015625l3.984375 0l0 1.03125l-3.984375 0l0 -1.03125zm1.1875 5.015625l0 -6.9375l1.125 0l0 6.65625q0 0.53125 0.21875 0.828125q0.21875 0.28125 0.734375 0.28125q0.21875 0 0.40625 -0.0625q0.1875 -0.0625 0.34375 -0.15625l0 1.109375q-0.171875 0.078125 -0.390625 0.125q-0.203125 0.046875 -0.546875 0.046875q-0.859375 0 -1.375 -0.5q-0.515625 -0.5 -0.515625 -1.390625z" fill-rule="nonzero"/><path fill="#000000" fill-opacity="0.0" d="m204.12862 37.56087l134.89763 0l0 35.559055l-134.89763 0z" fill-rule="evenodd"/><path fill="#000000" d="m213.33174 59.36087l3.625 -9.546875l1.28125 0l3.625 9.546875l-1.25 0l-2.625 -7.125l-0.375 -1.03125l-0.046875 0l-0.375 1.03125l-2.625 7.125l-1.234375 0zm4.125 -2.625l0 -1.0625l2.203125 0l0.390625 1.0625l-2.59375 0zm-2.578125 0l0.375 -1.0625l2.203125 0l0 1.0625l-2.578125 0zm10.39856 2.84375q-0.765625 0 -1.34375 -0.25q-0.578125 -0.25 -0.96875 -0.671875q-0.375 -0.421875 -0.5625 -0.90625l1.015625 -0.453125q0.265625 0.609375 0.765625 0.953125q0.515625 0.328125 1.171875 0.328125q0.625 0 1.046875 -0.25q0.421875 -0.265625 0.421875 -0.75q0 -0.3125 -0.1875 -0.515625q-0.171875 -0.203125 -0.5 -0.34375q-0.328125 -0.15625 -0.8125 -0.28125l-0.828125 -0.203125q-0.484375 -0.140625 -0.90625 -0.375q-0.421875 -0.25 -0.6875 -0.625q-0.25 -0.375 -0.25 -0.921875q0 -0.625 0.359375 -1.0625q0.359375 -0.4375 0.9375 -0.671875q0.59375 -0.234375 1.25 -0.234375q0.59375 0 1.109375 0.171875q0.515625 0.171875 0.890625 0.5q0.390625 0.3125 0.59375 0.796875l-0.984375 0.453125q-0.265625 -0.5 -0.6875 -0.703125q-0.421875 -0.203125 -0.9375 -0.203125q-0.5625 0 -0.984375 0.25q-0.40625 0.25 -0.40625 0.671875q0 0.421875 0.328125 0.640625q0.34375 0.21875 0.84375 0.34375l0.984375 0.25q1.0 0.265625 1.5 0.765625q0.515625 0.5 0.515625 1.21875q0 0.640625 -0.359375 1.109375q-0.359375 0.453125 -0.984375 0.71875q-0.609375 0.25 -1.34375 0.25zm9.193176 0q-0.765625 0 -1.34375 -0.296875q-0.5625 -0.296875 -0.890625 -0.8125q-0.328125 -0.515625 -0.328125 -1.15625q0 -0.75 0.375 -1.265625q0.390625 -0.515625 1.046875 -0.765625q0.65625 -0.265625 1.4375 -0.265625q0.453125 0 0.84375 0.078125q0.390625 0.0625 0.671875 0.171875q0.296875 0.09375 0.4375 0.1875l0 -0.40625q0 -0.78125 -0.546875 -1.234375q-0.546875 -0.453125 -1.328125 -0.453125q-0.5625 0 -1.046875 0.25q-0.484375 0.25 -0.765625 0.6875l-0.859375 -0.640625q0.265625 -0.40625 0.65625 -0.6875q0.40625 -0.296875 0.921875 -0.453125q0.515625 -0.171875 1.09375 -0.171875q1.375 0 2.15625 0.734375q0.796875 0.734375 0.796875 1.96875l0 4.3125l-1.078125 0l0 -0.96875l-0.046875 0q-0.1875 0.28125 -0.515625 0.5625q-0.3125 0.265625 -0.75 0.4375q-0.421875 0.1875 -0.9375 0.1875zm0.109375 -1.0q0.578125 0 1.0625 -0.296875q0.484375 -0.296875 0.78125 -0.78125q0.296875 -0.5 0.296875 -1.09375q-0.3125 -0.203125 -0.78125 -0.328125q-0.453125 -0.140625 -1.0 -0.140625q-0.96875 0 -1.421875 0.40625q-0.453125 0.390625 -0.453125 0.96875q0 0.5625 0.421875 0.921875q0.4375 0.34375 1.09375 0.34375zm4.7959595 0.78125l0 -6.796875l1.078125 0l0 1.0l0.046875 0q0.265625 -0.5 0.875 -0.859375q0.609375 -0.359375 1.328125 -0.359375q1.25 0 1.875 0.734375q0.640625 0.71875 0.640625 1.921875l0 4.359375l-1.125 0l0 -4.1875q0 -0.984375 -0.484375 -1.390625q-0.46875 -0.40625 -1.21875 -0.40625q-0.546875 0 -0.984375 0.3125q-0.421875 0.3125 -0.671875 0.8125q-0.234375 0.484375 -0.234375 1.03125l0 3.828125l-1.125 0zm12.944168 0.21875q-0.765625 0 -1.34375 -0.25q-0.578125 -0.25 -0.96875 -0.671875q-0.375 -0.421875 -0.5625 -0.90625l1.015625 -0.453125q0.265625 0.609375 0.765625 0.953125q0.515625 0.328125 1.171875 0.328125q0.625 0 1.046875 -0.25q0.421875 -0.265625 0.421875 -0.75q0 -0.3125 -0.1875 -0.515625q-0.171875 -0.203125 -0.5 -0.34375q-0.328125 -0.15625 -0.8125 -0.28125l-0.828125 -0.203125q-0.484375 -0.140625 -0.90625 -0.375q-0.421875 -0.25 -0.6875 -0.625q-0.25 -0.375 -0.25 -0.921875q0 -0.625 0.359375 -1.0625q0.359375 -0.4375 0.9375 -0.671875q0.59375 -0.234375 1.25 -0.234375q0.59375 0 1.109375 0.171875q0.515625 0.171875 0.890625 0.5q0.390625 0.3125 0.59375 0.796875l-0.984375 0.453125q-0.265625 -0.5 -0.6875 -0.703125q-0.421875 -0.203125 -0.9375 -0.203125q-0.5625 0 -0.984375 0.25q-0.40625 0.25 -0.40625 0.671875q0 0.421875 0.328125 0.640625q0.34375 0.21875 0.84375 0.34375l0.984375 0.25q1.0 0.265625 1.5 0.765625q0.515625 0.5 0.515625 1.21875q0 0.640625 -0.359375 1.109375q-0.359375 0.453125 -0.984375 0.71875q-0.609375 0.25 -1.34375 0.25zm5.8666687 2.3125q-0.03125 0.09375 -0.09375 0.203125q-0.046875 0.125 -0.0625 0.140625l-1.171875 0q0.078125 -0.171875 0.171875 -0.375q0.09375 -0.203125 0.234375 -0.5q0.078125 -0.171875 0.140625 -0.328125q0.0625 -0.140625 0.140625 -0.328125q0.09375 -0.171875 0.21875 -0.4375l0.9375 -2.03125l0.25 -0.625l2.046875 -5.046875l1.234375 0l-3.515625 8.109375q-0.0625 0.125 -0.171875 0.375q-0.109375 0.265625 -0.21875 0.515625q-0.09375 0.25 -0.140625 0.328125zm0.25 -2.8125l-2.8749847 -6.515625l1.2343597 0l2.125 5.046875l0.109375 0l-0.59375 1.46875zm4.783081 0.28125l0 -6.796875l1.078125 0l0 1.0l0.046875 0q0.1875 -0.328125 0.515625 -0.59375q0.328125 -0.28125 0.75 -0.453125q0.421875 -0.171875 0.859375 -0.171875q0.75 0 1.296875 0.375q0.546875 0.359375 0.796875 0.953125q0.34375 -0.578125 0.921875 -0.953125q0.59375 -0.375 1.40625 -0.375q1.21875 0 1.78125 0.734375q0.578125 0.734375 0.578125 1.921875l0 4.359375l-1.125 0l0 -4.1875q0 -0.984375 -0.40625 -1.390625q-0.390625 -0.40625 -1.125 -0.40625q-0.515625 0 -0.921875 0.296875q-0.40625 0.296875 -0.640625 0.796875q-0.234375 0.484375 -0.234375 1.046875l0 3.84375l-1.125 0l0 -4.171875q0 -0.984375 -0.40625 -1.390625q-0.40625 -0.421875 -1.125 -0.421875q-0.515625 0 -0.921875 0.3125q-0.40625 0.296875 -0.640625 0.796875q-0.234375 0.484375 -0.234375 1.0625l0 3.8125l-1.125 0zm15.115204 0.21875q-0.546875 0 -1.0 -0.1875q-0.453125 -0.171875 -0.796875 -0.4375q-0.34375 -0.28125 -0.53125 -0.59375l-0.046875 0l0 1.0l-1.078125 0l0 -9.546875l1.125 0l0 2.8125l-0.046875 0.953125l0.046875 0q0.1875 -0.328125 0.53125 -0.59375q0.34375 -0.28125 0.796875 -0.453125q0.453125 -0.1875 1.0 -0.1875q0.921875 0 1.65625 0.46875q0.734375 0.46875 1.15625 1.28125q0.4375 0.8125 0.4375 1.859375q0 1.0625 -0.4375 1.875q-0.421875 0.8125 -1.15625 1.28125q-0.734375 0.46875 -1.65625 0.46875zm-0.125 -1.03125q0.59375 0 1.09375 -0.3125q0.515625 -0.3125 0.828125 -0.890625q0.3125 -0.59375 0.3125 -1.390625q0 -0.796875 -0.3125 -1.375q-0.3125 -0.578125 -0.828125 -0.890625q-0.5 -0.3125 -1.09375 -0.3125q-0.59375 0 -1.109375 0.3125q-0.5 0.3125 -0.828125 0.890625q-0.3125 0.578125 -0.3125 1.375q0 0.8125 0.3125 1.390625q0.328125 0.578125 0.828125 0.890625q0.515625 0.3125 1.109375 0.3125zm7.8203735 1.03125q-1.015625 0 -1.8125 -0.484375q-0.78125 -0.484375 -1.234375 -1.296875q-0.4375 -0.828125 -0.4375 -1.84375q0 -1.0 0.4375 -1.8125q0.453125 -0.828125 1.234375 -1.3125q0.796875 -0.484375 1.8125 -0.484375q1.03125 0 1.8125 0.5q0.796875 0.484375 1.234375 1.3125q0.453125 0.8125 0.453125 1.796875q0 1.015625 -0.453125 1.84375q-0.4375 0.8125 -1.234375 1.296875q-0.78125 0.484375 -1.8125 0.484375zm0 -1.03125q0.609375 0 1.15625 -0.296875q0.546875 -0.3125 0.875 -0.890625q0.328125 -0.578125 0.328125 -1.40625q0 -0.8125 -0.328125 -1.390625q-0.328125 -0.578125 -0.875 -0.875q-0.546875 -0.3125 -1.15625 -0.3125q-0.609375 0 -1.15625 0.3125q-0.546875 0.296875 -0.890625 0.875q-0.328125 0.578125 -0.328125 1.390625q0 0.828125 0.328125 1.40625q0.34375 0.578125 0.890625 0.890625q0.546875 0.296875 1.15625 0.296875zm4.7518616 0.8125l0 -9.546875l1.125 0l0 9.546875l-1.125 0z" fill-rule="nonzero"/><path fill="#000000" fill-opacity="0.0" d="m40.144356 357.60892l282.86615 0l0 35.55905l-282.86615 0z" fill-rule="evenodd"/><path fill="#000000" d="m49.59748 379.40894l1.6875 -9.546875l1.125 0l-1.5 8.46875l4.1875 0l-0.203125 1.078125l-5.296875 0zm9.688782 0.21875q-0.921875 0 -1.609375 -0.4375q-0.6875 -0.4375 -1.078125 -1.171875q-0.375 -0.734375 -0.375 -1.640625q0 -0.828125 0.28125 -1.546875q0.28125 -0.71875 0.78125 -1.265625q0.515625 -0.546875 1.234375 -0.859375q0.734375 -0.3125 1.625 -0.3125q0.9375 0 1.625 0.4375q0.6875 0.4375 1.0625 1.171875q0.390625 0.734375 0.390625 1.640625q0 0.8125 -0.28125 1.546875q-0.28125 0.71875 -0.796875 1.265625q-0.515625 0.546875 -1.25 0.859375q-0.71875 0.3125 -1.609375 0.3125zm0.140625 -1.03125q0.59375 0 1.078125 -0.21875q0.484375 -0.234375 0.828125 -0.625q0.359375 -0.40625 0.546875 -0.9375q0.1875 -0.53125 0.1875 -1.109375q0 -0.65625 -0.25 -1.171875q-0.25 -0.515625 -0.71875 -0.8125q-0.453125 -0.296875 -1.078125 -0.296875q-0.78125 0 -1.390625 0.40625q-0.59375 0.390625 -0.9375 1.046875q-0.328125 0.65625 -0.328125 1.4375q0 0.65625 0.25 1.171875q0.265625 0.515625 0.71875 0.8125q0.453125 0.296875 1.09375 0.296875zm7.0239563 3.90625q-0.8125 0 -1.390625 -0.296875q-0.578125 -0.296875 -0.90625 -0.734375q-0.328125 -0.4375 -0.421875 -0.875l1.09375 -0.4375q0.078125 0.359375 0.296875 0.65625q0.234375 0.296875 0.59375 0.46875q0.375 0.1875 0.890625 0.1875q0.703125 0 1.234375 -0.28125q0.546875 -0.28125 0.890625 -0.8125q0.34375 -0.53125 0.46875 -1.25l0.140625 -0.75l-0.0625 0q-0.375 0.53125 -0.9375 0.859375q-0.5625 0.3125 -1.46875 0.3125q-0.765625 0 -1.390625 -0.375q-0.609375 -0.390625 -0.984375 -1.078125q-0.359375 -0.6875 -0.359375 -1.609375q0 -0.796875 0.265625 -1.53125q0.265625 -0.734375 0.765625 -1.3125q0.515625 -0.578125 1.21875 -0.90625q0.703125 -0.34375 1.59375 -0.34375q0.53125 0 0.953125 0.171875q0.4375 0.15625 0.734375 0.421875q0.3125 0.265625 0.46875 0.59375l0.046875 0l0.171875 -0.96875l1.078125 0l-1.15625 6.578125q-0.203125 1.171875 -0.75 1.890625q-0.53125 0.734375 -1.328125 1.078125q-0.78125 0.34375 -1.75 0.34375zm0.65625 -3.984375q0.796875 0 1.40625 -0.421875q0.609375 -0.421875 0.953125 -1.109375q0.34375 -0.6875 0.34375 -1.453125q0 -0.984375 -0.53125 -1.546875q-0.53125 -0.5625 -1.3125 -0.5625q-0.609375 0 -1.109375 0.234375q-0.5 0.234375 -0.859375 0.65625q-0.359375 0.40625 -0.546875 0.953125q-0.171875 0.546875 -0.171875 1.171875q0 1.0 0.53125 1.546875q0.53125 0.53125 1.296875 0.53125zm4.8787384 0.890625l1.1875 -6.796875l1.140625 0l-1.203125 6.796875l-1.125 0zm2.140625 -8.046875q-0.34375 0 -0.578125 -0.234375q-0.234375 -0.25 -0.234375 -0.578125q0 -0.34375 0.234375 -0.578125q0.234375 -0.234375 0.578125 -0.234375q0.34375 0 0.578125 0.234375q0.234375 0.234375 0.234375 0.578125q0 0.328125 -0.234375 0.578125q-0.234375 0.234375 -0.578125 0.234375zm3.8673553 8.265625q-0.890625 0 -1.5625 -0.4375q-0.65625 -0.4375 -1.03125 -1.15625q-0.359375 -0.71875 -0.359375 -1.546875q0 -0.84375 0.296875 -1.578125q0.296875 -0.75 0.8125 -1.3125q0.53125 -0.5625 1.25 -0.875q0.734375 -0.328125 1.609375 -0.328125q0.796875 0 1.34375 0.28125q0.546875 0.265625 0.890625 0.703125q0.34375 0.4375 0.46875 0.90625l-1.046875 0.40625q-0.125 -0.390625 -0.359375 -0.671875q-0.234375 -0.28125 -0.59375 -0.4375q-0.359375 -0.15625 -0.828125 -0.15625q-0.734375 0 -1.359375 0.390625q-0.609375 0.375 -0.96875 1.0625q-0.359375 0.671875 -0.359375 1.53125q0 0.59375 0.234375 1.09375q0.25 0.5 0.6875 0.796875q0.4375 0.296875 1.046875 0.296875q0.46875 0 0.859375 -0.15625q0.40625 -0.171875 0.71875 -0.453125q0.328125 -0.28125 0.53125 -0.6875l0.90625 0.4375q-0.53125 0.953125 -1.296875 1.421875q-0.75 0.46875 -1.890625 0.46875zm6.3708496 -0.015625q-0.59375 0 -1.109375 -0.265625q-0.5 -0.28125 -0.8125 -0.75q-0.296875 -0.46875 -0.296875 -1.0625q0 -0.75 0.375 -1.3125q0.375 -0.5625 1.0625 -0.859375q0.703125 -0.3125 1.6875 -0.3125q0.359375 0 0.71875 0.0625q0.359375 0.0625 0.671875 0.171875q0.3125 0.09375 0.5625 0.234375l0.09375 -0.46875q0.109375 -0.5 -0.109375 -0.875q-0.203125 -0.375 -0.59375 -0.578125q-0.390625 -0.203125 -0.890625 -0.203125q-0.5625 0 -1.03125 0.21875q-0.46875 0.21875 -0.84375 0.6875l-0.875 -0.625q0.46875 -0.609375 1.203125 -0.953125q0.75 -0.34375 1.6875 -0.34375q0.890625 0 1.5 0.34375q0.625 0.34375 0.890625 0.953125q0.265625 0.609375 0.125 1.4375l-0.765625 4.28125l-1.078125 0l0.171875 -0.953125l-0.0625 0q-0.21875 0.328125 -0.5625 0.59375q-0.34375 0.265625 -0.765625 0.421875q-0.421875 0.15625 -0.953125 0.15625zm0.265625 -0.984375q0.609375 0 1.109375 -0.28125q0.515625 -0.28125 0.859375 -0.765625q0.359375 -0.5 0.46875 -1.125q-0.25 -0.15625 -0.515625 -0.25q-0.25 -0.109375 -0.578125 -0.171875q-0.328125 -0.0625 -0.78125 -0.0625q-0.8125 0 -1.359375 0.390625q-0.53125 0.375 -0.53125 1.09375q0 0.546875 0.390625 0.859375q0.390625 0.3125 0.9375 0.3125zm4.5615845 0.78125l1.6875 -9.546875l1.109375 0l-1.671875 9.546875l-1.125 0zm5.811035 0l1.6875 -9.546875l1.109375 0l-1.671875 9.546875l-1.125 0zm5.0088806 0.203125q-0.59375 0 -1.109375 -0.265625q-0.5 -0.28125 -0.8125 -0.75q-0.296875 -0.46875 -0.296875 -1.0625q0 -0.75 0.375 -1.3125q0.375 -0.5625 1.0625 -0.859375q0.703125 -0.3125 1.6875 -0.3125q0.359375 0 0.71875 0.0625q0.359375 0.0625 0.671875 0.171875q0.3125 0.09375 0.5625 0.234375l0.09375 -0.46875q0.109375 -0.5 -0.109375 -0.875q-0.203125 -0.375 -0.59375 -0.578125q-0.390625 -0.203125 -0.890625 -0.203125q-0.5625 0 -1.03125 0.21875q-0.46875 0.21875 -0.84375 0.6875l-0.875 -0.625q0.46875 -0.609375 1.203125 -0.953125q0.75 -0.34375 1.6875 -0.34375q0.890625 0 1.5 0.34375q0.625 0.34375 0.890625 0.953125q0.265625 0.609375 0.125 1.4375l-0.765625 4.28125l-1.078125 0l0.171875 -0.953125l-0.0625 0q-0.21875 0.328125 -0.5625 0.59375q-0.34375 0.265625 -0.765625 0.421875q-0.421875 0.15625 -0.953125 0.15625zm0.265625 -0.984375q0.609375 0 1.109375 -0.28125q0.515625 -0.28125 0.859375 -0.765625q0.359375 -0.5 0.46875 -1.125q-0.25 -0.15625 -0.515625 -0.25q-0.25 -0.109375 -0.578125 -0.171875q-0.328125 -0.0625 -0.78125 -0.0625q-0.8125 0 -1.359375 0.390625q-0.53125 0.375 -0.53125 1.09375q0 0.546875 0.390625 0.859375q0.390625 0.3125 0.9375 0.3125zm6.053253 2.984375q-0.140625 0.25 -0.25 0.421875q-0.109375 0.171875 -0.15625 0.25l-1.203125 0q0.046875 -0.078125 0.140625 -0.234375q0.09375 -0.140625 0.203125 -0.3125q0.109375 -0.15625 0.15625 -0.25q0.09375 -0.140625 0.21875 -0.328125q0.125 -0.171875 0.421875 -0.640625l1.046875 -1.65625l0.71875 -1.203125l2.953125 -5.046875l1.265625 0l-5.03125 8.21875q-0.03125 0.046875 -0.109375 0.15625q-0.0625 0.125 -0.171875 0.28125q-0.09375 0.171875 -0.203125 0.34375zm0.65625 -2.09375l-1.84375 -6.90625l1.1875 0l1.265625 5.046875l0.546875 0l-1.15625 1.859375zm7.610626 0.109375q-0.921875 0 -1.609375 -0.4375q-0.6875 -0.4375 -1.078125 -1.171875q-0.375 -0.734375 -0.375 -1.640625q0 -0.828125 0.28125 -1.546875q0.28125 -0.71875 0.78125 -1.265625q0.515625 -0.546875 1.234375 -0.859375q0.734375 -0.3125 1.625 -0.3125q0.9375 0 1.625 0.4375q0.6875 0.4375 1.0625 1.171875q0.390625 0.734375 0.390625 1.640625q0 0.8125 -0.28125 1.546875q-0.28125 0.71875 -0.796875 1.265625q-0.515625 0.546875 -1.25 0.859375q-0.71875 0.3125 -1.609375 0.3125zm0.140625 -1.03125q0.59375 0 1.078125 -0.21875q0.484375 -0.234375 0.828125 -0.625q0.359375 -0.40625 0.546875 -0.9375q0.1875 -0.53125 0.1875 -1.109375q0 -0.65625 -0.25 -1.171875q-0.25 -0.515625 -0.71875 -0.8125q-0.453125 -0.296875 -1.078125 -0.296875q-0.78125 0 -1.390625 0.40625q-0.59375 0.390625 -0.9375 1.046875q-0.328125 0.65625 -0.328125 1.4375q0 0.65625 0.25 1.171875q0.265625 0.515625 0.71875 0.8125q0.453125 0.296875 1.09375 0.296875zm6.9572906 1.03125q-0.796875 0 -1.328125 -0.34375q-0.515625 -0.34375 -0.734375 -0.9375q-0.21875 -0.609375 -0.09375 -1.375l0.78125 -4.359375l1.109375 0l-0.75 4.3125q-0.078125 0.484375 0.046875 0.875q0.140625 0.375 0.46875 0.59375q0.34375 0.203125 0.875 0.203125q0.5625 0 1.03125 -0.28125q0.484375 -0.28125 0.8125 -0.765625q0.328125 -0.484375 0.4375 -1.09375l0.6875 -3.84375l1.109375 0l-1.1875 6.796875l-1.078125 0l0.1875 -0.984375l-0.046875 0q-0.234375 0.328125 -0.578125 0.609375q-0.328125 0.265625 -0.765625 0.421875q-0.4375 0.171875 -0.984375 0.171875zm5.7468414 -7.015625l3.9843826 0l-0.1875 1.03125l-3.9843826 0l0.1875 -1.03125zm0.328125 4.90625l1.2031326 -6.828125l1.125 0l-1.1875 6.703125q-0.09375 0.5 0.078125 0.78125q0.1875 0.28125 0.65625 0.28125q0.234375 0 0.4375 -0.0625q0.203125 -0.0625 0.375 -0.15625l-0.1875 1.109375q-0.203125 0.078125 -0.421875 0.125q-0.203125 0.046875 -0.53125 0.046875q-0.53125 0 -0.921875 -0.234375q-0.390625 -0.234375 -0.5625076 -0.6875q-0.171875 -0.453125 -0.0625 -1.078125zm7.081291 -3.875l0.1875 -1.03125l4.140625 0l-0.171875 1.03125l-4.15625 0zm0.265625 5.765625l1.3125 -7.53125q0.125 -0.671875 0.484375 -1.140625q0.359375 -0.46875 0.890625 -0.71875q0.546875 -0.265625 1.171875 -0.265625q0.328125 0 0.5625 0.046875q0.25 0.046875 0.421875 0.125l-0.203125 1.09375q-0.171875 -0.09375 -0.390625 -0.140625q-0.203125 -0.0625 -0.53125 -0.0625q-0.40625 0 -0.796875 0.296875q-0.390625 0.28125 -0.484375 0.890625l-1.328125 7.40625l-1.109375 0zm7.1357117 0.21875q-0.921875 0 -1.609375 -0.4375q-0.6875 -0.4375 -1.078125 -1.171875q-0.375 -0.734375 -0.375 -1.640625q0 -0.828125 0.28125 -1.546875q0.28125 -0.71875 0.78125 -1.265625q0.515625 -0.546875 1.234375 -0.859375q0.734375 -0.3125 1.625 -0.3125q0.9375 0 1.625 0.4375q0.6875 0.4375 1.0625 1.171875q0.390625 0.734375 0.390625 1.640625q0 0.8125 -0.28125 1.546875q-0.28125 0.71875 -0.796875 1.265625q-0.515625 0.546875 -1.25 0.859375q-0.71875 0.3125 -1.609375 0.3125zm0.140625 -1.03125q0.59375 0 1.078125 -0.21875q0.484375 -0.234375 0.828125 -0.625q0.359375 -0.40625 0.546875 -0.9375q0.1875 -0.53125 0.1875 -1.109375q0 -0.65625 -0.25 -1.171875q-0.25 -0.515625 -0.71875 -0.8125q-0.453125 -0.296875 -1.078125 -0.296875q-0.78125 0 -1.390625 0.40625q-0.59375 0.390625 -0.9375 1.046875q-0.328125 0.65625 -0.328125 1.4375q0 0.65625 0.25 1.171875q0.265625 0.515625 0.71875 0.8125q0.453125 0.296875 1.09375 0.296875zm4.375 0.8125l1.203125 -6.796875l1.0625 0l-0.171875 1.015625l0.0625 0q0.265625 -0.578125 0.890625 -0.890625q0.640625 -0.328125 1.28125 -0.328125q0.3125 0 0.484375 0.03125q0.171875 0.03125 0.3125 0.109375l-0.234375 1.234375q-0.1875 -0.125 -0.4375 -0.171875q-0.25 -0.046875 -0.484375 -0.046875q-0.484375 0 -0.953125 0.28125q-0.453125 0.265625 -0.796875 0.734375q-0.328125 0.46875 -0.421875 1.03125l-0.65625 3.796875l-1.140625 0zm10.2335205 0.203125q-0.59375 0 -1.109375 -0.265625q-0.5 -0.28125 -0.8125 -0.75q-0.296875 -0.46875 -0.296875 -1.0625q0 -0.75 0.375 -1.3125q0.375 -0.5625 1.0625 -0.859375q0.703125 -0.3125 1.6875 -0.3125q0.359375 0 0.71875 0.0625q0.359375 0.0625 0.671875 0.171875q0.3125 0.09375 0.5625 0.234375l0.09375 -0.46875q0.109375 -0.5 -0.109375 -0.875q-0.203125 -0.375 -0.59375 -0.578125q-0.390625 -0.203125 -0.890625 -0.203125q-0.5625 0 -1.03125 0.21875q-0.46875 0.21875 -0.84375 0.6875l-0.875 -0.625q0.46875 -0.609375 1.203125 -0.953125q0.75 -0.34375 1.6875 -0.34375q0.890625 0 1.5 0.34375q0.625 0.34375 0.890625 0.953125q0.265625 0.609375 0.125 1.4375l-0.765625 4.28125l-1.078125 0l0.171875 -0.953125l-0.0625 0q-0.21875 0.328125 -0.5625 0.59375q-0.34375 0.265625 -0.765625 0.421875q-0.421875 0.15625 -0.953125 0.15625zm0.265625 -0.984375q0.609375 0 1.109375 -0.28125q0.515625 -0.28125 0.859375 -0.765625q0.359375 -0.5 0.46875 -1.125q-0.25 -0.15625 -0.515625 -0.25q-0.25 -0.109375 -0.578125 -0.171875q-0.328125 -0.0625 -0.78125 -0.0625q-0.8125 0 -1.359375 0.390625q-0.53125 0.375 -0.53125 1.09375q0 0.546875 0.390625 0.859375q0.390625 0.3125 0.9375 0.3125zm4.5615845 0.78125l1.203125 -6.796875l1.0625 0l-0.171875 1.0l0.0625 0q0.34375 -0.5 0.921875 -0.859375q0.59375 -0.359375 1.40625 -0.359375q0.78125 0 1.3125 0.34375q0.53125 0.328125 0.734375 0.96875q0.21875 0.640625 0.0625 1.546875l-0.734375 4.15625l-1.140625 0l0.765625 -4.265625q0.109375 -0.5625 -0.046875 -0.9375q-0.140625 -0.390625 -0.5 -0.578125q-0.34375 -0.203125 -0.859375 -0.203125q-0.5625 0 -1.03125 0.296875q-0.46875 0.28125 -0.796875 0.765625q-0.328125 0.484375 -0.4375 1.09375l-0.671875 3.828125l-1.140625 0zm13.74379 0.21875q-0.921875 0 -1.609375 -0.4375q-0.6875 -0.4375 -1.078125 -1.171875q-0.375 -0.734375 -0.375 -1.640625q0 -0.828125 0.28125 -1.546875q0.28125 -0.71875 0.78125 -1.265625q0.515625 -0.546875 1.234375 -0.859375q0.734375 -0.3125 1.625 -0.3125q0.9375 0 1.625 0.4375q0.6875 0.4375 1.0625 1.171875q0.390625 0.734375 0.390625 1.640625q0 0.8125 -0.28125 1.546875q-0.28125 0.71875 -0.796875 1.265625q-0.515625 0.546875 -1.25 0.859375q-0.71875 0.3125 -1.609375 0.3125zm0.140625 -1.03125q0.59375 0 1.078125 -0.21875q0.484375 -0.234375 0.828125 -0.625q0.359375 -0.40625 0.546875 -0.9375q0.1875 -0.53125 0.1875 -1.109375q0 -0.65625 -0.25 -1.171875q-0.25 -0.515625 -0.71875 -0.8125q-0.453125 -0.296875 -1.078125 -0.296875q-0.78125 0 -1.390625 0.40625q-0.59375 0.390625 -0.9375 1.046875q-0.328125 0.65625 -0.328125 1.4375q0 0.65625 0.25 1.171875q0.265625 0.515625 0.71875 0.8125q0.453125 0.296875 1.09375 0.296875zm7.9572906 1.03125q-0.765625 0 -1.359375 -0.359375q-0.578125 -0.375 -0.859375 -0.875l-0.046875 0l-0.1875 1.015625l-1.0625 0l1.6875 -9.546875l1.125 0l-0.5 2.8125l-0.21875 0.953125l0.0625 0q0.1875 -0.328125 0.5 -0.59375q0.328125 -0.28125 0.78125 -0.453125q0.46875 -0.1875 1.046875 -0.1875q0.828125 0 1.46875 0.40625q0.640625 0.40625 1.0 1.125q0.375 0.71875 0.375 1.640625q0 0.8125 -0.28125 1.546875q-0.265625 0.71875 -0.78125 1.296875q-0.5 0.5625 -1.203125 0.890625q-0.703125 0.328125 -1.546875 0.328125zm0 -1.03125q0.75 0 1.359375 -0.375q0.609375 -0.390625 0.953125 -1.046875q0.359375 -0.671875 0.359375 -1.53125q0 -0.640625 -0.265625 -1.140625q-0.25 -0.5 -0.703125 -0.78125q-0.453125 -0.296875 -1.046875 -0.296875q-0.734375 0 -1.3125 0.4375q-0.578125 0.421875 -0.921875 1.125q-0.328125 0.6875 -0.328125 1.46875q0 0.671875 0.25 1.15625q0.265625 0.484375 0.6875 0.734375q0.4375 0.25 0.96875 0.25zm3.3051758 3.828125q-0.171875 0 -0.34375 -0.03125q-0.1875 -0.03125 -0.3125 -0.078125l0.1875 -1.046875q0.109375 0.046875 0.265625 0.078125q0.15625 0.046875 0.296875 0.046875q0.421875 0 0.640625 -0.265625q0.21875 -0.25 0.28125 -0.671875l1.390625 -7.84375l1.125 0l-1.390625 7.890625q-0.140625 0.734375 -0.4375 1.15625q-0.296875 0.421875 -0.734375 0.59375q-0.421875 0.171875 -0.96875 0.171875zm3.34375 -11.0625q-0.34375 0 -0.578125 -0.234375q-0.234375 -0.25 -0.234375 -0.578125q0 -0.34375 0.234375 -0.578125q0.234375 -0.234375 0.578125 -0.234375q0.34375 0 0.578125 0.234375q0.234375 0.234375 0.234375 0.578125q0 0.328125 -0.234375 0.578125q-0.234375 0.234375 -0.578125 0.234375zm3.9454803 8.265625q-0.953125 0 -1.640625 -0.421875q-0.671875 -0.4375 -1.046875 -1.140625q-0.359375 -0.703125 -0.359375 -1.5625q0 -0.78125 0.265625 -1.515625q0.28125 -0.75 0.78125 -1.328125q0.5 -0.578125 1.203125 -0.921875q0.71875 -0.34375 1.609375 -0.34375q0.90625 0 1.53125 0.40625q0.640625 0.40625 0.96875 1.046875q0.328125 0.640625 0.328125 1.421875q0 0.234375 -0.03125 0.5q-0.03125 0.265625 -0.09375 0.453125l-5.875 0l0.1875 -0.9375l4.671875 0q0.046875 -0.515625 -0.171875 -0.9375q-0.21875 -0.421875 -0.640625 -0.671875q-0.40625 -0.25 -1.015625 -0.25q-0.765625 0 -1.359375 0.421875q-0.578125 0.421875 -0.890625 1.15625q-0.3125 0.734375 -0.3125 1.640625q0 0.625 0.265625 1.0625q0.28125 0.421875 0.71875 0.65625q0.453125 0.234375 0.953125 0.234375q0.546875 0 0.96875 -0.15625q0.421875 -0.15625 0.734375 -0.4375q0.328125 -0.28125 0.5625 -0.671875l0.859375 0.484375q-0.328125 0.59375 -0.796875 1.0q-0.46875 0.390625 -1.078125 0.59375q-0.59375 0.21875 -1.296875 0.21875zm7.5055695 0q-0.890625 0 -1.5625 -0.4375q-0.65625 -0.4375 -1.03125 -1.15625q-0.359375 -0.71875 -0.359375 -1.546875q0 -0.84375 0.296875 -1.578125q0.296875 -0.75 0.8125 -1.3125q0.53125 -0.5625 1.25 -0.875q0.734375 -0.328125 1.609375 -0.328125q0.796875 0 1.34375 0.28125q0.546875 0.265625 0.890625 0.703125q0.34375 0.4375 0.46875 0.90625l-1.046875 0.40625q-0.125 -0.390625 -0.359375 -0.671875q-0.234375 -0.28125 -0.59375 -0.4375q-0.359375 -0.15625 -0.828125 -0.15625q-0.734375 0 -1.359375 0.390625q-0.609375 0.375 -0.96875 1.0625q-0.359375 0.671875 -0.359375 1.53125q0 0.59375 0.234375 1.09375q0.25 0.5 0.6875 0.796875q0.4375 0.296875 1.046875 0.296875q0.46875 0 0.859375 -0.15625q0.40625 -0.171875 0.71875 -0.453125q0.328125 -0.28125 0.53125 -0.6875l0.90625 0.4375q-0.53125 0.953125 -1.296875 1.421875q-0.75 0.46875 -1.890625 0.46875zm4.8395996 -7.015625l3.984375 0l-0.1875 1.03125l-3.984375 0l0.1875 -1.03125zm0.328125 4.90625l1.203125 -6.828125l1.125 0l-1.1875 6.703125q-0.09375 0.5 0.078125 0.78125q0.1875 0.28125 0.65625 0.28125q0.234375 0 0.4375 -0.0625q0.203125 -0.0625 0.375 -0.15625l-0.1875 1.109375q-0.203125 0.078125 -0.421875 0.125q-0.203125 0.046875 -0.53125 0.046875q-0.53125 0 -0.921875 -0.234375q-0.390625 -0.234375 -0.5625 -0.6875q-0.171875 -0.453125 -0.0625 -1.078125zm10.097946 2.109375q-0.921875 0 -1.609375 -0.4375q-0.6875 -0.4375 -1.078125 -1.171875q-0.375 -0.734375 -0.375 -1.640625q0 -0.828125 0.28125 -1.546875q0.28125 -0.71875 0.78125 -1.265625q0.515625 -0.546875 1.234375 -0.859375q0.734375 -0.3125 1.625 -0.3125q0.9375 0 1.625 0.4375q0.6875 0.4375 1.0625 1.171875q0.390625 0.734375 0.390625 1.640625q0 0.8125 -0.28125 1.546875q-0.28125 0.71875 -0.796875 1.265625q-0.515625 0.546875 -1.25 0.859375q-0.71875 0.3125 -1.609375 0.3125zm0.140625 -1.03125q0.59375 0 1.078125 -0.21875q0.484375 -0.234375 0.828125 -0.625q0.359375 -0.40625 0.546875 -0.9375q0.1875 -0.53125 0.1875 -1.109375q0 -0.65625 -0.25 -1.171875q-0.25 -0.515625 -0.71875 -0.8125q-0.453125 -0.296875 -1.078125 -0.296875q-0.78125 0 -1.390625 0.40625q-0.59375 0.390625 -0.9375 1.046875q-0.328125 0.65625 -0.328125 1.4375q0 0.65625 0.25 1.171875q0.265625 0.515625 0.71875 0.8125q0.453125 0.296875 1.09375 0.296875zm4.8395844 -4.953125l0.1875 -1.03125l4.140625 0l-0.171875 1.03125l-4.15625 0zm0.265625 5.765625l1.3125 -7.53125q0.125 -0.671875 0.484375 -1.140625q0.359375 -0.46875 0.890625 -0.71875q0.546875 -0.265625 1.171875 -0.265625q0.328125 0 0.5625 0.046875q0.25 0.046875 0.421875 0.125l-0.203125 1.09375q-0.171875 -0.09375 -0.390625 -0.140625q-0.203125 -0.0625 -0.53125 -0.0625q-0.40625 0 -0.796875 0.296875q-0.390625 0.28125 -0.484375 0.890625l-1.328125 7.40625l-1.109375 0zm10.409531 0.21875q-0.890625 0 -1.5625 -0.4375q-0.65625 -0.4375 -1.03125 -1.15625q-0.359375 -0.71875 -0.359375 -1.546875q0 -0.84375 0.296875 -1.578125q0.296875 -0.75 0.8125 -1.3125q0.53125 -0.5625 1.25 -0.875q0.734375 -0.328125 1.609375 -0.328125q0.796875 0 1.34375 0.28125q0.546875 0.265625 0.890625 0.703125q0.34375 0.4375 0.46875 0.90625l-1.046875 0.40625q-0.125 -0.390625 -0.359375 -0.671875q-0.234375 -0.28125 -0.59375 -0.4375q-0.359375 -0.15625 -0.828125 -0.15625q-0.734375 0 -1.359375 0.390625q-0.609375 0.375 -0.96875 1.0625q-0.359375 0.671875 -0.359375 1.53125q0 0.59375 0.234375 1.09375q0.25 0.5 0.6875 0.796875q0.4375 0.296875 1.046875 0.296875q0.46875 0 0.859375 -0.15625q0.40625 -0.171875 0.71875 -0.453125q0.328125 -0.28125 0.53125 -0.6875l0.90625 0.4375q-0.53125 0.953125 -1.296875 1.421875q-0.75 0.46875 -1.890625 0.46875zm4.1875153 -0.21875l1.6875 -9.546875l1.109375 0l-1.671875 9.546875l-1.125 0zm5.0088806 0.203125q-0.59375 0 -1.109375 -0.265625q-0.5 -0.28125 -0.8125 -0.75q-0.296875 -0.46875 -0.296875 -1.0625q0 -0.75 0.375 -1.3125q0.375 -0.5625 1.0625 -0.859375q0.703125 -0.3125 1.6875 -0.3125q0.359375 0 0.71875 0.0625q0.359375 0.0625 0.671875 0.171875q0.3125 0.09375 0.5625 0.234375l0.09375 -0.46875q0.109375 -0.5 -0.109375 -0.875q-0.203125 -0.375 -0.59375 -0.578125q-0.390625 -0.203125 -0.890625 -0.203125q-0.5625 0 -1.03125 0.21875q-0.46875 0.21875 -0.84375 0.6875l-0.875 -0.625q0.46875 -0.609375 1.203125 -0.953125q0.75 -0.34375 1.6875 -0.34375q0.890625 0 1.5 0.34375q0.625 0.34375 0.890625 0.953125q0.265625 0.609375 0.125 1.4375l-0.765625 4.28125l-1.078125 0l0.171875 -0.953125l-0.0625 0q-0.21875 0.328125 -0.5625 0.59375q-0.34375 0.265625 -0.765625 0.421875q-0.421875 0.15625 -0.953125 0.15625zm0.265625 -0.984375q0.609375 0 1.109375 -0.28125q0.515625 -0.28125 0.859375 -0.765625q0.359375 -0.5 0.46875 -1.125q-0.25 -0.15625 -0.515625 -0.25q-0.25 -0.109375 -0.578125 -0.171875q-0.328125 -0.0625 -0.78125 -0.0625q-0.8125 0 -1.359375 0.390625q-0.53125 0.375 -0.53125 1.09375q0 0.546875 0.390625 0.859375q0.390625 0.3125 0.9375 0.3125zm7.026169 1.0q-0.734375 0 -1.296875 -0.25q-0.5625 -0.25 -0.921875 -0.671875q-0.34375 -0.4375 -0.5 -0.953125l1.078125 -0.421875q0.09375 0.40625 0.359375 0.703125q0.265625 0.296875 0.625 0.453125q0.375 0.140625 0.765625 0.140625q0.65625 0 1.078125 -0.3125q0.421875 -0.3125 0.421875 -0.765625q0 -0.4375 -0.28125 -0.703125q-0.28125 -0.265625 -0.875 -0.40625l-0.671875 -0.171875q-0.515625 -0.140625 -0.921875 -0.375q-0.390625 -0.25 -0.625 -0.609375q-0.21875 -0.359375 -0.21875 -0.828125q0 -0.59375 0.34375 -1.046875q0.34375 -0.46875 0.9375 -0.734375q0.609375 -0.28125 1.390625 -0.28125q0.609375 0 1.125 0.203125q0.515625 0.1875 0.875 0.53125q0.359375 0.34375 0.5 0.8125l-1.078125 0.421875q-0.15625 -0.4375 -0.546875 -0.6875q-0.390625 -0.265625 -0.9375 -0.265625q-0.640625 0 -1.046875 0.265625q-0.390625 0.265625 -0.390625 0.703125q0 0.1875 0.109375 0.375q0.125 0.171875 0.34375 0.3125q0.21875 0.125 0.53125 0.21875l0.890625 0.234375q0.53125 0.125 0.90625 0.40625q0.375 0.265625 0.59375 0.640625q0.21875 0.359375 0.21875 0.84375q0 0.65625 -0.328125 1.15625q-0.328125 0.5 -0.953125 0.78125q-0.609375 0.28125 -1.5 0.28125zm6.2375336 0q-0.734375 0 -1.296875 -0.25q-0.5625 -0.25 -0.921875 -0.671875q-0.34375 -0.4375 -0.5 -0.953125l1.078125 -0.421875q0.09375 0.40625 0.359375 0.703125q0.265625 0.296875 0.625 0.453125q0.375 0.140625 0.765625 0.140625q0.65625 0 1.078125 -0.3125q0.421875 -0.3125 0.421875 -0.765625q0 -0.4375 -0.28125 -0.703125q-0.28125 -0.265625 -0.875 -0.40625l-0.671875 -0.171875q-0.515625 -0.140625 -0.921875 -0.375q-0.390625 -0.25 -0.625 -0.609375q-0.21875 -0.359375 -0.21875 -0.828125q0 -0.59375 0.34375 -1.046875q0.34375 -0.46875 0.9375 -0.734375q0.609375 -0.28125 1.390625 -0.28125q0.609375 0 1.125 0.203125q0.515625 0.1875 0.875 0.53125q0.359375 0.34375 0.5 0.8125l-1.078125 0.421875q-0.15625 -0.4375 -0.546875 -0.6875q-0.390625 -0.265625 -0.9375 -0.265625q-0.640625 0 -1.046875 0.265625q-0.390625 0.265625 -0.390625 0.703125q0 0.1875 0.109375 0.375q0.125 0.171875 0.34375 0.3125q0.21875 0.125 0.53125 0.21875l0.890625 0.234375q0.53125 0.125 0.90625 0.40625q0.375 0.265625 0.59375 0.640625q0.21875 0.359375 0.21875 0.84375q0 0.65625 -0.328125 1.15625q-0.328125 0.5 -0.953125 0.78125q-0.609375 0.28125 -1.5 0.28125zm6.8948975 -0.21875l1.6875 -9.546875l5.515625 0l-0.171875 1.078125l-4.40625 0l-1.5 8.46875l-1.125 0zm1.328125 -4.125l0.1875 -1.078125l4.515625 0l-0.1875 1.078125l-4.515625 0zm8.413879 4.34375q-0.921875 0 -1.609375 -0.4375q-0.6875 -0.4375 -1.078125 -1.171875q-0.375 -0.734375 -0.375 -1.640625q0 -0.828125 0.28125 -1.546875q0.28125 -0.71875 0.78125 -1.265625q0.515625 -0.546875 1.234375 -0.859375q0.734375 -0.3125 1.625 -0.3125q0.9375 0 1.625 0.4375q0.6875 0.4375 1.0625 1.171875q0.390625 0.734375 0.390625 1.640625q0 0.8125 -0.28125 1.546875q-0.28125 0.71875 -0.796875 1.265625q-0.515625 0.546875 -1.25 0.859375q-0.71875 0.3125 -1.609375 0.3125zm0.140625 -1.03125q0.59375 0 1.078125 -0.21875q0.484375 -0.234375 0.828125 -0.625q0.359375 -0.40625 0.546875 -0.9375q0.1875 -0.53125 0.1875 -1.109375q0 -0.65625 -0.25 -1.171875q-0.25 -0.515625 -0.71875 -0.8125q-0.453125 -0.296875 -1.078125 -0.296875q-0.78125 0 -1.390625 0.40625q-0.59375 0.390625 -0.9375 1.046875q-0.328125 0.65625 -0.328125 1.4375q0 0.65625 0.25 1.171875q0.265625 0.515625 0.71875 0.8125q0.453125 0.296875 1.09375 0.296875zm7.7895813 1.03125q-0.921875 0 -1.609375 -0.4375q-0.6875 -0.4375 -1.078125 -1.171875q-0.375 -0.734375 -0.375 -1.640625q0 -0.828125 0.28125 -1.546875q0.28125 -0.71875 0.78125 -1.265625q0.515625 -0.546875 1.234375 -0.859375q0.734375 -0.3125 1.625 -0.3125q0.9375 0 1.625 0.4375q0.6875 0.4375 1.0625 1.171875q0.390625 0.734375 0.390625 1.640625q0 0.8125 -0.28125 1.546875q-0.28125 0.71875 -0.796875 1.265625q-0.515625 0.546875 -1.25 0.859375q-0.71875 0.3125 -1.609375 0.3125zm0.140625 -1.03125q0.59375 0 1.078125 -0.21875q0.484375 -0.234375 0.828125 -0.625q0.359375 -0.40625 0.546875 -0.9375q0.1875 -0.53125 0.1875 -1.109375q0 -0.65625 -0.25 -1.171875q-0.25 -0.515625 -0.71875 -0.8125q-0.453125 -0.296875 -1.078125 -0.296875q-0.78125 0 -1.390625 0.40625q-0.59375 0.390625 -0.9375 1.046875q-0.328125 0.65625 -0.328125 1.4375q0 0.65625 0.25 1.171875q0.265625 0.515625 0.71875 0.8125q0.453125 0.296875 1.09375 0.296875z" fill-rule="nonzero"/></g></svg>