<svg width="800" height="700" xmlns="http://www.w3.org/2000/svg" xmlns:xlink="http://www.w3.org/1999/xlink" overflow="hidden"><defs><clipPath id="clip0"><rect x="0" y="0" width="1440" height="1440"/></clipPath></defs><g clip-path="url(#clip0)"><path d="M144 122.483C144 117.246 148.246 113 153.483 113L634.517 113C639.754 113 644 117.246 644 122.483L644 382.517C644 387.754 639.754 392 634.517 392L153.483 392C148.246 392 144 387.754 144 382.517Z" fill="#D9D2E9" fill-rule="evenodd"/><text fill="#0D0D0D" font-family="Arial,Arial_MSFontService,sans-serif" font-weight="400" font-size="12" transform="translate(310 382)">Intelligent Program Foundations</text><path d="M155 138.233C155 132.029 160.029 127 166.233 127L620.767 127C626.971 127 632 132.029 632 138.233L632 239.767C632 245.971 626.971 251 620.767 251L166.233 251C160.029 251 155 245.971 155 239.767Z" stroke="#FFFFFF" stroke-width="2" stroke-linejoin="round" stroke-miterlimit="10" fill="#B4A7D6" fill-rule="evenodd"/><text fill="#0D0D0D" font-family="Arial,Arial_MSFontService,sans-serif" font-weight="400" font-size="12" transform="translate(352.361 240)">DNA Generator</text><path d="M143 408.769C143 403.926 146.926 400 151.769 400L635.231 400C640.074 400 644 403.926 644 408.769L644 649.231C644 654.074 640.074 658 635.231 658L151.769 658C146.926 658 143 654.074 143 649.231Z" fill="#D0E0E3" fill-rule="evenodd"/><text fill="#0D0D0D" font-family="Arial,Arial_MSFontService,sans-serif" font-weight="400" font-size="12" transform="translate(300 648)">Symbolic Object-Oriented Programming</text><path d="M162 420.234C162 417.344 164.344 415 167.234 415L616.766 415C619.656 415 622 417.344 622 420.234L622 563.766C622 566.656 619.656 569 616.766 569L167.234 569C164.344 569 162 566.656 162 563.766Z" stroke="#FFFFFF" stroke-width="2" stroke-linejoin="round" stroke-miterlimit="10" fill="#A2C4C9" fill-rule="evenodd"/><text fill="#0D0D0D" font-family="Arial,Arial_MSFontService,sans-serif" font-weight="400" font-size="12" transform="translate(330.557 560)">Symbolic Object Model</text><path d="M174 493.23C174 491.446 175.446 490 177.23 490L600.77 490C602.554 490 604 491.446 604 493.23L604 527.77C604 529.554 602.554 531 600.77 531L177.23 531C175.446 531 174 529.554 174 527.77Z" stroke="#FFFFFF" stroke-width="2" stroke-linejoin="round" stroke-miterlimit="10" fill="#5197A5" fill-rule="evenodd"/><text fill="#FFFFFF" font-family="Arial,Arial_MSFontService,sans-serif" font-weight="400" font-size="14" transform="translate(268.083 516)">Symbolic type creation (Symbolization)</text><path d="M162 582.308C162 580.481 163.481 579 165.308 579L618.692 579C620.519 579 622 580.481 622 582.308L622 617.692C622 619.519 620.519 621 618.692 621L165.308 621C163.481 621 162 619.519 162 617.692Z" stroke="#FFFFFF" stroke-width="2" stroke-linejoin="round" stroke-miterlimit="10" fill="#5197A5" fill-rule="evenodd"/><text fill="#FFFFFF" font-family="Arial,Arial_MSFontService,sans-serif" font-weight="400" font-size="14" transform="translate(341.557 606)">Symbolic detour</text><path d="M174 433.387C174 431.516 175.516 430 177.387 430L271.613 430C273.484 430 275 431.516 275 433.387L275 469.613C275 471.484 273.484 473 271.613 473L177.387 473C175.516 473 174 471.484 174 469.613Z" stroke="#FFFFFF" stroke-width="2" stroke-linejoin="round" stroke-miterlimit="10" fill="#5197A5" fill-rule="evenodd"/><text fill="#FFFFFF" font-family="Arial,Arial_MSFontService,sans-serif" font-weight="400" font-size="14" transform="translate(196.157 449)">Symbolic <tspan font-size="14" x="-4.33333" y="16">operations</tspan></text><path d="M284 433.387C284 431.516 285.516 430 287.387 430L381.613 430C383.484 430 385 431.516 385 433.387L385 469.613C385 471.484 383.484 473 381.613 473L287.387 473C285.516 473 284 471.484 284 469.613Z" stroke="#FFFFFF" stroke-width="2" stroke-linejoin="round" stroke-miterlimit="10" fill="#5197A5" fill-rule="evenodd"/><text fill="#FFFFFF" font-family="Arial,Arial_MSFontService,sans-serif" font-weight="400" font-size="14" transform="translate(305.957 448)">Symbolic <tspan font-size="14" x="7.83334" y="16">events</tspan></text><path d="M280 140.685C280 139.202 281.202 138 282.685 138L623.315 138C624.798 138 626 139.202 626 140.685L626 214.315C626 215.798 624.798 217 623.315 217L282.685 217C281.202 217 280 215.798 280 214.315Z" stroke="#FFFFFF" stroke-width="2" stroke-linejoin="round" stroke-miterlimit="10" fill="#C9BEE0" fill-rule="evenodd"/><text fill="#0D0D0D" font-family="Arial,Arial_MSFontService,sans-serif" font-weight="400" font-size="12" transform="translate(361.945 209)">Framework for Genetic Algorithms</text><path d="M299 149.623C299 147.622 300.622 146 302.623 146L381.377 146C383.378 146 385 147.622 385 149.623L385 188.377C385 190.378 383.378 192 381.377 192L302.623 192C300.622 192 299 190.378 299 188.377Z" stroke="#FFFFFF" stroke-width="2" stroke-linejoin="round" stroke-miterlimit="10" fill="#7861B7" fill-rule="evenodd"/><text fill="#FFFFFF" font-family="Arial,Arial_MSFontService,sans-serif" font-weight="400" font-size="14" transform="translate(313.044 166)">Evolution <tspan font-size="14" x="4.33334" y="16">process</tspan></text><path d="M396 148.623C396 146.622 397.622 145 399.623 145L509.377 145C511.378 145 513 146.622 513 148.623L513 187.377C513 189.378 511.378 191 509.377 191L399.623 191C397.622 191 396 189.378 396 187.377Z" stroke="#FFFFFF" stroke-width="2" stroke-linejoin="round" stroke-miterlimit="10" fill="#7861B7" fill-rule="evenodd"/><text fill="#FFFFFF" font-family="Arial,Arial_MSFontService,sans-serif" font-weight="400" font-size="14" transform="translate(410.13 165)">Compositional <tspan font-size="14" x="11.7533" y="16">operations</tspan></text><path d="M520 148.623C520 146.622 521.622 145 523.623 145L615.377 145C617.378 145 619 146.622 619 148.623L619 187.377C619 189.378 617.378 191 615.377 191L523.623 191C521.622 191 520 189.378 520 187.377Z" stroke="#FFFFFF" stroke-width="2" stroke-linejoin="round" stroke-miterlimit="10" fill="#7861B7" fill-rule="evenodd"/><text fill="#FFFFFF" font-family="Arial,Arial_MSFontService,sans-serif" font-weight="400" font-size="14" transform="translate(541.167 165)">Symbolic <tspan font-size="14" x="6.24664" y="16">scalars</tspan><tspan fill="#000000" font-size="16" x="-246.963" y="530">The software stack of </tspan><tspan fill="#000000" font-size="16" x="-90.4629" y="530">PyGlove</tspan></text><path d="M144 25.2611C144 18.4895 149.489 13 156.261 13L631.739 13C638.511 13 644 18.4895 644 25.2611L644 92.7389C644 99.5105 638.511 105 631.739 105L156.261 105C149.489 105 144 99.5105 144 92.7389Z" stroke="#FFFFFF" stroke-width="2" stroke-linejoin="round" stroke-miterlimit="10" fill="#C0C9D6" fill-rule="evenodd"/><text fill="#0D0D0D" font-family="Arial,Arial_MSFontService,sans-serif" font-weight="400" font-size="12" transform="translate(320 94)"> Distributed Symbolic Computing</text><path d="M155 277.842C155 272.406 159.406 268 164.842 268L622.158 268C627.594 268 632 272.406 632 277.842L632 345.158C632 350.594 627.594 355 622.158 355L164.842 355C159.406 355 155 350.594 155 345.158Z" stroke="#FFFFFF" stroke-width="2" stroke-linejoin="round" stroke-miterlimit="10" fill="#B4A7D6" fill-rule="evenodd"/><text fill="#0D0D0D" font-family="Arial,Arial_MSFontService,sans-serif" font-weight="400" font-size="12" transform="translate(296.027 345)">Mechanisms for Evolvable Programs</text><path d="M275 285.23C275 283.446 276.446 282 278.23 282L373.77 282C375.554 282 377 283.446 377 285.23L377 319.77C377 321.554 375.554 323 373.77 323L278.23 323C276.446 323 275 321.554 275 319.77Z" stroke="#FFFFFF" stroke-width="2" stroke-linejoin="round" stroke-miterlimit="10" fill="#7861B7" fill-rule="evenodd"/><text fill="#FFFFFF" font-family="Arial,Arial_MSFontService,sans-serif" font-weight="400" font-size="14" transform="translate(299.364 300)">Program <tspan font-size="14" x="1.5" y="16">genome</tspan></text><path d="M494 286.23C494 284.446 495.446 283 497.23 283L617.77 283C619.554 283 621 284.446 621 286.23L621 320.77C621 322.554 619.554 324 617.77 324L497.23 324C495.446 324 494 322.554 494 320.77Z" stroke="#FFFFFF" stroke-width="2" stroke-linejoin="round" stroke-miterlimit="10" fill="#7861B7" fill-rule="evenodd"/><text fill="#FFFFFF" font-family="Arial,Arial_MSFontService,sans-serif" font-weight="400" font-size="14" transform="translate(506.576 301)">Template<tspan font-size="14" x="58.5" y="0">-</tspan><tspan font-size="14" x="63.1667" y="0">based </tspan><tspan font-size="14" x="10.8334" y="16">manipulation</tspan></text><path d="M385 285.23C385 283.446 386.446 282 388.23 282L483.77 282C485.554 282 487 283.446 487 285.23L487 319.77C487 321.554 485.554 323 483.77 323L388.23 323C386.446 323 385 321.554 385 319.77Z" stroke="#FFFFFF" stroke-width="2" stroke-linejoin="round" stroke-miterlimit="10" fill="#7861B7" fill-rule="evenodd"/><text fill="#FFFFFF" font-family="Arial,Arial_MSFontService,sans-serif" font-weight="400" font-size="14" transform="translate(417.391 300)">Hyper <tspan font-size="14" x="-10.9133" y="16">primitives</tspan></text><path d="M311 29.6235C311 27.6223 312.622 26 314.623 26L462.377 26C464.378 26 466 27.6223 466 29.6235L466 68.3765C466 70.3777 464.378 72 462.377 72L314.623 72C312.622 72 311 70.3777 311 68.3765Z" stroke="#FFFFFF" stroke-width="2" stroke-linejoin="round" stroke-miterlimit="10" fill="#2F5597" fill-rule="evenodd"/><text fill="#FFFFFF" font-family="Arial,Arial_MSFontService,sans-serif" font-weight="400" font-size="14" transform="translate(323.859 54)">Distributed Sampling</text><path d="M477 29.6234C477 27.6222 478.622 26 480.623 26L626.377 26C628.378 26 630 27.6222 630 29.6234L630 68.3766C630 70.3777 628.378 72 626.377 72L480.623 72C478.622 72 477 70.3777 477 68.3766Z" stroke="#FFFFFF" stroke-width="2" stroke-linejoin="round" stroke-miterlimit="10" fill="#2F5597" fill-rule="evenodd"/><text fill="#FFFFFF" font-family="Arial,Arial_MSFontService,sans-serif" font-weight="400" font-size="14" transform="translate(488.085 55)">Extensible Backends</text><path d="M165 285.23C165 283.446 166.446 282 168.23 282L262.77 282C264.554 282 266 283.446 266 285.23L266 319.77C266 321.554 264.554 323 262.77 323L168.23 323C166.446 323 165 321.554 165 319.77Z" stroke="#FFFFFF" stroke-width="2" stroke-linejoin="round" stroke-miterlimit="10" fill="#7861B7" fill-rule="evenodd"/><text fill="#FFFFFF" font-family="Arial,Arial_MSFontService,sans-serif" font-weight="400" font-size="14" transform="translate(188.501 300)">Program <tspan font-size="14" x="-2" y="16">genotype</tspan></text><path d="M164 144.223C164 140.786 166.786 138 170.223 138L264.777 138C268.214 138 271 140.786 271 144.223L271 210.777C271 214.214 268.214 217 264.777 217L170.223 217C166.786 217 164 214.214 164 210.777Z" stroke="#FFFFFF" stroke-width="2" stroke-linejoin="round" stroke-miterlimit="10" fill="#7861B7" fill-rule="evenodd"/><text fill="#FFFFFF" font-family="Arial,Arial_MSFontService,sans-serif" font-weight="400" font-size="14" transform="translate(202.791 174)">DNA <tspan font-size="14" x="-16.7467" y="16">Generator</tspan></text><path d="M393 434.387C393 432.516 394.516 431 396.387 431L490.613 431C492.484 431 494 432.516 494 434.387L494 470.613C494 472.484 492.484 474 490.613 474L396.387 474C394.516 474 393 472.484 393 470.613Z" stroke="#FFFFFF" stroke-width="2" stroke-linejoin="round" stroke-miterlimit="10" fill="#5197A5" fill-rule="evenodd"/><text fill="#FFFFFF" font-family="Arial,Arial_MSFontService,sans-serif" font-weight="400" font-size="14" transform="translate(415.17 450)">Symbolic <tspan font-size="14" x="-1.25333" y="16">validation</tspan></text><path d="M503 435.308C503 433.481 504.481 432 506.308 432L600.692 432C602.519 432 604 433.481 604 435.308L604 470.692C604 472.519 602.519 474 600.692 474L506.308 474C504.481 474 503 472.519 503 470.692Z" stroke="#FFFFFF" stroke-width="2" stroke-linejoin="round" stroke-miterlimit="10" fill="#5197A5" fill-rule="evenodd"/><text fill="#FFFFFF" font-family="Arial,Arial_MSFontService,sans-serif" font-weight="400" font-size="14" transform="translate(524.976 450)">Symbolic <tspan font-size="14" x="-11.0867" y="16">placeholding</tspan></text><path d="M155 29.6235C155 27.6223 156.622 26 158.623 26L293.377 26C295.378 26 297 27.6223 297 29.6235L297 68.3765C297 70.3777 295.378 72 293.377 72L158.623 72C156.622 72 155 70.3777 155 68.3765Z" stroke="#FFFFFF" stroke-width="2" stroke-linejoin="round" stroke-miterlimit="10" fill="#2F5597" fill-rule="evenodd"/><text fill="#FFFFFF" font-family="Arial,Arial_MSFontService,sans-serif" font-weight="400" font-size="14" transform="translate(185.844 55)">Symbolic UI</text></g></svg>