<svg version="1.1" viewBox="0.0 0.0 160.0 160.0" fill="none" stroke="none" stroke-linecap="square" stroke-miterlimit="10" xmlns:xlink="http://www.w3.org/1999/xlink" xmlns="http://www.w3.org/2000/svg"><clipPath id="g110df50a621_0_31.0"><path d="m0 0l960.0 0l0 540.0l-960.0 0l0 -540.0z" clip-rule="nonzero"/></clipPath><g clip-path="url(#g110df50a621_0_31.0)"><path fill="#000000" fill-opacity="0.0" d="m0 0l960.0 0l0 540.0l-960.0 0z" fill-rule="evenodd"/><path fill="#1fc098" d="m13.296772 42.703876l98.95276 0l0 109.37796l-98.95276 0z" fill-rule="evenodd"/><path fill="#189979" d="m112.24953 42.703876l32.984253 -32.984253l0 109.37795l-32.984253 32.984253z" fill-rule="evenodd"/><path fill="#4bccac" d="m13.296772 42.703876l32.984253 -32.984253l98.95276 0l-32.984253 32.984253z" fill-rule="evenodd"/><path fill="#000000" fill-opacity="0.0" d="m13.296772 42.703876l32.984253 -32.984253l98.95276 0l0 109.37795l-32.984253 32.984253l-98.95276 0zm0 0l98.95276 0l32.984253 -32.984253m-32.984253 32.984253l0 109.37796" fill-rule="evenodd"/><path stroke="#ffffff" stroke-width="8.0" stroke-linejoin="round" stroke-linecap="butt" d="m13.296772 42.703876l32.984253 -32.984253l98.95276 0l0 109.37795l-32.984253 32.984253l-98.95276 0zm0 0l98.95276 0l32.984253 -32.984253m-32.984253 32.984253l0 109.37796" fill-rule="evenodd"/><path fill="#ffffff" d="m64.71277 132.18161q-7.093746 0 -13.406246 -2.578125q-6.296875 -2.578125 -11.125 -7.171875q-4.828125 -4.59375 -7.546875 -10.890625q-2.703125 -6.3125 -2.703125 -13.765625q0 -7.453125 2.703125 -13.75q2.71875 -6.296875 7.5 -10.890625q4.796875 -4.609375 11.09375 -7.1875q6.296875 -2.5781288 13.484371 -2.5781288q7.90625 0 14.25 2.7656288q6.34375 2.75 10.859375 7.625l-8.5625 8.375q-2.109375 -2.296875 -4.59375 -3.8125q-2.484375 -1.515625 -5.4375 -2.34375q-2.9375 -0.828125 -6.609375 -0.828125q-4.515621 0 -8.515621 1.609375q-4.0 1.609375 -7.09375 4.59375q-3.078125 2.984375 -4.828125 7.125q-1.734375 4.140625 -1.734375 9.296875q0 5.15625 1.734375 9.296875q1.75 4.140625 4.828125 7.125q3.09375 2.984375 7.140625 4.609375q4.046875 1.609375 8.640621 1.609375q4.609375 0 8.1875 -1.28125q3.59375 -1.296875 6.125 -3.5q2.53125 -2.21875 4.046875 -4.921875q1.515625 -2.71875 1.984375 -5.578125l-20.703125 0l0 -10.578125l32.296875 0q0.265625 0.921875 0.453125 2.765625q0.1875 1.828125 0.1875 3.03125l0 0l0 0l0 0q0 7.265625 -2.4375 13.15625q-2.4375 5.890625 -6.8125 10.078125q-4.375 4.1875 -10.359375 6.390625q-5.96875 2.203125 -13.046875 2.203125z" fill-rule="nonzero"/></g></svg>