<svg version="1.1" viewBox="0.0 0.0 320.0 280.0" fill="none" stroke="none" stroke-linecap="square" stroke-miterlimit="10" xmlns:xlink="http://www.w3.org/1999/xlink" xmlns="http://www.w3.org/2000/svg"><clipPath id="g110df50a621_0_21.0"><path d="m0 0l320.0 0l0 280.0l-320.0 0l0 -280.0z" clip-rule="nonzero"/></clipPath><g clip-path="url(#g110df50a621_0_21.0)"><path fill="#000000" d="m0 0l320.0 0l0 280.0l-320.0 0z" fill-rule="evenodd"/><g filter="url(#shadowFilter-g110df50a621_0_21.1)"><use xlink:href="#g110df50a621_0_21.1" transform="matrix(1.0 0.0 0.0 1.0 -2.6242362204724428 -3.018838320209975)"/></g><defs><filter id="shadowFilter-g110df50a621_0_21.1" filterUnits="userSpaceOnUse"><feGaussianBlur in="SourceAlpha" stdDeviation="20.5" result="blur"/><feComponentTransfer in="blur" color-interpolation-filters="sRGB"><feFuncR type="linear" slope="0" intercept="1.0"/><feFuncG type="linear" slope="0" intercept="1.0"/><feFuncB type="linear" slope="0" intercept="1.0"/><feFuncA type="linear" slope="0.73" intercept="0"/></feComponentTransfer></filter></defs><g id="g110df50a621_0_21.1"><path fill="#efefef" d="m48.0 80.98425l98.95276 0l0 109.377945l-98.95276 0z" fill-rule="evenodd"/><path fill="#bfbfbf" d="m146.95276 80.98425l32.984253 -32.984253l0 109.37796l-32.984253 32.984238z" fill-rule="evenodd"/><path fill="#f2f2f2" d="m48.0 80.98425l32.984253 -32.984253l98.95276 0l-32.984253 32.984253z" fill-rule="evenodd"/><path fill="#000000" fill-opacity="0.0" d="m48.0 80.98425l32.984253 -32.984253l98.95276 0l0 109.37796l-32.984253 32.984238l-98.95276 0zm0 0l98.95276 0l32.984253 -32.984253m-32.984253 32.984253l0 109.377945" fill-rule="evenodd"/><path stroke="#ffffff" stroke-width="8.0" stroke-linejoin="round" stroke-linecap="butt" d="m48.0 80.98425l32.984253 -32.984253l98.95276 0l0 109.37796l-32.984253 32.984238l-98.95276 0zm0 0l98.95276 0l32.984253 -32.984253m-32.984253 32.984253l0 109.377945" fill-rule="evenodd"/><path fill="#000000" d="m76.96325 168.99323l0 -65.87499l23.1875 0q6.34375 0 11.40625 2.625q5.0625 2.625 8.046875 7.3125q2.984375 4.6875 2.984375 10.859375q0 6.1562424 -2.984375 10.906242q-2.984375 4.734375 -8.046875 7.359375q-5.0625 2.609375 -11.40625 2.609375l-16.296875 0l0 -11.765625l16.65625 0q3.21875 0 5.421875 -1.28125q2.21875 -1.296875 3.3125 -3.359375q1.109375 -2.0781174 1.109375 -4.4687424q0 -2.390625 -1.109375 -4.40625q-1.09375 -2.03125 -3.3125 -3.3125q-2.203125 -1.296875 -5.421875 -1.296875l-11.125 0l0 54.093742l-12.421875 0z" fill-rule="nonzero"/></g><g filter="url(#shadowFilter-g110df50a621_0_21.2)"><use xlink:href="#g110df50a621_0_21.2" transform=""/></g><defs><filter id="shadowFilter-g110df50a621_0_21.2" filterUnits="userSpaceOnUse"><feGaussianBlur in="SourceAlpha" stdDeviation="13.0" result="blur"/><feComponentTransfer in="blur" color-interpolation-filters="sRGB"><feFuncR type="linear" slope="0" intercept="1.0"/><feFuncG type="linear" slope="0" intercept="0.6"/><feFuncB type="linear" slope="0" intercept="0.0"/><feFuncA type="linear" slope="0.5" intercept="0"/></feComponentTransfer></filter></defs><g id="g110df50a621_0_21.2"><path fill="#ffffff" d="m209.38795 143.19247l0 0c-2.675583 0 -4.844574 4.2167053 -4.844574 9.418289c0 5.2015686 2.168991 9.418274 4.844574 9.418274l-9.689148 0c-2.675583 0 -4.844574 -4.2167053 -4.844574 -9.418274c0 -5.201584 2.168991 -9.418289 4.844574 -9.418289z" fill-rule="evenodd"/><path fill="#ffffff" d="m209.38795 143.19247l0 0c2.675583 0 4.844574 4.2167053 4.844574 9.418289c0 5.2015686 -2.168991 9.418274 -4.844574 9.418274l0 0c-2.675583 0 -4.844574 -4.2167053 -4.844574 -9.418274c0 -5.201584 2.168991 -9.418289 4.844574 -9.418289z" fill-rule="evenodd"/><path fill="#000000" fill-opacity="0.0" d="m209.38795 162.02904l0 0c-2.675583 0 -4.844574 -4.2167053 -4.844574 -9.418274c0 -5.201584 2.168991 -9.418289 4.844574 -9.418289l0 0c2.675583 0 4.844574 4.2167053 4.844574 9.418289c0 5.2015686 -2.168991 9.418274 -4.844574 9.418274l-9.689148 0c-2.675583 0 -4.844574 -4.2167053 -4.844574 -9.418274c0 -5.201584 2.168991 -9.418289 4.844574 -9.418289l9.689148 0" fill-rule="evenodd"/><path stroke="#595959" stroke-width="1.0" stroke-linejoin="round" stroke-linecap="butt" d="m209.38795 162.02904l0 0c-2.675583 0 -4.844574 -4.2167053 -4.844574 -9.418274c0 -5.201584 2.168991 -9.418289 4.844574 -9.418289l0 0c2.675583 0 4.844574 4.2167053 4.844574 9.418289c0 5.2015686 -2.168991 9.418274 -4.844574 9.418274l-9.689148 0c-2.675583 0 -4.844574 -4.2167053 -4.844574 -9.418274c0 -5.201584 2.168991 -9.418289 4.844574 -9.418289l9.689148 0" fill-rule="evenodd"/></g><g filter="url(#shadowFilter-g110df50a621_0_21.3)"><use xlink:href="#g110df50a621_0_21.3" transform=""/></g><defs><filter id="shadowFilter-g110df50a621_0_21.3" filterUnits="userSpaceOnUse"><feGaussianBlur in="SourceAlpha" stdDeviation="13.0" result="blur"/><feComponentTransfer in="blur" color-interpolation-filters="sRGB"><feFuncR type="linear" slope="0" intercept="1.0"/><feFuncG type="linear" slope="0" intercept="0.6"/><feFuncB type="linear" slope="0" intercept="0.0"/><feFuncA type="linear" slope="0.5" intercept="0"/></feComponentTransfer></filter></defs><g id="g110df50a621_0_21.3"><path fill="#ffffff" d="m209.38795 169.80095l0 0c-2.675583 0 -4.844574 4.2167206 -4.844574 9.418289c0 5.201584 2.168991 9.418289 4.844574 9.418289l-9.689148 0c-2.675583 0 -4.844574 -4.2167053 -4.844574 -9.418289c0 -5.2015686 2.168991 -9.418289 4.844574 -9.418289z" fill-rule="evenodd"/><path fill="#ffffff" d="m209.38795 169.80095l0 0c2.675583 0 4.844574 4.2167206 4.844574 9.418289c0 5.201584 -2.168991 9.418289 -4.844574 9.418289l0 0c-2.675583 0 -4.844574 -4.2167053 -4.844574 -9.418289c0 -5.2015686 2.168991 -9.418289 4.844574 -9.418289z" fill-rule="evenodd"/><path fill="#000000" fill-opacity="0.0" d="m209.38795 188.63753l0 0c-2.675583 0 -4.844574 -4.2167053 -4.844574 -9.418289c0 -5.2015686 2.168991 -9.418289 4.844574 -9.418289l0 0c2.675583 0 4.844574 4.2167206 4.844574 9.418289c0 5.201584 -2.168991 9.418289 -4.844574 9.418289l-9.689148 0c-2.675583 0 -4.844574 -4.2167053 -4.844574 -9.418289c0 -5.2015686 2.168991 -9.418289 4.844574 -9.418289l9.689148 0" fill-rule="evenodd"/><path stroke="#595959" stroke-width="1.0" stroke-linejoin="round" stroke-linecap="butt" d="m209.38795 188.63753l0 0c-2.675583 0 -4.844574 -4.2167053 -4.844574 -9.418289c0 -5.2015686 2.168991 -9.418289 4.844574 -9.418289l0 0c2.675583 0 4.844574 4.2167206 4.844574 9.418289c0 5.201584 -2.168991 9.418289 -4.844574 9.418289l-9.689148 0c-2.675583 0 -4.844574 -4.2167053 -4.844574 -9.418289c0 -5.2015686 2.168991 -9.418289 4.844574 -9.418289l9.689148 0" fill-rule="evenodd"/></g><g filter="url(#shadowFilter-g110df50a621_0_21.4)"><use xlink:href="#g110df50a621_0_21.4" transform=""/></g><defs><filter id="shadowFilter-g110df50a621_0_21.4" filterUnits="userSpaceOnUse"><feGaussianBlur in="SourceAlpha" stdDeviation="13.0" result="blur"/><feComponentTransfer in="blur" color-interpolation-filters="sRGB"><feFuncR type="linear" slope="0" intercept="1.0"/><feFuncG type="linear" slope="0" intercept="0.6"/><feFuncB type="linear" slope="0" intercept="0.0"/><feFuncA type="linear" slope="0.5" intercept="0"/></feComponentTransfer></filter></defs><g id="g110df50a621_0_21.4"><path fill="#ffffff" d="m193.9169 180.72748l0 0c-2.675583 0 -4.8445587 4.2167053 -4.8445587 9.418289c0 5.2015686 2.1689758 9.418289 4.8445587 9.418289l-9.689133 0c-2.675583 0 -4.844574 -4.2167206 -4.844574 -9.418289c0 -5.201584 2.168991 -9.418289 4.844574 -9.418289z" fill-rule="evenodd"/><path fill="#ffffff" d="m193.9169 180.72748l0 0c2.6755981 0 4.844574 4.2167053 4.844574 9.418289c0 5.2015686 -2.1689758 9.418289 -4.844574 9.418289l0 0c-2.675583 0 -4.8445587 -4.2167206 -4.8445587 -9.418289c0 -5.201584 2.1689758 -9.418289 4.8445587 -9.418289z" fill-rule="evenodd"/><path fill="#000000" fill-opacity="0.0" d="m193.9169 199.56406l0 0c-2.675583 0 -4.8445587 -4.2167206 -4.8445587 -9.418289c0 -5.201584 2.1689758 -9.418289 4.8445587 -9.418289l0 0c2.6755981 0 4.844574 4.2167053 4.844574 9.418289c0 5.2015686 -2.1689758 9.418289 -4.844574 9.418289l-9.689133 0c-2.675583 0 -4.844574 -4.2167206 -4.844574 -9.418289c0 -5.201584 2.168991 -9.418289 4.844574 -9.418289l9.689133 0" fill-rule="evenodd"/><path stroke="#595959" stroke-width="1.0" stroke-linejoin="round" stroke-linecap="butt" d="m193.9169 199.56406l0 0c-2.675583 0 -4.8445587 -4.2167206 -4.8445587 -9.418289c0 -5.201584 2.1689758 -9.418289 4.8445587 -9.418289l0 0c2.6755981 0 4.844574 4.2167053 4.844574 9.418289c0 5.2015686 -2.1689758 9.418289 -4.844574 9.418289l-9.689133 0c-2.675583 0 -4.844574 -4.2167206 -4.844574 -9.418289c0 -5.201584 2.168991 -9.418289 4.844574 -9.418289l9.689133 0" fill-rule="evenodd"/></g><g filter="url(#shadowFilter-g110df50a621_0_21.5)"><use xlink:href="#g110df50a621_0_21.5" transform=""/></g><defs><filter id="shadowFilter-g110df50a621_0_21.5" filterUnits="userSpaceOnUse"><feGaussianBlur in="SourceAlpha" stdDeviation="13.0" result="blur"/><feComponentTransfer in="blur" color-interpolation-filters="sRGB"><feFuncR type="linear" slope="0" intercept="1.0"/><feFuncG type="linear" slope="0" intercept="0.6"/><feFuncB type="linear" slope="0" intercept="0.0"/><feFuncA type="linear" slope="0.5" intercept="0"/></feComponentTransfer></filter></defs><g id="g110df50a621_0_21.5"><path fill="#ffffff" d="m193.9169 156.54222l0 0c-2.675583 0 -4.8445587 4.2167206 -4.8445587 9.418289c0 5.201584 2.1689758 9.418289 4.8445587 9.418289l-9.689133 0c-2.675583 0 -4.844574 -4.2167053 -4.844574 -9.418289c0 -5.2015686 2.168991 -9.418289 4.844574 -9.418289z" fill-rule="evenodd"/><path fill="#ffffff" d="m193.9169 156.54222l0 0c2.6755981 0 4.844574 4.2167206 4.844574 9.418289c0 5.201584 -2.1689758 9.418289 -4.844574 9.418289l0 0c-2.675583 0 -4.8445587 -4.2167053 -4.8445587 -9.418289c0 -5.2015686 2.1689758 -9.418289 4.8445587 -9.418289z" fill-rule="evenodd"/><path fill="#000000" fill-opacity="0.0" d="m193.9169 175.3788l0 0c-2.675583 0 -4.8445587 -4.2167053 -4.8445587 -9.418289c0 -5.2015686 2.1689758 -9.418289 4.8445587 -9.418289l0 0c2.6755981 0 4.844574 4.2167206 4.844574 9.418289c0 5.201584 -2.1689758 9.418289 -4.844574 9.418289l-9.689133 0c-2.675583 0 -4.844574 -4.2167053 -4.844574 -9.418289c0 -5.2015686 2.168991 -9.418289 4.844574 -9.418289l9.689133 0" fill-rule="evenodd"/><path stroke="#595959" stroke-width="1.0" stroke-linejoin="round" stroke-linecap="butt" d="m193.9169 175.3788l0 0c-2.675583 0 -4.8445587 -4.2167053 -4.8445587 -9.418289c0 -5.2015686 2.1689758 -9.418289 4.8445587 -9.418289l0 0c2.6755981 0 4.844574 4.2167206 4.844574 9.418289c0 5.201584 -2.1689758 9.418289 -4.844574 9.418289l-9.689133 0c-2.675583 0 -4.844574 -4.2167053 -4.844574 -9.418289c0 -5.2015686 2.168991 -9.418289 4.844574 -9.418289l9.689133 0" fill-rule="evenodd"/></g><g filter="url(#shadowFilter-g110df50a621_0_21.6)"><use xlink:href="#g110df50a621_0_21.6" transform="matrix(1.0 0.0 0.0 1.0 4.0 0.0)"/></g><defs><filter id="shadowFilter-g110df50a621_0_21.6" filterUnits="userSpaceOnUse"><feGaussianBlur in="SourceAlpha" stdDeviation="20.5" result="blur"/><feComponentTransfer in="blur" color-interpolation-filters="sRGB"><feFuncR type="linear" slope="0" intercept="1.0"/><feFuncG type="linear" slope="0" intercept="1.0"/><feFuncB type="linear" slope="0" intercept="1.0"/><feFuncA type="linear" slope="0.73" intercept="0"/></feComponentTransfer></filter></defs><g id="g110df50a621_0_21.6"><path fill="#0bdba7" d="m147.04298 119.72062l98.95276 0l0 109.37795l-98.95276 0z" fill-rule="evenodd"/><path fill="#08af85" d="m245.99574 119.72062l32.984238 -32.984253l0 109.37795l-32.984238 32.984253z" fill-rule="evenodd"/><path fill="#3be2b8" d="m147.04298 119.72062l32.984253 -32.984253l98.95274 0l-32.984238 32.984253z" fill-rule="evenodd"/><path fill="#000000" fill-opacity="0.0" d="m147.04298 119.72062l32.984253 -32.984253l98.95274 0l0 109.37795l-32.984238 32.984253l-98.95276 0zm0 0l98.95276 0l32.984238 -32.984253m-32.984238 32.984253l0 109.37795" fill-rule="evenodd"/><path stroke="#ffffff" stroke-width="8.0" stroke-linejoin="round" stroke-linecap="butt" d="m147.04298 119.72062l32.984253 -32.984253l98.95274 0l0 109.37795l-32.984238 32.984253l-98.95276 0zm0 0l98.95276 0l32.984238 -32.984253m-32.984238 32.984253l0 109.37795" fill-rule="evenodd"/><path fill="#ffffff" d="m198.45898 209.19835q-7.09375 0 -13.40625 -2.578125q-6.296875 -2.578125 -11.125 -7.171875q-4.828125 -4.59375 -7.546875 -10.890625q-2.703125 -6.3125 -2.703125 -13.765625q0 -7.453125 2.703125 -13.75q2.71875 -6.296875 7.5 -10.890625q4.796875 -4.609375 11.09375 -7.1875q6.296875 -2.578125 13.484375 -2.578125q7.90625 0 14.25 2.765625q6.34375 2.75 10.859375 7.625l-8.5625 8.375q-2.109375 -2.296875 -4.59375 -3.8125q-2.484375 -1.515625 -5.4375 -2.34375q-2.9375 -0.828125 -6.609375 -0.828125q-4.515625 0 -8.515625 1.609375q-4.0 1.609375 -7.09375 4.59375q-3.078125 2.984375 -4.828125 7.125q-1.734375 4.140625 -1.734375 9.296875q0 5.15625 1.734375 9.296875q1.75 4.140625 4.828125 7.125q3.09375 2.984375 7.140625 4.609375q4.046875 1.609375 8.640625 1.609375q4.609375 0 8.1875 -1.28125q3.59375 -1.296875 6.125 -3.5q2.53125 -2.21875 4.046875 -4.921875q1.515625 -2.71875 1.984375 -5.578125l-20.703125 0l0 -10.578125l32.296875 0q0.265625 0.921875 0.453125 2.765625q0.1875 1.828125 0.1875 3.03125l0 0l0 0l0 0q0 7.265625 -2.4375 13.15625q-2.4375 5.890625 -6.8125 10.078125q-4.375 4.1875 -10.359375 6.390625q-5.96875 2.203125 -13.046875 2.203125z" fill-rule="nonzero"/></g></g></svg>